<svg width="40" height="40" viewBox="0 0 40 40" fill="none" xmlns="http://www.w3.org/2000/svg">
<path fill-rule="evenodd" clip-rule="evenodd" d="M20.44 33.3169H19.1034C18.1991 33.0669 17.4977 32.3235 17.3095 31.3955L14.9805 31.3951L14.9808 28.2991C14.981 26.9023 16.1179 25.7659 17.5146 25.7659L18.9435 25.7661L21.1663 22.1934L30.6243 22.1943L32.3415 25.7677H32.6673C33.344 25.7677 33.9802 26.0313 34.4586 26.51C34.9371 26.9884 35.2005 27.6247 35.2005 28.3014L35.2001 31.3975L33.0358 31.3973C32.8477 32.3236 32.1482 33.0659 31.2462 33.3169H29.9009C29.0872 33.0905 28.4387 32.4643 28.1813 31.6638L22.1639 31.6632C21.906 32.4649 21.2555 33.0915 20.44 33.3169ZM19.2344 31.4328C19.3779 31.5764 19.5687 31.6555 19.7717 31.6555C20.1908 31.6555 20.5317 31.3146 20.5318 30.8955C20.5318 30.6926 20.4527 30.5018 20.3092 30.3583C20.1657 30.2147 19.9748 30.1356 19.7718 30.1356C19.5688 30.1356 19.3781 30.2145 19.2345 30.3581C19.0909 30.5016 19.0119 30.6924 19.0119 30.8955C19.0119 31.0985 19.0909 31.2893 19.2344 31.4328ZM33.2193 27.749C33.0719 27.6014 32.8757 27.5201 32.6671 27.5201L17.5143 27.5184C17.0837 27.5184 16.7334 27.8687 16.7333 28.2995L16.7332 29.6431H17.5934C17.7027 29.4538 17.8369 29.2774 17.9955 29.1187C18.47 28.6444 19.1012 28.3831 19.7722 28.3831C20.8081 28.3831 21.6993 29.0136 22.083 29.9107L28.2626 29.9113C28.6466 29.0143 29.5382 28.3843 30.5739 28.3843C31.5034 28.3844 32.316 28.8923 32.7504 29.6448H33.4478L33.448 28.3012C33.448 28.2167 33.4346 28.1341 33.4089 28.056C33.3713 27.9415 33.307 27.8368 33.2193 27.749ZM22.1398 23.946L21.0072 25.7665L25.0099 25.7669L25.0101 23.9464L22.1398 23.946ZM26.7626 23.9464L26.7623 25.7671L30.397 25.7675L29.5221 23.9468L26.7626 23.9464ZM29.8136 30.8967C29.8135 31.3156 30.1545 31.6567 30.5736 31.6567C30.7765 31.6567 30.9673 31.5777 31.1109 31.4342C31.2544 31.2906 31.3335 31.0998 31.3335 30.8969C31.3335 30.4778 30.9926 30.1369 30.5735 30.1367C30.1545 30.1367 29.8136 30.4776 29.8136 30.8967Z" fill="#FF6F00" stroke="white" stroke-width="0.1"/>
<path fill-rule="evenodd" clip-rule="evenodd" d="M8.65969 19.1235H7.32315C6.41881 18.8735 5.71744 18.1301 5.52927 17.2022L3.2002 17.2018L3.20053 14.1058C3.20072 12.709 4.33766 11.5726 5.73435 11.5726L7.16323 11.5728L9.38599 8L18.844 8.00096L20.5612 11.5743H20.887C21.5638 11.5743 22.1999 11.8379 22.6784 12.3166C23.1568 12.7951 23.4203 13.4313 23.4202 14.1081L23.4198 17.2041L21.2555 17.2039C21.0674 18.1303 20.3679 18.8726 19.4659 19.1235H18.1207C17.3069 18.8972 16.6584 18.2709 16.401 17.4704L10.3836 17.4698C10.1257 18.2715 9.4752 18.8981 8.65969 19.1235ZM7.45415 17.2395C7.59764 17.383 7.78846 17.4622 7.99142 17.4622C8.41051 17.4622 8.7514 17.1213 8.75149 16.7022C8.75149 16.4993 8.67242 16.3085 8.52893 16.1649C8.38539 16.0214 8.19448 15.9422 7.99152 15.9422C7.78855 15.9422 7.59779 16.0212 7.4542 16.1647C7.31066 16.3083 7.23163 16.4991 7.23159 16.7022C7.23159 16.9051 7.31061 17.0959 7.45415 17.2395ZM21.439 13.5556C21.2916 13.408 21.0954 13.3268 20.8868 13.3268L5.73406 13.325C5.30344 13.325 4.95309 13.6753 4.953 14.1062L4.9529 15.4497H5.81314C5.92238 15.2604 6.0566 15.084 6.21527 14.9253C6.68971 14.4511 7.32094 14.1897 7.9919 14.1897C9.02786 14.1897 9.91904 14.8202 10.3028 15.7174L16.4824 15.718C16.8664 14.821 17.7579 14.1909 18.7936 14.1909C19.7231 14.1911 20.5357 14.699 20.9701 15.4514H21.6676L21.6677 14.1079C21.6677 14.0233 21.6544 13.9407 21.6287 13.8627C21.591 13.7482 21.5267 13.6434 21.439 13.5556ZM10.3596 9.75266L9.22694 11.5731L13.2296 11.5735L13.2298 9.75304L10.3596 9.75266ZM14.9823 9.75304L14.9821 11.5737L18.6168 11.5741L17.7418 9.75343L14.9823 9.75304ZM18.0333 16.7033C18.0332 17.1222 18.3743 17.4633 18.7933 17.4633C18.9962 17.4633 19.1871 17.3843 19.3307 17.2408C19.4742 17.0973 19.5532 16.9064 19.5533 16.7035C19.5533 16.2844 19.2123 15.9435 18.7932 15.9434C18.3743 15.9434 18.0334 16.2842 18.0333 16.7033Z" fill="#FF6F00" stroke="white" stroke-width="0.1"/>
<path fill-rule="evenodd" clip-rule="evenodd" d="M6.60013 25.527L4.77441 27.3125L5.2848 27.8144C5.56545 28.0904 5.82429 28.3162 5.85987 28.3162C5.89551 28.3162 6.30725 27.943 6.77488 27.4868L7.62508 26.6574V29.1474V31.6375H9.96484H12.3046V30.8855V30.1335H10.7661H9.22765V28.3955V26.6574L10.0778 27.4868C10.5455 27.943 10.9516 28.3162 10.9804 28.3162C11.0091 28.3162 11.2671 28.0895 11.5536 27.8124L12.0747 27.3085L10.2502 25.525L8.42579 23.7415L6.60013 25.527Z" fill="#FF6F00" stroke="white" stroke-width="0.1"/>
<path fill-rule="evenodd" clip-rule="evenodd" d="M25.9985 10.3262V11.0782H27.537H29.0755V12.7849V14.4917L28.2099 13.6473L27.3442 12.8028L26.7878 13.3467L26.2314 13.8907L28.0279 15.649C29.016 16.6161 29.8508 17.4073 29.883 17.4073C29.9154 17.4073 30.749 16.6178 31.7358 15.6527L33.5297 13.8981L32.9778 13.3586L32.4259 12.819L31.5874 13.6405C31.1262 14.0924 30.7329 14.4621 30.7134 14.4621C30.694 14.4621 30.6781 13.3623 30.6781 12.0182V9.57422H28.3383H25.9985V10.3262Z" fill="#FF6F00" stroke="white" stroke-width="0.1"/>
</svg>
