<svg width="40" height="40" viewBox="0 0 40 40" fill="none" xmlns="http://www.w3.org/2000/svg">
<path d="M28.2803 14.0389C27.8696 11.1801 25.4045 8.97554 22.4338 8.97554H19.9021V5.6001H6.3999V19.1023H8.08762V30.4619L12.307 34.4001L16.8969 30.1163L15.1883 28.4075L16.876 26.7198L15.1883 25.0321L16.876 23.3441L14.8387 21.3068V19.1023H15.6827C18.0092 19.1023 19.9021 17.2094 19.9021 14.8829V10.6635H22.4338C24.4713 10.6635 26.1762 12.1154 26.5682 14.0389H21.5898V30.9166H33.4043V14.0389H28.2803ZM14.4891 23.3441L12.8014 25.0321L14.4891 26.7198L12.8014 28.4075L14.4683 30.0743L12.307 32.0914L9.77534 29.7285V19.1023H13.151V22.006L14.4891 23.3441ZM18.2144 14.8829C18.2144 16.2788 17.0786 17.4146 15.6827 17.4146H8.08762V7.28782H18.2144V14.8829ZM26.6532 22.4777H28.3409V24.1657H26.6532V22.4777ZM28.3409 20.79H26.6532V19.1023H28.3409V20.79ZM28.3409 17.4146H26.6532V15.7266H28.3409V17.4146ZM31.7164 29.2288H23.2775V15.7266H24.9655V25.8534H30.0286V15.7266H31.7164V29.2288Z" fill="#FF6F00"/>
<path d="M9.77588 8.97534H16.527V10.6633H9.77588V8.97534Z" fill="#FF6F00"/>
<path d="M9.77588 14.0388H11.4638V15.7265H9.77588V14.0388Z" fill="#FF6F00"/>
</svg>
