<svg width="40" height="40" viewBox="0 0 40 40" fill="none" xmlns="http://www.w3.org/2000/svg">
<path d="M29.7529 29.8563C29.8542 27.0194 30.4332 25.5215 30.9071 24.2964C31.3505 23.15 31.7334 22.1599 31.3826 20.7339C30.9995 19.1765 29.6927 17.8194 27.9561 17.4749V10.6655L22.0906 4.80005H4.7998V35.2H35.1998V29.8563H29.7529ZM29.6529 21.1595C29.8697 22.0406 29.6481 22.6137 29.2458 23.6539C28.7463 24.9452 28.0779 26.6758 27.9711 29.8564H26.1597C26.0528 26.6842 25.3855 24.9478 24.8868 23.6519C24.4848 22.6073 24.2633 22.0319 24.4779 21.1595C24.7213 20.1702 25.6882 19.1688 27.0654 19.1688C28.4426 19.1688 29.4096 20.1702 29.6529 21.1595ZM22.6123 7.84082L24.9153 10.1438H22.6123V7.84082ZM6.58105 33.4188V6.5813H20.8311V11.925H26.1748V17.4749C24.458 17.8152 23.1362 19.157 22.7483 20.734C22.4 22.1495 22.782 23.1422 23.2244 24.2916C23.6979 25.522 24.2765 27.0262 24.3779 29.8563H19.0498V33.4188H6.58105ZM33.4186 33.4188C33.0523 33.4188 21.131 33.4188 20.8311 33.4188V31.6375H33.4186V33.4188Z" fill="#FF6F00"/>
<path d="M8.3623 15.6062H15.4873V17.3875H8.3623V15.6062Z" fill="#FF6F00"/>
<path d="M8.3623 19.1687H19.0498V20.95H8.3623V19.1687Z" fill="#FF6F00"/>
<path d="M11.0342 26.2937C9.56091 26.2937 8.3623 27.4923 8.3623 28.9656C8.3623 30.4388 9.56091 31.6375 11.0342 31.6375C12.5075 31.6375 13.7061 30.4388 13.7061 28.9656C13.7061 27.4923 12.5075 26.2937 11.0342 26.2937ZM11.0342 29.8562C10.5431 29.8562 10.1436 29.4567 10.1436 28.9656C10.1436 28.4745 10.5431 28.075 11.0342 28.075C11.5253 28.075 11.9248 28.4745 11.9248 28.9656C11.9248 29.4567 11.5253 29.8562 11.0342 29.8562Z" fill="#FF6F00"/>
</svg>
