<svg width="40" height="40" viewBox="0 0 40 40" fill="none" xmlns="http://www.w3.org/2000/svg">
<path d="M20.8906 15.6365V13.7656H19.1094V15.6365C17.3671 15.9915 15.9916 17.3671 15.6365 19.1094H13.7656V20.8906H15.6365C15.9915 22.6329 17.3671 24.0084 19.1094 24.3635V26.2344H20.8906V24.3635C22.6329 24.0085 24.0084 22.6329 24.3635 20.8906H26.2344V19.1094H24.3635C24.0084 17.3671 22.6329 15.9915 20.8906 15.6365ZM20 22.6719C18.5267 22.6719 17.3281 21.4733 17.3281 20C17.3281 18.5267 18.5267 17.3281 20 17.3281C21.4733 17.3281 22.6719 18.5267 22.6719 20C22.6719 21.4733 21.4733 22.6719 20 22.6719Z" fill="#FF6F00"/>
<path d="M35.1998 19.1094H33.3293C32.8934 12.4435 27.5673 7.10718 20.8904 6.6706V4.80005H19.1092V6.6706C12.4431 7.10647 7.10694 12.4326 6.67035 19.1094H4.7998V20.8907H6.67035C7.10623 27.5567 12.4323 32.8929 19.1092 33.3295V35.2H20.8904V33.3295C27.5564 32.8936 32.8927 27.5676 33.3293 20.8907H35.1998V19.1094ZM20.8904 31.5443V29.7969H19.1092V31.5443C13.4335 31.1105 8.88938 26.5664 8.45558 20.8907H10.2029V19.1094H8.45558C8.88938 13.4337 13.4335 8.88962 19.1092 8.45583V10.2032H20.8904V8.45583C26.5661 8.88962 31.1102 13.4337 31.544 19.1094H29.7967V20.8907H31.544C31.1102 26.5664 26.5661 31.1105 20.8904 31.5443Z" fill="#FF6F00"/>
<path d="M19.1094 19.1094H20.8906V20.8906H19.1094V19.1094Z" fill="#FF6F00"/>
</svg>
