<svg width="40" height="40" viewBox="0 0 40 40" fill="none" xmlns="http://www.w3.org/2000/svg">
<path d="M29.5 14.1002H27.9929C28.5444 13.1215 29.6169 11.1588 29.6169 10.0745C29.6169 5.91918 23.3282 5.91918 23.3282 10.0745C23.3282 11.1582 24.3978 13.1144 24.9533 14.1002H23.4451C21.7425 14.1002 20.3574 15.4853 20.3574 17.1878V30.8812C20.3574 32.5838 21.7425 33.9689 23.4451 33.9689H29.5001C31.2026 33.9689 32.5877 32.5838 32.5877 30.8812V17.1878C32.5877 15.4852 31.2026 14.1002 29.5 14.1002ZM27.8819 10.0745C27.8819 10.5482 27.2359 11.9159 26.4725 13.2691C25.7092 11.9159 25.0632 10.5482 25.0632 10.0745C25.0632 8.2125 27.8819 8.21124 27.8819 10.0745ZM30.8527 30.8812C30.8527 31.6272 30.2461 32.2339 29.5 32.2339H23.445C22.6996 32.2339 22.0923 31.6272 22.0923 30.8812V17.1878C22.0923 16.4417 22.6995 15.8351 23.445 15.8351H29.5C30.246 15.8351 30.8527 16.4417 30.8527 17.1878V30.8812Z" fill="#FF6F00"/>
<path fill-rule="evenodd" clip-rule="evenodd" d="M11.254 5.59961H16.1419C18.5532 5.59961 20.4402 7.69918 20.1705 10.1059C20.056 11.1264 19.9697 12.0586 19.8913 12.9055C19.4973 17.1612 19.3028 19.2618 16.7376 19.5787V23.5512C16.7376 23.919 16.6069 24.0536 15.9499 24.7303C15.8119 24.8725 15.6506 25.0386 15.4625 25.2358C15.6545 25.437 15.8186 25.6058 15.9587 25.7498C16.6012 26.4104 16.7376 26.5507 16.7376 26.9204V30.894C16.7376 31.2259 16.7234 31.243 15.5137 32.699L15.5136 32.6991L15.5134 32.6993L15.5131 32.6997C15.2116 33.0626 14.8359 33.5148 14.3677 34.0835C14.0214 34.5039 13.3763 34.5061 13.0283 34.0835C12.5612 33.5164 12.1862 33.0651 11.885 32.7027L11.8849 32.7026C10.6761 31.248 10.6578 31.226 10.6578 30.894V19.5787C8.08341 19.2606 7.88773 17.1212 7.50329 12.9181C7.42537 12.0662 7.33969 11.1294 7.22487 10.1059C6.95581 7.70472 8.83756 5.59961 11.254 5.59961ZM17.6878 16.6767L18.4466 9.91212C18.6012 8.53431 17.526 7.33456 16.1419 7.33456H11.254C9.86661 7.33456 8.79495 8.53642 8.94944 9.91212L9.70755 16.6767C9.76888 17.2238 10.1529 17.6628 10.6578 17.8119L16.3559 17.8675C17.0415 17.8675 17.6121 17.353 17.6878 16.6767ZM13.6355 24.6372L15.0027 23.2042H15.0027V19.6024H12.3928V30.5829L13.698 32.1675L15.0027 30.5829V27.2674L13.6355 25.8349C13.3157 25.4995 13.3157 24.9727 13.6355 24.6372ZM10.4703 12.3273C10.4703 10.5472 11.9184 9.09915 13.6985 9.09915C15.4785 9.09915 16.9267 10.5472 16.9267 12.3273C16.9267 14.1103 15.4746 15.5555 13.6985 15.5555C11.9227 15.5555 10.4703 14.1107 10.4703 12.3273ZM15.1917 12.3273C15.1917 11.5038 14.522 10.8341 13.6985 10.8341C12.8749 10.8341 12.2053 11.5038 12.2053 12.3273C12.2053 13.1509 12.8749 13.8205 13.6985 13.8205C14.522 13.8205 15.1917 13.1508 15.1917 12.3273ZM28.9984 18.0299H23.9503C23.4709 18.0299 23.0828 18.418 23.0828 18.8974V22.6171C23.0828 23.096 23.4709 23.4846 23.9503 23.4846H28.9984C29.4773 23.4846 29.8659 23.096 29.8659 22.6171V18.8974C29.8659 18.418 29.4773 18.0299 28.9984 18.0299ZM28.131 21.7496H24.8178V19.7649H28.131V21.7496ZM23.9503 24.5834H28.9984C29.4773 24.5834 29.8659 24.9721 29.8659 25.4509V29.1706C29.8659 29.65 29.4773 30.0381 28.9984 30.0381H23.9503C23.4709 30.0381 23.0828 29.65 23.0828 29.1706V25.4509C23.0828 24.9721 23.4709 24.5834 23.9503 24.5834ZM24.8178 28.3032H28.131V26.3184H24.8178V28.3032Z" fill="#FF6F00"/>
</svg>
