<svg width="40" height="40" viewBox="0 0 40 40" fill="none" xmlns="http://www.w3.org/2000/svg">
<path fill-rule="evenodd" clip-rule="evenodd" d="M27.25 9.63086C27.25 9.64805 27.2219 9.66211 27.1875 9.66211C27.1531 9.66211 27.125 9.67617 27.125 9.69336C27.125 9.71055 27.1036 9.72461 27.0774 9.72461C26.9956 9.72461 26.6875 10.0574 26.6875 10.1458C26.6875 10.1891 26.6734 10.2246 26.6562 10.2246C26.6391 10.2246 26.625 10.2949 26.625 10.3809C26.625 10.4668 26.6109 10.5371 26.5938 10.5371C26.5766 10.5371 26.5625 10.5934 26.5625 10.6621C26.5625 10.7802 26.5573 10.7871 26.4688 10.7871C26.4172 10.7871 26.375 10.8012 26.375 10.8184C26.375 10.8357 26.2917 10.8496 26.1875 10.8496C26.0833 10.8496 26 10.8635 26 10.8809C26 10.8982 25.9167 10.9121 25.8125 10.9121C25.7083 10.9121 25.625 10.926 25.625 10.9434C25.625 10.9607 25.5417 10.9746 25.4375 10.9746C25.3333 10.9746 25.25 10.9885 25.25 11.0059C25.25 11.0232 25.1667 11.0371 25.0625 11.0371C24.9583 11.0371 24.875 11.051 24.875 11.0684C24.875 11.0857 24.7917 11.0996 24.6875 11.0996C24.5833 11.0996 24.5 11.1135 24.5 11.1309C24.5 11.1482 24.4167 11.1621 24.3125 11.1621C24.2083 11.1621 24.125 11.176 24.125 11.1934C24.125 11.2107 24.0417 11.2246 23.9375 11.2246C23.8333 11.2246 23.75 11.2385 23.75 11.2559C23.75 11.2732 23.6667 11.2871 23.5625 11.2871C23.4583 11.2871 23.375 11.301 23.375 11.3184C23.375 11.3357 23.2917 11.3496 23.1875 11.3496C23.0833 11.3496 23 11.3635 23 11.3809C23 11.3982 22.9167 11.4121 22.8125 11.4121C22.7083 11.4121 22.625 11.426 22.625 11.4434C22.625 11.4607 22.5417 11.4746 22.4375 11.4746C22.3333 11.4746 22.25 11.4885 22.25 11.5059C22.25 11.5232 22.1667 11.5371 22.0625 11.5371C21.9583 11.5371 21.875 11.551 21.875 11.5684C21.875 11.5857 21.7917 11.5996 21.6875 11.5996C21.5833 11.5996 21.5 11.6135 21.5 11.6309C21.5 11.6482 21.4167 11.6621 21.3125 11.6621C21.2083 11.6621 21.125 11.676 21.125 11.6934C21.125 11.7107 21.0417 11.7246 20.9375 11.7246C20.8333 11.7246 20.75 11.7385 20.75 11.7559C20.75 11.7732 20.6667 11.7871 20.5625 11.7871C20.4583 11.7871 20.375 11.801 20.375 11.8184C20.375 11.8357 20.2917 11.8496 20.1875 11.8496C20.0833 11.8496 20 11.8635 20 11.8809C20 11.8982 19.9167 11.9121 19.8125 11.9121C19.7083 11.9121 19.625 11.926 19.625 11.9434C19.625 11.9607 19.5417 11.9746 19.4375 11.9746C19.3333 11.9746 19.25 11.9885 19.25 12.0059C19.25 12.0232 19.1667 12.0371 19.0625 12.0371C18.9583 12.0371 18.875 12.051 18.875 12.0684C18.875 12.0857 18.7917 12.0996 18.6875 12.0996C18.5833 12.0996 18.5 12.1135 18.5 12.1309C18.5 12.1482 18.4167 12.1621 18.3125 12.1621C18.2083 12.1621 18.125 12.176 18.125 12.1934C18.125 12.2107 18.0417 12.2246 17.9375 12.2246C17.8333 12.2246 17.75 12.2385 17.75 12.2559C17.75 12.2732 17.6667 12.2871 17.5625 12.2871C17.4583 12.2871 17.375 12.301 17.375 12.3184C17.375 12.3357 17.2917 12.3496 17.1875 12.3496C17.0833 12.3496 17 12.3635 17 12.3809C17 12.3982 16.9167 12.4121 16.8125 12.4121C16.7083 12.4121 16.625 12.426 16.625 12.4434C16.625 12.4607 16.5417 12.4746 16.4375 12.4746C16.3333 12.4746 16.25 12.4885 16.25 12.5059C16.25 12.5232 16.1667 12.5371 16.0625 12.5371C15.9583 12.5371 15.875 12.551 15.875 12.5684C15.875 12.5857 15.7917 12.5996 15.6875 12.5996C15.5833 12.5996 15.5 12.6135 15.5 12.6309C15.5 12.6482 15.4167 12.6621 15.3125 12.6621C15.2083 12.6621 15.125 12.676 15.125 12.6934C15.125 12.7107 15.0417 12.7246 14.9375 12.7246C14.8333 12.7246 14.75 12.7385 14.75 12.7559C14.75 12.7732 14.6667 12.7871 14.5625 12.7871C14.4583 12.7871 14.375 12.801 14.375 12.8184C14.375 12.8357 14.2917 12.8496 14.1875 12.8496C14.0833 12.8496 14 12.8635 14 12.8809C14 12.8982 13.9167 12.9121 13.8125 12.9121C13.7083 12.9121 13.625 12.926 13.625 12.9434C13.625 12.9607 13.5417 12.9746 13.4375 12.9746C13.3333 12.9746 13.25 12.9885 13.25 13.0059C13.25 13.0232 13.1667 13.0371 13.0625 13.0371C12.9583 13.0371 12.875 13.051 12.875 13.0684C12.875 13.0857 12.7917 13.0996 12.6875 13.0996C12.5833 13.0996 12.5 13.1135 12.5 13.1309C12.5 13.1482 12.4167 13.1621 12.3125 13.1621C12.2083 13.1621 12.125 13.176 12.125 13.1934C12.125 13.2107 12.0417 13.2246 11.9375 13.2246C11.8333 13.2246 11.75 13.2385 11.75 13.2559C11.75 13.2732 11.6667 13.2871 11.5625 13.2871C11.4583 13.2871 11.375 13.301 11.375 13.3184C11.375 13.3357 11.2917 13.3496 11.1875 13.3496C11.0833 13.3496 11 13.3635 11 13.3809C11 13.3982 10.9167 13.4121 10.8125 13.4121C10.7083 13.4121 10.625 13.426 10.625 13.4434C10.625 13.4607 10.5417 13.4746 10.4375 13.4746C10.3333 13.4746 10.25 13.4885 10.25 13.5059C10.25 13.5232 10.1667 13.5371 10.0625 13.5371C9.95834 13.5371 9.875 13.551 9.875 13.5684C9.875 13.5857 9.79166 13.5996 9.6875 13.5996C9.58334 13.5996 9.5 13.6135 9.5 13.6309C9.5 13.6482 9.41666 13.6621 9.3125 13.6621C9.20834 13.6621 9.125 13.676 9.125 13.6934C9.125 13.7107 9.04166 13.7246 8.9375 13.7246C8.83334 13.7246 8.75 13.7385 8.75 13.7559C8.75 13.7732 8.66666 13.7871 8.5625 13.7871C8.45834 13.7871 8.375 13.801 8.375 13.8184C8.375 13.8357 8.29166 13.8496 8.1875 13.8496C8.08334 13.8496 8 13.8635 8 13.8809C8 13.8982 7.91666 13.9121 7.8125 13.9121C7.70834 13.9121 7.625 13.926 7.625 13.9434C7.625 13.9607 7.54166 13.9746 7.4375 13.9746C7.33334 13.9746 7.25 13.9885 7.25 14.0059C7.25 14.0232 7.16666 14.0371 7.0625 14.0371C6.95834 14.0371 6.875 14.051 6.875 14.0684C6.875 14.0857 6.79166 14.0996 6.6875 14.0996C6.58334 14.0996 6.5 14.1135 6.5 14.1309C6.5 14.1482 6.41666 14.1621 6.3125 14.1621C6.20834 14.1621 6.125 14.176 6.125 14.1934C6.125 14.2105 6.06875 14.2246 6 14.2246H5.875V13.9746C5.875 13.8288 5.86197 13.7246 5.84375 13.7246C5.82656 13.7246 5.8125 13.6855 5.8125 13.6378C5.8125 13.5868 5.78669 13.5323 5.75 13.5059C5.71563 13.4811 5.6875 13.4424 5.6875 13.4198C5.6875 13.3628 5.48141 13.1621 5.42291 13.1621C5.39656 13.1621 5.375 13.148 5.375 13.1309C5.375 13.1137 5.33281 13.0996 5.28125 13.0996C5.22969 13.0996 5.1875 13.0855 5.1875 13.0684C5.1875 13.0501 5.08334 13.0371 4.9375 13.0371C4.79166 13.0371 4.6875 13.0501 4.6875 13.0684C4.6875 13.0855 4.64531 13.0996 4.59375 13.0996C4.54219 13.0996 4.5 13.1137 4.5 13.1309C4.5 13.148 4.47844 13.1621 4.45209 13.1621C4.39359 13.1621 4.1875 13.3628 4.1875 13.4198C4.1875 13.4424 4.15937 13.4811 4.125 13.5059C4.08831 13.5323 4.0625 13.5868 4.0625 13.6378C4.0625 13.6855 4.04844 13.7246 4.03125 13.7246C4.01053 13.7246 4 15.5371 4 19.0996C4 22.6621 4.01053 24.4746 4.03125 24.4746C4.04844 24.4746 4.0625 24.5168 4.0625 24.5684C4.0625 24.6199 4.07656 24.6621 4.09375 24.6621C4.11094 24.6621 4.125 24.6836 4.125 24.7098C4.125 24.7718 4.39028 25.0371 4.45231 25.0371C4.47853 25.0371 4.5 25.0512 4.5 25.0684C4.5 25.0855 4.52812 25.0996 4.5625 25.0996C4.59688 25.0996 4.625 25.1137 4.625 25.1309C4.625 25.1496 4.75 25.1621 4.9375 25.1621C5.125 25.1621 5.25 25.1496 5.25 25.1309C5.25 25.1137 5.27813 25.0996 5.3125 25.0996C5.34687 25.0996 5.375 25.0855 5.375 25.0684C5.375 25.0512 5.39647 25.0371 5.42269 25.0371C5.48472 25.0371 5.75 24.7718 5.75 24.7098C5.75 24.6836 5.76406 24.6621 5.78125 24.6621C5.79844 24.6621 5.8125 24.6199 5.8125 24.5684C5.8125 24.5168 5.82656 24.4746 5.84375 24.4746C5.86197 24.4746 5.875 24.3705 5.875 24.2246V23.9746H5.96875C6.02031 23.9746 6.0625 23.9887 6.0625 24.0059C6.0625 24.0232 6.14584 24.0371 6.25 24.0371C6.35416 24.0371 6.4375 24.051 6.4375 24.0684C6.4375 24.0857 6.52084 24.0996 6.625 24.0996C6.72916 24.0996 6.8125 24.1135 6.8125 24.1309C6.8125 24.1482 6.89584 24.1621 7 24.1621C7.10416 24.1621 7.1875 24.176 7.1875 24.1934C7.1875 24.2107 7.27084 24.2246 7.375 24.2246C7.47916 24.2246 7.5625 24.2385 7.5625 24.2559C7.5625 24.2732 7.64584 24.2871 7.75 24.2871C7.85416 24.2871 7.9375 24.301 7.9375 24.3184C7.9375 24.3357 8.02084 24.3496 8.125 24.3496C8.22916 24.3496 8.3125 24.3635 8.3125 24.3809C8.3125 24.3982 8.39584 24.4121 8.5 24.4121C8.60416 24.4121 8.6875 24.426 8.6875 24.4434C8.6875 24.4607 8.77084 24.4746 8.875 24.4746C8.97916 24.4746 9.0625 24.4885 9.0625 24.5059C9.0625 24.5232 9.14584 24.5371 9.25 24.5371C9.35416 24.5371 9.4375 24.551 9.4375 24.5684C9.4375 24.5855 9.47969 24.5996 9.53125 24.5996H9.625V26.3184C9.625 27.4434 9.63578 28.0371 9.65625 28.0371C9.67409 28.0371 9.6875 28.1309 9.6875 28.2559C9.6875 28.3809 9.70091 28.4746 9.71875 28.4746C9.73594 28.4746 9.75 28.5309 9.75 28.5996C9.75 28.6684 9.76406 28.7246 9.78125 28.7246C9.79844 28.7246 9.8125 28.7668 9.8125 28.8184C9.8125 28.8699 9.82656 28.9121 9.84375 28.9121C9.86094 28.9121 9.875 28.9402 9.875 28.9746C9.875 29.009 9.88906 29.0371 9.90625 29.0371C9.92344 29.0371 9.9375 29.0652 9.9375 29.0996C9.9375 29.134 9.95156 29.1621 9.96875 29.1621C9.98594 29.1621 10 29.1902 10 29.2246C10 29.259 10.0141 29.2871 10.0312 29.2871C10.0484 29.2871 10.0625 29.3121 10.0625 29.3427C10.0625 29.3733 10.0906 29.4186 10.125 29.4434C10.1594 29.4681 10.1875 29.5065 10.1875 29.5287C10.1875 29.5814 10.8307 30.2246 10.8834 30.2246C10.9056 30.2246 10.944 30.2527 10.9688 30.2871C10.9935 30.3215 11.0388 30.3496 11.0694 30.3496C11.1 30.3496 11.125 30.3637 11.125 30.3809C11.125 30.398 11.1531 30.4121 11.1875 30.4121C11.2219 30.4121 11.25 30.4262 11.25 30.4434C11.25 30.4605 11.2781 30.4746 11.3125 30.4746C11.3469 30.4746 11.375 30.4887 11.375 30.5059C11.375 30.523 11.4172 30.5371 11.4688 30.5371C11.5203 30.5371 11.5625 30.5512 11.5625 30.5684C11.5625 30.5855 11.6047 30.5996 11.6562 30.5996C11.7078 30.5996 11.75 30.6137 11.75 30.6309C11.75 30.648 11.8203 30.6621 11.9062 30.6621C11.9922 30.6621 12.0625 30.6762 12.0625 30.6934C12.0625 30.714 13.1667 30.7246 15.3125 30.7246C17.4583 30.7246 18.5625 30.714 18.5625 30.6934C18.5625 30.6762 18.6187 30.6621 18.6875 30.6621C18.7563 30.6621 18.8125 30.648 18.8125 30.6309C18.8125 30.6137 18.8687 30.5996 18.9375 30.5996C19.0063 30.5996 19.0625 30.5855 19.0625 30.5684C19.0625 30.5512 19.0906 30.5371 19.125 30.5371C19.1594 30.5371 19.1875 30.523 19.1875 30.5059C19.1875 30.4887 19.2156 30.4746 19.25 30.4746C19.2844 30.4746 19.3125 30.4605 19.3125 30.4434C19.3125 30.4262 19.3406 30.4121 19.375 30.4121C19.4094 30.4121 19.4375 30.398 19.4375 30.3809C19.4375 30.3637 19.4656 30.3496 19.5 30.3496C19.5344 30.3496 19.5625 30.3355 19.5625 30.3184C19.5625 30.3012 19.585 30.2871 19.6125 30.2871C19.6399 30.2871 19.7018 30.2449 19.75 30.1934C19.7982 30.1418 19.8533 30.0996 19.8725 30.0996C19.9213 30.0996 20.3125 29.7035 20.3125 29.654C20.3125 29.6317 20.3406 29.5931 20.375 29.5684C20.4094 29.5436 20.4375 29.5014 20.4375 29.4746C20.4375 29.4478 20.4656 29.4056 20.5 29.3809C20.5344 29.3561 20.5625 29.3108 20.5625 29.2802C20.5625 29.2496 20.5766 29.2246 20.5938 29.2246C20.6109 29.2246 20.625 29.1965 20.625 29.1621C20.625 29.1277 20.6391 29.0996 20.6562 29.0996C20.6734 29.0996 20.6875 29.0715 20.6875 29.0371C20.6875 29.0027 20.7016 28.9746 20.7188 28.9746C20.7359 28.9746 20.75 28.9324 20.75 28.8809C20.75 28.8293 20.7641 28.7871 20.7812 28.7871C20.7984 28.7871 20.8125 28.7449 20.8125 28.6934C20.8125 28.6418 20.8266 28.5996 20.8438 28.5996C20.8609 28.5996 20.875 28.5293 20.875 28.4434C20.875 28.3574 20.8891 28.2871 20.9062 28.2871C20.9264 28.2871 20.9375 27.9642 20.9375 27.3809C20.9375 26.7975 20.9486 26.4746 20.9688 26.4746C20.9859 26.4746 21 26.4887 21 26.5059C21 26.5237 21.0938 26.5371 21.2188 26.5371C21.3438 26.5371 21.4375 26.5505 21.4375 26.5684C21.4375 26.5857 21.5208 26.5996 21.625 26.5996C21.7292 26.5996 21.8125 26.6135 21.8125 26.6309C21.8125 26.6482 21.8958 26.6621 22 26.6621C22.1042 26.6621 22.1875 26.676 22.1875 26.6934C22.1875 26.7107 22.2708 26.7246 22.375 26.7246C22.4792 26.7246 22.5625 26.7385 22.5625 26.7559C22.5625 26.7732 22.6458 26.7871 22.75 26.7871C22.8542 26.7871 22.9375 26.801 22.9375 26.8184C22.9375 26.8357 23.0208 26.8496 23.125 26.8496C23.2292 26.8496 23.3125 26.8635 23.3125 26.8809C23.3125 26.8982 23.3958 26.9121 23.5 26.9121C23.6042 26.9121 23.6875 26.926 23.6875 26.9434C23.6875 26.9607 23.7708 26.9746 23.875 26.9746C23.9792 26.9746 24.0625 26.9885 24.0625 27.0059C24.0625 27.0232 24.1458 27.0371 24.25 27.0371C24.3542 27.0371 24.4375 27.051 24.4375 27.0684C24.4375 27.0857 24.5208 27.0996 24.625 27.0996C24.7292 27.0996 24.8125 27.1135 24.8125 27.1309C24.8125 27.1482 24.8958 27.1621 25 27.1621C25.1042 27.1621 25.1875 27.176 25.1875 27.1934C25.1875 27.2107 25.2708 27.2246 25.375 27.2246C25.4792 27.2246 25.5625 27.2385 25.5625 27.2559C25.5625 27.2732 25.6458 27.2871 25.75 27.2871C25.8542 27.2871 25.9375 27.301 25.9375 27.3184C25.9375 27.3357 26.0208 27.3496 26.125 27.3496C26.2292 27.3496 26.3125 27.3635 26.3125 27.3809C26.3125 27.398 26.3687 27.4121 26.4375 27.4121H26.5625V27.5371C26.5625 27.6059 26.5766 27.6621 26.5938 27.6621C26.6111 27.6621 26.625 27.7455 26.625 27.8496C26.625 27.9538 26.6389 28.0371 26.6562 28.0371C26.6734 28.0371 26.6875 28.0621 26.6875 28.0927C26.6875 28.1233 26.7156 28.1686 26.75 28.1934C26.7844 28.2181 26.8125 28.2634 26.8125 28.294C26.8125 28.3246 26.835 28.3496 26.8625 28.3496C26.8899 28.3496 26.9518 28.3918 27 28.4434C27.0538 28.501 27.1188 28.5371 27.1688 28.5371C27.2135 28.5371 27.25 28.5512 27.25 28.5684C27.25 28.5869 27.3646 28.5996 27.5312 28.5996C27.6979 28.5996 27.8125 28.5869 27.8125 28.5684C27.8125 28.5512 27.8516 28.5371 27.8993 28.5371C27.9503 28.5371 28.0048 28.5113 28.0312 28.4746C28.056 28.4402 28.0953 28.4121 28.1185 28.4121C28.1729 28.4121 28.25 28.335 28.25 28.2806C28.25 28.2574 28.2781 28.2181 28.3125 28.1934C28.3469 28.1686 28.375 28.1233 28.375 28.0927C28.375 28.0621 28.3891 28.0371 28.4062 28.0371C28.4236 28.0371 28.4375 27.9538 28.4375 27.8496C28.4375 27.7455 28.4514 27.6621 28.4688 27.6621C28.4895 27.6621 28.5 24.7871 28.5 19.0996C28.5 13.4121 28.4895 10.5371 28.4688 10.5371C28.4516 10.5371 28.4375 10.4668 28.4375 10.3809C28.4375 10.2949 28.4234 10.2246 28.4062 10.2246C28.3891 10.2246 28.375 10.1965 28.375 10.1621C28.375 10.1277 28.3609 10.0996 28.3438 10.0996C28.3266 10.0996 28.3125 10.0781 28.3125 10.0519C28.3125 9.98989 28.0472 9.72461 27.9852 9.72461C27.959 9.72461 27.9375 9.71055 27.9375 9.69336C27.9375 9.67617 27.9094 9.66211 27.875 9.66211C27.8406 9.66211 27.8125 9.64805 27.8125 9.63086C27.8125 9.61233 27.6979 9.59961 27.5312 9.59961C27.3646 9.59961 27.25 9.61233 27.25 9.63086ZM26.5625 19.0996C26.5625 25.5163 26.5623 25.5371 26.5 25.5371C26.4656 25.5371 26.4375 25.523 26.4375 25.5059C26.4375 25.4885 26.3542 25.4746 26.25 25.4746C26.1458 25.4746 26.0625 25.4607 26.0625 25.4434C26.0625 25.426 25.9792 25.4121 25.875 25.4121C25.7708 25.4121 25.6875 25.3982 25.6875 25.3809C25.6875 25.3635 25.6042 25.3496 25.5 25.3496C25.3958 25.3496 25.3125 25.3357 25.3125 25.3184C25.3125 25.301 25.2292 25.2871 25.125 25.2871C25.0208 25.2871 24.9375 25.2732 24.9375 25.2559C24.9375 25.2387 24.8813 25.2246 24.8125 25.2246H24.6875V19.0996V12.9746H24.875C24.9792 12.9746 25.0625 12.9607 25.0625 12.9434C25.0625 12.926 25.1458 12.9121 25.25 12.9121C25.3542 12.9121 25.4375 12.8982 25.4375 12.8809C25.4375 12.8635 25.5208 12.8496 25.625 12.8496C25.7292 12.8496 25.8125 12.8357 25.8125 12.8184C25.8125 12.801 25.8958 12.7871 26 12.7871C26.1042 12.7871 26.1875 12.7732 26.1875 12.7559C26.1875 12.7387 26.2578 12.7246 26.3438 12.7246C26.4297 12.7246 26.5 12.7105 26.5 12.6934C26.5 12.6762 26.5141 12.6621 26.5312 12.6621C26.552 12.6621 26.5625 14.8288 26.5625 19.0996ZM22.8125 19.1309C22.8125 24.8913 22.8123 24.9121 22.75 24.9121C22.7156 24.9121 22.6875 24.898 22.6875 24.8809C22.6875 24.8635 22.6042 24.8496 22.5 24.8496C22.3958 24.8496 22.3125 24.8357 22.3125 24.8184C22.3125 24.801 22.2292 24.7871 22.125 24.7871C22.0208 24.7871 21.9375 24.7732 21.9375 24.7559C21.9375 24.7385 21.8542 24.7246 21.75 24.7246C21.6458 24.7246 21.5625 24.7107 21.5625 24.6934C21.5625 24.676 21.4792 24.6621 21.375 24.6621C21.2708 24.6621 21.1875 24.6482 21.1875 24.6309C21.1875 24.6135 21.1042 24.5996 21 24.5996C20.8958 24.5996 20.8125 24.5857 20.8125 24.5684C20.8125 24.551 20.7292 24.5371 20.625 24.5371C20.5208 24.5371 20.4375 24.5232 20.4375 24.5059C20.4375 24.4885 20.3542 24.4746 20.25 24.4746C20.1458 24.4746 20.0625 24.4607 20.0625 24.4434C20.0625 24.426 19.9792 24.4121 19.875 24.4121C19.7708 24.4121 19.6875 24.3982 19.6875 24.3809C19.6875 24.3635 19.6042 24.3496 19.5 24.3496C19.3958 24.3496 19.3125 24.3357 19.3125 24.3184C19.3125 24.301 19.2292 24.2871 19.125 24.2871C19.0208 24.2871 18.9375 24.2732 18.9375 24.2559C18.9375 24.2385 18.8542 24.2246 18.75 24.2246C18.6458 24.2246 18.5625 24.2107 18.5625 24.1934C18.5625 24.176 18.4792 24.1621 18.375 24.1621C18.2708 24.1621 18.1875 24.1482 18.1875 24.1309C18.1875 24.1135 18.1042 24.0996 18 24.0996C17.8958 24.0996 17.8125 24.0857 17.8125 24.0684C17.8125 24.051 17.7292 24.0371 17.625 24.0371C17.5208 24.0371 17.4375 24.0232 17.4375 24.0059C17.4375 23.9885 17.3542 23.9746 17.25 23.9746C17.1458 23.9746 17.0625 23.9607 17.0625 23.9434C17.0625 23.926 16.9792 23.9121 16.875 23.9121C16.7708 23.9121 16.6875 23.8982 16.6875 23.8809C16.6875 23.8635 16.6042 23.8496 16.5 23.8496C16.3958 23.8496 16.3125 23.8357 16.3125 23.8184C16.3125 23.801 16.2292 23.7871 16.125 23.7871C16.0208 23.7871 15.9375 23.7732 15.9375 23.7559C15.9375 23.7385 15.8542 23.7246 15.75 23.7246C15.6458 23.7246 15.5625 23.7107 15.5625 23.6934C15.5625 23.676 15.4792 23.6621 15.375 23.6621C15.2708 23.6621 15.1875 23.6482 15.1875 23.6309C15.1875 23.6135 15.1042 23.5996 15 23.5996C14.8958 23.5996 14.8125 23.5857 14.8125 23.5684C14.8125 23.551 14.7292 23.5371 14.625 23.5371C14.5208 23.5371 14.4375 23.5232 14.4375 23.5059C14.4375 23.4885 14.3542 23.4746 14.25 23.4746C14.1458 23.4746 14.0625 23.4607 14.0625 23.4434C14.0625 23.426 13.9792 23.4121 13.875 23.4121C13.7708 23.4121 13.6875 23.3982 13.6875 23.3809C13.6875 23.3635 13.6042 23.3496 13.5 23.3496C13.3958 23.3496 13.3125 23.3357 13.3125 23.3184C13.3125 23.301 13.2292 23.2871 13.125 23.2871C13.0208 23.2871 12.9375 23.2732 12.9375 23.2559C12.9375 23.2385 12.8542 23.2246 12.75 23.2246C12.6458 23.2246 12.5625 23.2107 12.5625 23.1934C12.5625 23.176 12.4792 23.1621 12.375 23.1621C12.2708 23.1621 12.1875 23.1482 12.1875 23.1309C12.1875 23.1135 12.1042 23.0996 12 23.0996C11.8958 23.0996 11.8125 23.0857 11.8125 23.0684C11.8125 23.051 11.7292 23.0371 11.625 23.0371C11.5208 23.0371 11.4375 23.0232 11.4375 23.0059C11.4375 22.9885 11.3542 22.9746 11.25 22.9746C11.1458 22.9746 11.0625 22.9607 11.0625 22.9434C11.0625 22.926 10.9792 22.9121 10.875 22.9121C10.7708 22.9121 10.6875 22.8982 10.6875 22.8809C10.6875 22.8635 10.6042 22.8496 10.5 22.8496C10.3958 22.8496 10.3125 22.8357 10.3125 22.8184C10.3125 22.801 10.2292 22.7871 10.125 22.7871C10.0208 22.7871 9.9375 22.7732 9.9375 22.7559C9.9375 22.7385 9.85416 22.7246 9.75 22.7246C9.64584 22.7246 9.5625 22.7107 9.5625 22.6934C9.5625 22.676 9.47916 22.6621 9.375 22.6621C9.27084 22.6621 9.1875 22.6482 9.1875 22.6309C9.1875 22.6135 9.10416 22.5996 9 22.5996C8.89584 22.5996 8.8125 22.5857 8.8125 22.5684C8.8125 22.551 8.72916 22.5371 8.625 22.5371C8.52084 22.5371 8.4375 22.5232 8.4375 22.5059C8.4375 22.4885 8.35416 22.4746 8.25 22.4746C8.14584 22.4746 8.0625 22.4607 8.0625 22.4434C8.0625 22.426 7.97916 22.4121 7.875 22.4121C7.77084 22.4121 7.6875 22.3982 7.6875 22.3809C7.6875 22.3635 7.60416 22.3496 7.5 22.3496C7.39584 22.3496 7.3125 22.3357 7.3125 22.3184C7.3125 22.301 7.22916 22.2871 7.125 22.2871C7.02084 22.2871 6.9375 22.2732 6.9375 22.2559C6.9375 22.2385 6.85416 22.2246 6.75 22.2246C6.64584 22.2246 6.5625 22.2107 6.5625 22.1934C6.5625 22.176 6.47916 22.1621 6.375 22.1621C6.27084 22.1621 6.1875 22.1482 6.1875 22.1309C6.1875 22.1137 6.11719 22.0996 6.03125 22.0996H5.875V19.0996V16.0996H6.09375C6.21875 16.0996 6.3125 16.0862 6.3125 16.0684C6.3125 16.051 6.39584 16.0371 6.5 16.0371C6.60416 16.0371 6.6875 16.0232 6.6875 16.0059C6.6875 15.9885 6.77084 15.9746 6.875 15.9746C6.97916 15.9746 7.0625 15.9607 7.0625 15.9434C7.0625 15.926 7.14584 15.9121 7.25 15.9121C7.35416 15.9121 7.4375 15.8982 7.4375 15.8809C7.4375 15.8635 7.52084 15.8496 7.625 15.8496C7.72916 15.8496 7.8125 15.8357 7.8125 15.8184C7.8125 15.801 7.89584 15.7871 8 15.7871C8.10416 15.7871 8.1875 15.7732 8.1875 15.7559C8.1875 15.7385 8.27084 15.7246 8.375 15.7246C8.47916 15.7246 8.5625 15.7107 8.5625 15.6934C8.5625 15.676 8.64584 15.6621 8.75 15.6621C8.85416 15.6621 8.9375 15.6482 8.9375 15.6309C8.9375 15.6135 9.02084 15.5996 9.125 15.5996C9.22916 15.5996 9.3125 15.5857 9.3125 15.5684C9.3125 15.551 9.39584 15.5371 9.5 15.5371C9.60416 15.5371 9.6875 15.5232 9.6875 15.5059C9.6875 15.4885 9.77084 15.4746 9.875 15.4746C9.97916 15.4746 10.0625 15.4607 10.0625 15.4434C10.0625 15.426 10.1458 15.4121 10.25 15.4121C10.3542 15.4121 10.4375 15.3982 10.4375 15.3809C10.4375 15.3635 10.5208 15.3496 10.625 15.3496C10.7292 15.3496 10.8125 15.3357 10.8125 15.3184C10.8125 15.301 10.8958 15.2871 11 15.2871C11.1042 15.2871 11.1875 15.2732 11.1875 15.2559C11.1875 15.2385 11.2708 15.2246 11.375 15.2246C11.4792 15.2246 11.5625 15.2107 11.5625 15.1934C11.5625 15.176 11.6458 15.1621 11.75 15.1621C11.8542 15.1621 11.9375 15.1482 11.9375 15.1309C11.9375 15.1135 12.0208 15.0996 12.125 15.0996C12.2292 15.0996 12.3125 15.0857 12.3125 15.0684C12.3125 15.051 12.3958 15.0371 12.5 15.0371C12.6042 15.0371 12.6875 15.0232 12.6875 15.0059C12.6875 14.9885 12.7708 14.9746 12.875 14.9746C12.9792 14.9746 13.0625 14.9607 13.0625 14.9434C13.0625 14.926 13.1458 14.9121 13.25 14.9121C13.3542 14.9121 13.4375 14.8982 13.4375 14.8809C13.4375 14.8635 13.5208 14.8496 13.625 14.8496C13.7292 14.8496 13.8125 14.8357 13.8125 14.8184C13.8125 14.801 13.8958 14.7871 14 14.7871C14.1042 14.7871 14.1875 14.7732 14.1875 14.7559C14.1875 14.7385 14.2708 14.7246 14.375 14.7246C14.4792 14.7246 14.5625 14.7107 14.5625 14.6934C14.5625 14.676 14.6458 14.6621 14.75 14.6621C14.8542 14.6621 14.9375 14.6482 14.9375 14.6309C14.9375 14.6135 15.0208 14.5996 15.125 14.5996C15.2292 14.5996 15.3125 14.5857 15.3125 14.5684C15.3125 14.551 15.3958 14.5371 15.5 14.5371C15.6042 14.5371 15.6875 14.5232 15.6875 14.5059C15.6875 14.4885 15.7708 14.4746 15.875 14.4746C15.9792 14.4746 16.0625 14.4607 16.0625 14.4434C16.0625 14.426 16.1458 14.4121 16.25 14.4121C16.3542 14.4121 16.4375 14.3982 16.4375 14.3809C16.4375 14.3635 16.5208 14.3496 16.625 14.3496C16.7292 14.3496 16.8125 14.3357 16.8125 14.3184C16.8125 14.3012 16.8828 14.2871 16.9688 14.2871C17.0547 14.2871 17.125 14.273 17.125 14.2559C17.125 14.238 17.2188 14.2246 17.3438 14.2246C17.4688 14.2246 17.5625 14.2112 17.5625 14.1934C17.5625 14.176 17.6458 14.1621 17.75 14.1621C17.8542 14.1621 17.9375 14.1482 17.9375 14.1309C17.9375 14.1135 18.0208 14.0996 18.125 14.0996C18.2292 14.0996 18.3125 14.0857 18.3125 14.0684C18.3125 14.051 18.3958 14.0371 18.5 14.0371C18.6042 14.0371 18.6875 14.0232 18.6875 14.0059C18.6875 13.9887 18.7578 13.9746 18.8438 13.9746C18.9297 13.9746 19 13.9605 19 13.9434C19 13.926 19.0833 13.9121 19.1875 13.9121C19.2917 13.9121 19.375 13.8982 19.375 13.8809C19.375 13.863 19.4688 13.8496 19.5938 13.8496C19.7188 13.8496 19.8125 13.8362 19.8125 13.8184C19.8125 13.8012 19.8828 13.7871 19.9688 13.7871C20.0547 13.7871 20.125 13.773 20.125 13.7559C20.125 13.738 20.2188 13.7246 20.3438 13.7246C20.4688 13.7246 20.5625 13.7112 20.5625 13.6934C20.5625 13.676 20.6458 13.6621 20.75 13.6621C20.8542 13.6621 20.9375 13.6482 20.9375 13.6309C20.9375 13.6135 21.0208 13.5996 21.125 13.5996C21.2292 13.5996 21.3125 13.5857 21.3125 13.5684C21.3125 13.551 21.3958 13.5371 21.5 13.5371C21.6042 13.5371 21.6875 13.5232 21.6875 13.5059C21.6875 13.4885 21.7708 13.4746 21.875 13.4746C21.9792 13.4746 22.0625 13.4607 22.0625 13.4434C22.0625 13.426 22.1458 13.4121 22.25 13.4121C22.3542 13.4121 22.4375 13.3982 22.4375 13.3809C22.4375 13.3635 22.5208 13.3496 22.625 13.3496H22.8125V19.1309ZM32.4375 13.7559C32.4375 13.773 32.3953 13.7871 32.3438 13.7871C32.2922 13.7871 32.25 13.8012 32.25 13.8184C32.25 13.8355 32.2288 13.8496 32.203 13.8496C32.1416 13.8496 30.5 15.4912 30.5 15.5526C30.5 15.5785 30.4859 15.5996 30.4688 15.5996C30.4516 15.5996 30.4375 15.6277 30.4375 15.6621C30.4375 15.6965 30.4234 15.7246 30.4062 15.7246C30.3877 15.7246 30.375 15.8392 30.375 16.0059C30.375 16.1725 30.3877 16.2871 30.4062 16.2871C30.4234 16.2871 30.4375 16.3152 30.4375 16.3496C30.4375 16.384 30.4516 16.4121 30.4688 16.4121C30.4859 16.4121 30.5 16.4335 30.5 16.4597C30.5 16.5215 30.8281 16.8496 30.8899 16.8496C30.9161 16.8496 30.9375 16.8637 30.9375 16.8809C30.9375 16.898 31.0066 16.9121 31.0912 16.9121C31.1835 16.9121 31.2521 16.9277 31.263 16.9512C31.2776 16.9824 31.2849 16.9824 31.2995 16.9512C31.3104 16.9277 31.379 16.9121 31.4713 16.9121C31.5559 16.9121 31.625 16.898 31.625 16.8809C31.625 16.8637 31.6531 16.8496 31.6875 16.8496C31.7219 16.8496 31.75 16.8355 31.75 16.8184C31.75 16.8012 31.7712 16.7871 31.797 16.7871C31.8585 16.7871 33.4375 15.2081 33.4375 15.1466C33.4375 15.1208 33.4516 15.0996 33.4688 15.0996C33.4859 15.0996 33.5 15.0574 33.5 15.0059C33.5 14.9543 33.5141 14.9121 33.5312 14.9121C33.5495 14.9121 33.5625 14.808 33.5625 14.6621C33.5625 14.5163 33.5495 14.4121 33.5312 14.4121C33.5141 14.4121 33.5 14.384 33.5 14.3496C33.5 14.3152 33.4859 14.2871 33.4688 14.2871C33.4516 14.2871 33.4375 14.2621 33.4375 14.2315C33.4375 14.2009 33.4094 14.1556 33.375 14.1309C33.3406 14.1061 33.3125 14.0608 33.3125 14.0302C33.3125 13.9977 33.2894 13.9746 33.2569 13.9746C33.2263 13.9746 33.181 13.9465 33.1562 13.9121C33.1315 13.8777 33.0862 13.8496 33.0556 13.8496C33.025 13.8496 33 13.8355 33 13.8184C33 13.8012 32.9578 13.7871 32.9062 13.7871C32.8547 13.7871 32.8125 13.773 32.8125 13.7559C32.8125 13.7385 32.7292 13.7246 32.625 13.7246C32.5208 13.7246 32.4375 13.7385 32.4375 13.7559ZM33 18.1934C33 18.2105 32.9578 18.2246 32.9062 18.2246C32.8547 18.2246 32.8125 18.2387 32.8125 18.2559C32.8125 18.273 32.7875 18.2871 32.7569 18.2871C32.7263 18.2871 32.681 18.3152 32.6562 18.3496C32.6315 18.384 32.5922 18.4121 32.569 18.4121C32.5146 18.4121 32.4375 18.4892 32.4375 18.5436C32.4375 18.5668 32.4094 18.6061 32.375 18.6309C32.3383 18.6573 32.3125 18.7118 32.3125 18.7628C32.3125 18.8105 32.2984 18.8496 32.2812 18.8496C32.263 18.8496 32.25 18.9538 32.25 19.0996C32.25 19.2455 32.263 19.3496 32.2812 19.3496C32.2984 19.3496 32.3125 19.3918 32.3125 19.4434C32.3125 19.4949 32.3266 19.5371 32.3438 19.5371C32.3609 19.5371 32.375 19.5586 32.375 19.5848C32.375 19.6468 32.6403 19.9121 32.7023 19.9121C32.7285 19.9121 32.75 19.9262 32.75 19.9434C32.75 19.9605 32.7922 19.9746 32.8438 19.9746C32.8953 19.9746 32.9375 19.9887 32.9375 20.0059C32.9375 20.0261 33.3542 20.0371 34.125 20.0371C34.8958 20.0371 35.3125 20.0261 35.3125 20.0059C35.3125 19.9887 35.3516 19.9746 35.3993 19.9746C35.4503 19.9746 35.5048 19.9488 35.5312 19.9121C35.556 19.8777 35.5949 19.8496 35.6177 19.8496C35.6713 19.8496 35.8125 19.7085 35.8125 19.6548C35.8125 19.632 35.8406 19.5931 35.875 19.5684C35.9117 19.5419 35.9375 19.4875 35.9375 19.4365C35.9375 19.3887 35.9516 19.3496 35.9688 19.3496C35.987 19.3496 36 19.2455 36 19.0996C36 18.9538 35.987 18.8496 35.9688 18.8496C35.9516 18.8496 35.9375 18.8215 35.9375 18.7871C35.9375 18.7527 35.9234 18.7246 35.9062 18.7246C35.8891 18.7246 35.875 18.6996 35.875 18.669C35.875 18.6384 35.8469 18.5931 35.8125 18.5684C35.7781 18.5436 35.75 18.4983 35.75 18.4677C35.75 18.4352 35.7269 18.4121 35.6944 18.4121C35.6638 18.4121 35.6185 18.384 35.5938 18.3496C35.569 18.3152 35.5237 18.2871 35.4931 18.2871C35.4625 18.2871 35.4375 18.273 35.4375 18.2559C35.4375 18.2387 35.3953 18.2246 35.3438 18.2246C35.2922 18.2246 35.25 18.2105 35.25 18.1934C35.25 18.1731 34.8542 18.1621 34.125 18.1621C33.3958 18.1621 33 18.1731 33 18.1934ZM31 21.3184C31 21.3355 30.9719 21.3496 30.9375 21.3496C30.9031 21.3496 30.875 21.3637 30.875 21.3809C30.875 21.398 30.8535 21.4121 30.8273 21.4121C30.8011 21.4121 30.7167 21.475 30.6398 21.5519C30.5629 21.6288 30.5 21.7132 30.5 21.7394C30.5 21.7656 30.4859 21.7871 30.4688 21.7871C30.4516 21.7871 30.4375 21.8152 30.4375 21.8496C30.4375 21.884 30.4234 21.9121 30.4062 21.9121C30.3877 21.9121 30.375 22.0267 30.375 22.1934C30.375 22.36 30.3877 22.4746 30.4062 22.4746C30.4234 22.4746 30.4375 22.5137 30.4375 22.5615C30.4375 22.6125 30.4633 22.6669 30.5 22.6934C30.5344 22.7181 30.5625 22.7565 30.5625 22.7785C30.5625 22.8354 32.0209 24.2871 32.078 24.2871C32.1038 24.2871 32.125 24.3012 32.125 24.3184C32.125 24.3355 32.1531 24.3496 32.1875 24.3496C32.2219 24.3496 32.25 24.3637 32.25 24.3809C32.25 24.398 32.2781 24.4121 32.3125 24.4121C32.3469 24.4121 32.375 24.4262 32.375 24.4434C32.375 24.4616 32.4792 24.4746 32.625 24.4746C32.7708 24.4746 32.875 24.4616 32.875 24.4434C32.875 24.4262 32.9141 24.4121 32.9618 24.4121C33.0128 24.4121 33.0673 24.3863 33.0938 24.3496C33.1185 24.3152 33.1574 24.2871 33.1802 24.2871C33.2338 24.2871 33.375 24.146 33.375 24.0923C33.375 24.0695 33.4031 24.0306 33.4375 24.0059C33.4742 23.9794 33.5 23.925 33.5 23.874C33.5 23.8262 33.5141 23.7871 33.5312 23.7871C33.5495 23.7871 33.5625 23.683 33.5625 23.5371C33.5625 23.3913 33.5495 23.2871 33.5312 23.2871C33.5141 23.2871 33.5 23.248 33.5 23.2003C33.5 23.1493 33.4742 23.0948 33.4375 23.0684C33.4031 23.0436 33.375 23.0052 33.375 22.9832C33.375 22.9611 33.0446 22.6126 32.6408 22.2088C32.237 21.805 31.8885 21.4746 31.8664 21.4746C31.8444 21.4746 31.806 21.4465 31.7812 21.4121C31.7548 21.3754 31.7003 21.3496 31.6493 21.3496C31.6016 21.3496 31.5625 21.3355 31.5625 21.3184C31.5625 21.2998 31.4479 21.2871 31.2812 21.2871C31.1146 21.2871 31 21.2998 31 21.3184ZM11.6875 24.9434C11.6875 24.9607 11.7708 24.9746 11.875 24.9746C11.9792 24.9746 12.0625 24.9885 12.0625 25.0059C12.0625 25.0232 12.1458 25.0371 12.25 25.0371C12.3542 25.0371 12.4375 25.051 12.4375 25.0684C12.4375 25.0857 12.5208 25.0996 12.625 25.0996C12.7292 25.0996 12.8125 25.1135 12.8125 25.1309C12.8125 25.1482 12.8958 25.1621 13 25.1621C13.1042 25.1621 13.1875 25.176 13.1875 25.1934C13.1875 25.2107 13.2708 25.2246 13.375 25.2246C13.4792 25.2246 13.5625 25.2385 13.5625 25.2559C13.5625 25.2732 13.6458 25.2871 13.75 25.2871C13.8542 25.2871 13.9375 25.301 13.9375 25.3184C13.9375 25.3357 14.0208 25.3496 14.125 25.3496C14.2292 25.3496 14.3125 25.3635 14.3125 25.3809C14.3125 25.3982 14.3958 25.4121 14.5 25.4121C14.6042 25.4121 14.6875 25.426 14.6875 25.4434C14.6875 25.4605 14.7578 25.4746 14.8438 25.4746C14.9297 25.4746 15 25.4887 15 25.5059C15 25.5237 15.0938 25.5371 15.2188 25.5371C15.3438 25.5371 15.4375 25.5505 15.4375 25.5684C15.4375 25.5857 15.5208 25.5996 15.625 25.5996C15.7292 25.5996 15.8125 25.6135 15.8125 25.6309C15.8125 25.6482 15.8958 25.6621 16 25.6621C16.1042 25.6621 16.1875 25.676 16.1875 25.6934C16.1875 25.7107 16.2708 25.7246 16.375 25.7246C16.4792 25.7246 16.5625 25.7385 16.5625 25.7559C16.5625 25.7732 16.6458 25.7871 16.75 25.7871C16.8542 25.7871 16.9375 25.801 16.9375 25.8184C16.9375 25.8357 17.0208 25.8496 17.125 25.8496C17.2292 25.8496 17.3125 25.8635 17.3125 25.8809C17.3125 25.8982 17.3958 25.9121 17.5 25.9121C17.6042 25.9121 17.6875 25.926 17.6875 25.9434C17.6875 25.9607 17.7708 25.9746 17.875 25.9746C17.9792 25.9746 18.0625 25.9885 18.0625 26.0059C18.0625 26.0232 18.1458 26.0371 18.25 26.0371C18.3542 26.0371 18.4375 26.051 18.4375 26.0684C18.4375 26.0857 18.5208 26.0996 18.625 26.0996C18.7292 26.0996 18.8125 26.1135 18.8125 26.1309C18.8125 26.148 18.8687 26.1621 18.9375 26.1621H19.0625V27.1309C19.0625 27.7559 19.0514 28.0996 19.0312 28.0996C19.0141 28.0996 19 28.1418 19 28.1934C19 28.2449 18.9859 28.2871 18.9688 28.2871C18.9516 28.2871 18.9375 28.3085 18.9375 28.3347C18.9375 28.3965 18.6094 28.7246 18.5476 28.7246C18.5214 28.7246 18.5 28.7387 18.5 28.7559C18.5 28.773 18.4719 28.7871 18.4375 28.7871C18.4031 28.7871 18.375 28.8012 18.375 28.8184C18.375 28.839 17.3333 28.8496 15.3125 28.8496C13.2917 28.8496 12.25 28.839 12.25 28.8184C12.25 28.8012 12.2078 28.7871 12.1562 28.7871C12.1047 28.7871 12.0625 28.773 12.0625 28.7559C12.0625 28.7387 12.041 28.7246 12.0148 28.7246C11.9528 28.7246 11.6875 28.4593 11.6875 28.3973C11.6875 28.3711 11.6734 28.3496 11.6562 28.3496C11.6391 28.3496 11.625 28.3215 11.625 28.2871C11.625 28.2527 11.6109 28.2246 11.5938 28.2246C11.5766 28.2246 11.5625 28.1684 11.5625 28.0996C11.5625 28.0309 11.5484 27.9746 11.5312 27.9746C11.5108 27.9746 11.5 27.4434 11.5 26.4434V24.9121H11.5938C11.6453 24.9121 11.6875 24.9262 11.6875 24.9434Z" fill="#FF6F00"/>
</svg>
