<svg width="40" height="40" viewBox="0 0 40 40" fill="none" xmlns="http://www.w3.org/2000/svg">
<path fill-rule="evenodd" clip-rule="evenodd" d="M30.0531 12.5557V20.9943C33.3976 21.4164 35.9992 24.4288 35.9992 28.071C35.9992 32.0012 32.97 35.1986 29.2467 35.1986C28.0219 35.1986 26.8722 34.8525 25.8808 34.2483H7.19922V4.7998H22.7054L30.0531 12.5557ZM27.115 11.9744L23.2 7.84188V11.9744H27.115ZM21.5119 6.58172H8.88735V32.4664H23.9345C23.0326 31.2546 22.4942 29.7279 22.4942 28.071C22.4942 24.4562 25.0567 21.4615 28.3649 21.0041V13.7563H21.5119V6.58172ZM24.1823 28.071C24.1823 31.0186 26.4542 33.4167 29.2467 33.4167C32.0392 33.4167 34.3111 31.0186 34.3111 28.071C34.3111 25.1233 32.0392 22.7252 29.2467 22.7252C26.4542 22.7252 24.1823 25.1233 24.1823 28.071ZM25.8332 16.4688H11.4091V18.2507H25.8332V16.4688ZM11.4091 12.9049H18.1616V14.6868H11.4091V12.9049ZM18.1616 23.5965H11.4091V25.3784H18.1616V23.5965ZM11.4091 20.0326H21.5378V21.8145H11.4091V20.0326ZM27.2314 26.6442L28.5033 28.0258L31.1602 25.5251L32.2837 26.8551L28.4197 30.492L26.0208 27.886L27.2314 26.6442Z" fill="#FF6F00"/>
</svg>
