<svg width="180" height="38" viewBox="0 0 180 38" fill="none" xmlns="http://www.w3.org/2000/svg">
<path fill-rule="evenodd" clip-rule="evenodd" d="M33.7541 34L40.0699 4H11.2453L4.9295 34H33.7541ZM35.4044 37.9998C35.4098 37.9997 35.4152 37.9996 35.4206 37.9995C35.4352 37.9998 35.45 38 35.4647 38H173.798C174.744 38 175.56 37.3375 175.755 36.412L179.545 18.412C179.806 17.1689 178.858 16 177.588 16H128.684L131.545 2.41202C131.806 1.16892 130.858 0 129.588 0H43.2542C43.1322 0 43.0124 0.01102 42.8957 0.0322043C42.779 0.0110711 42.6585 0 42.5348 0H9.6225C8.67673 0 7.86024 0.662491 7.6654 1.58798L0.507509 35.588C0.245805 36.8311 1.19426 38 2.46461 38H35.3769C35.3861 38 35.3953 37.9999 35.4044 37.9998Z" fill="#FF6F00"/>
<path d="M9.85742 28H13.9454L16.9974 23.044H26.4334L27.3854 28H31.0534L27.4134 10.388C27.0774 8.70802 26.3214 8.17603 24.6414 8.17603C22.8774 8.17603 22.0094 8.73602 20.9734 10.388L9.85742 28ZM23.4094 12.432C23.6054 12.124 23.8854 11.62 24.1374 11.62C24.3894 11.62 24.4734 12.124 24.5294 12.432L26.0134 20.412H18.4814L23.4094 12.432Z" fill="#FF6F00"/>
<path d="M51.9247 16C55.5997 16 56.8747 14.65 57.5797 11.35C57.7147 10.675 57.7597 10.03 57.7597 9.43C57.7597 7.105 56.8147 5.5 54.0097 5.5H49.8247L49.3747 7.6H52.3747C54.1597 7.6 54.9997 7.96 54.9997 9.205C54.9997 9.34 54.9847 9.505 54.9697 9.67H49.1197L48.6997 11.65H54.5797C54.0997 13.435 53.2747 13.9 51.0397 13.9H47.9047L47.4697 16H51.9247Z" fill="white"/>
<path d="M68.6039 16L65.0489 11.635C64.8389 11.365 64.7039 11.155 64.7039 10.9C64.7039 10.48 64.9589 10.255 65.2889 9.97L70.2989 5.5H67.0589L62.8139 9.295C62.2739 9.79 62.0939 10.495 62.0939 11.095C62.0939 11.41 62.1989 11.695 62.4239 11.995L65.4389 16H68.6039ZM57.7889 16H60.4889L62.7239 5.5H60.0239L57.7889 16Z" fill="white"/>
<path d="M77.0797 16L77.5297 13.9H74.3797C72.5347 13.9 71.7697 13.54 71.7697 12.205C71.7697 11.815 71.8447 11.335 71.9647 10.75C72.5047 8.2 73.3147 7.6 75.7147 7.6H78.7147L79.1647 5.5H74.8297C71.1547 5.5 69.9097 7.15 69.2197 10.45C69.0697 11.14 69.0097 11.785 69.0097 12.37C69.0097 14.59 70.1047 16 72.8947 16H77.0797Z" fill="white"/>
<path d="M80.9528 16L82.5878 8.305C82.7078 7.78 82.9178 7.6 83.4428 7.6H86.5628C86.9828 7.6 87.1628 7.72 87.1628 8.02C87.1628 8.095 87.1478 8.2 87.1178 8.305L85.4828 16H88.1828L90.0728 7.12C90.1028 6.97 90.1178 6.82 90.1178 6.685C90.1178 5.95 89.6528 5.5 88.8278 5.5H82.0778C80.9528 5.5 80.3828 5.995 80.1428 7.12L78.2528 16H80.9528Z" fill="white"/>
<path d="M100.88 5.5H93.6647C92.5397 5.5 91.9697 5.995 91.7297 7.12L90.1847 14.395C90.1547 14.545 90.1397 14.695 90.1397 14.83C90.1397 15.55 90.6047 16 91.4297 16H98.7047L99.1397 13.96H93.6797C93.2597 13.96 93.0947 13.855 93.0947 13.54C93.0947 13.465 93.1097 13.36 93.1247 13.255L93.4697 11.65H99.4397L99.8597 9.7H93.8897L94.1897 8.245C94.3097 7.72 94.5197 7.54 95.0447 7.54H100.445L100.88 5.5Z" fill="white"/>
<path d="M102.75 16L103.47 12.64H107.94C110.415 12.64 111.165 11.47 111.525 9.355C111.6 8.92 111.63 8.47 111.63 8.185C111.63 6.61 110.925 5.5 109.005 5.5H103.875C102.75 5.5 102.18 5.995 101.94 7.12L100.05 16H102.75ZM103.92 10.54L104.385 8.305C104.505 7.78 104.715 7.6 105.24 7.6H107.61C108.495 7.6 108.855 7.855 108.855 8.47C108.855 8.635 108.825 8.92 108.765 9.205C108.54 10.24 108.12 10.54 106.995 10.54H103.92Z" fill="white"/>
<path d="M117.104 16L118.889 7.6H122.789L123.239 5.5H112.739L112.289 7.6H116.189L114.404 16H117.104Z" fill="white"/>
<path d="M46.9549 32L47.6749 28.64H52.1449C54.6199 28.64 55.3699 27.47 55.7299 25.355C55.8049 24.92 55.8349 24.47 55.8349 24.185C55.8349 22.61 55.1299 21.5 53.2099 21.5H48.0799C46.9549 21.5 46.3849 21.995 46.1449 23.12L44.2549 32H46.9549ZM48.1249 26.54L48.5899 24.305C48.7099 23.78 48.9199 23.6 49.4449 23.6H51.8149C52.6999 23.6 53.0599 23.855 53.0599 24.47C53.0599 24.635 53.0299 24.92 52.9699 25.205C52.7449 26.24 52.3249 26.54 51.1999 26.54H48.1249Z" fill="white"/>
<path d="M66.5742 21.5H59.3592C58.2342 21.5 57.6642 21.995 57.4242 23.12L55.8792 30.395C55.8492 30.545 55.8342 30.695 55.8342 30.83C55.8342 31.55 56.2992 32 57.1242 32H64.3992L64.8342 29.96H59.3742C58.9542 29.96 58.7892 29.855 58.7892 29.54C58.7892 29.465 58.8042 29.36 58.8192 29.255L59.1642 27.65H65.1342L65.5542 25.7H59.5842L59.8842 24.245C60.0042 23.72 60.2142 23.54 60.7392 23.54H66.1392L66.5742 21.5Z" fill="white"/>
<path d="M76.5591 32L73.0041 27.635C72.7941 27.365 72.6591 27.155 72.6591 26.9C72.6591 26.48 72.9141 26.255 73.2441 25.97L78.2541 21.5H75.0141L70.7691 25.295C70.2291 25.79 70.0491 26.495 70.0491 27.095C70.0491 27.41 70.1541 27.695 70.3791 27.995L73.3941 32H76.5591ZM65.7441 32H68.4441L70.6791 21.5H67.9791L65.7441 32Z" fill="white"/>
<path d="M83.73 21.38C79.605 21.38 78.105 22.085 77.175 26.45C76.995 27.305 76.965 27.905 76.965 28.535C76.965 31.13 78.435 32.12 81.75 32.12C85.875 32.12 87.375 31.43 88.305 27.05C88.485 26.195 88.515 25.595 88.515 24.965C88.515 22.37 87.045 21.38 83.73 21.38ZM79.92 26.75C80.445 24.275 81.24 23.48 83.43 23.48C85.08 23.48 85.755 23.945 85.755 25.235C85.755 25.655 85.695 26.15 85.56 26.75C85.035 29.225 84.225 30.02 82.035 30.02C80.385 30.02 79.725 29.57 79.725 28.28C79.725 27.86 79.785 27.365 79.92 26.75Z" fill="white"/>
<path d="M100.927 24.755C101.047 24.545 101.152 24.395 101.227 24.395C101.287 24.395 101.332 24.455 101.332 24.575C101.332 24.62 101.332 24.665 101.317 24.725L99.6818 32H102.382L104.302 23C104.332 22.865 104.347 22.73 104.347 22.595C104.347 21.935 103.822 21.38 102.382 21.38C101.347 21.38 100.402 21.74 99.7268 22.925L96.2918 28.985C96.1868 29.18 96.0518 29.42 95.9318 29.42C95.8118 29.42 95.7518 29.18 95.7218 28.985L94.8218 22.925C94.6418 21.725 93.8768 21.38 92.8268 21.38C92.0318 21.38 90.7718 21.59 90.4718 23L88.5518 32H91.2518L92.7218 24.725C92.7368 24.65 92.7968 24.395 92.9468 24.395C93.0368 24.395 93.0668 24.575 93.0968 24.755L93.9668 30.785C94.0868 31.595 94.2518 32.12 95.4518 32.12C96.6368 32.12 97.0268 31.595 97.4918 30.785L100.927 24.755Z" fill="white"/>
<path d="M115.075 21.5H107.86C106.735 21.5 106.165 21.995 105.925 23.12L104.38 30.395C104.35 30.545 104.335 30.695 104.335 30.83C104.335 31.55 104.8 32 105.625 32H112.9L113.335 29.96H107.875C107.455 29.96 107.29 29.855 107.29 29.54C107.29 29.465 107.305 29.36 107.32 29.255L107.665 27.65H113.635L114.055 25.7H108.085L108.385 24.245C108.505 23.72 108.715 23.54 109.24 23.54H114.64L115.075 21.5Z" fill="white"/>
<path d="M126.485 21.5H123.785L122.93 25.52H118.325L119.18 21.5H116.48L114.245 32H116.945L117.875 27.62H122.48L121.55 32H124.25L126.485 21.5Z" fill="white"/>
<path d="M127.06 34.025L127.345 32.705C127.45 32.21 127.645 32 128.08 32H136.045C136.39 32 136.525 32.12 136.525 32.405C136.525 32.495 136.525 32.585 136.495 32.705L136.21 34.025H138.82L139.36 31.52C139.39 31.37 139.405 31.22 139.405 31.085C139.405 30.365 138.94 29.9 138.115 29.9H137.83L136.135 22.535C135.985 21.86 135.685 21.38 134.35 21.38C133.015 21.38 132.49 21.845 132.04 22.535L127.21 29.9H126.925C125.8 29.9 125.245 30.395 125.005 31.52L124.465 34.025H127.06ZM133.705 24.155C133.795 24.02 133.885 23.855 134.005 23.855C134.11 23.855 134.11 24.02 134.14 24.155L135.37 29.9H130.03L133.705 24.155Z" fill="white"/>
<path d="M142.86 32L150.675 21.5H147.585L143.76 27.065L142.155 21.5H139.305L141.975 29.345L139.935 32H142.86Z" fill="white"/>
<path d="M160.002 21.5H152.787C151.662 21.5 151.092 21.995 150.852 23.12L149.307 30.395C149.277 30.545 149.262 30.695 149.262 30.83C149.262 31.55 149.727 32 150.552 32H157.827L158.262 29.96H152.802C152.382 29.96 152.217 29.855 152.217 29.54C152.217 29.465 152.232 29.36 152.247 29.255L152.592 27.65H158.562L158.982 25.7H153.012L153.312 24.245C153.432 23.72 153.642 23.54 154.167 23.54H159.567L160.002 21.5Z" fill="white"/>
<path d="M165.093 32L166.878 23.6H170.778L171.228 21.5H160.728L160.278 23.6H164.178L162.393 32H165.093Z" fill="white"/>
</svg>
