<svg width="160" height="38" viewBox="0 0 160 38" fill="none" xmlns="http://www.w3.org/2000/svg">
<path fill-rule="evenodd" clip-rule="evenodd" d="M40.0699 4L33.7541 34H4.9295L11.2453 4H40.0699ZM35.4204 37.9995C35.406 37.9998 35.3915 38 35.3769 38H2.46461C1.19426 38 0.245805 36.8311 0.507509 35.588L7.6654 1.58798C7.86024 0.662491 8.67673 0 9.6225 0H42.5348C42.5495 0 42.5642 0.00015664 42.5788 0.000468223C42.5933 0.000156558 42.6078 0 42.6223 0H157.852C159.123 0 160.071 1.16893 159.809 2.41202L152.651 36.412C152.457 37.3375 151.64 38 150.694 38H35.4644C35.4497 38 35.4351 37.9998 35.4204 37.9995Z" fill="#FF6F00"/>
<path d="M22.5771 28C29.0171 28 30.8931 23.52 31.9011 18.48C32.1531 17.248 32.3211 15.988 32.3211 14.784C32.3211 11.34 30.8931 8.39999 25.9651 8.39999H18.6571C16.6971 8.39999 15.6611 9.09999 15.1851 11.34L12.2731 25.06C12.2171 25.368 12.1611 25.676 12.1611 25.928C12.1611 27.328 13.0851 28 14.4851 28H22.5771ZM24.3411 11.34C27.5331 11.34 28.5131 12.824 28.5131 15.092C28.5131 16.016 28.3451 17.052 28.0931 18.2C27.2811 22.12 25.9091 25.06 21.4291 25.06H17.3691C16.5011 25.06 16.1651 24.892 16.1651 24.304C16.1651 24.136 16.1931 23.912 16.2491 23.66L18.5731 12.74C18.8251 11.62 19.1611 11.34 20.2811 11.34H24.3411Z" fill="#FF6F00"/>
<path d="M50.4549 16L52.0899 8.30501C52.2099 7.78 52.4199 7.6 52.9449 7.6H56.0649C56.4849 7.6 56.6649 7.72 56.6649 8.02C56.6649 8.095 56.6499 8.2 56.6199 8.30501L54.9849 16H57.6849L59.5749 7.12C59.6049 6.97 59.6199 6.82 59.6199 6.685C59.6199 5.95 59.1549 5.5 58.3299 5.5H51.5799C50.4549 5.5 49.8849 5.995 49.6449 7.12L47.7549 16H50.4549Z" fill="white"/>
<path d="M62.0418 16L62.7618 12.64H67.2318C69.7068 12.64 70.4568 11.47 70.8168 9.355C70.8918 8.92 70.9218 8.47 70.9218 8.185C70.9218 6.61 70.2168 5.5 68.2968 5.5H63.1668C62.0418 5.5 61.4718 5.995 61.2318 7.12L59.3418 16H62.0418ZM63.2118 10.54L63.6768 8.30501C63.7968 7.78 64.0068 7.6 64.5318 7.6H66.9018C67.7868 7.6 68.1468 7.855 68.1468 8.47C68.1468 8.635 68.1168 8.92 68.0568 9.205C67.8318 10.24 67.4118 10.54 66.2868 10.54H63.2118Z" fill="white"/>
<path d="M78.0161 5.38C73.8911 5.38 72.3911 6.085 71.4611 10.45C71.2811 11.305 71.2511 11.905 71.2511 12.535C71.2511 15.13 72.7211 16.12 76.0361 16.12C80.1611 16.12 81.6611 15.43 82.5911 11.05C82.7711 10.195 82.8011 9.59501 82.8011 8.965C82.8011 6.37 81.3311 5.38 78.0161 5.38ZM74.2061 10.75C74.7311 8.275 75.5261 7.48 77.7161 7.48C79.3661 7.48 80.0411 7.945 80.0411 9.235C80.0411 9.655 79.9811 10.15 79.8461 10.75C79.3211 13.225 78.5111 14.02 76.3211 14.02C74.6711 14.02 74.0111 13.57 74.0111 12.28C74.0111 11.86 74.0711 11.365 74.2061 10.75Z" fill="white"/>
<path d="M86.4679 11.68H89.7829C90.3829 11.68 90.6829 11.875 90.6829 12.385C90.6829 12.505 90.6529 12.655 90.6229 12.82C90.4579 13.645 90.0379 13.96 89.2279 13.96H86.7229C86.2729 13.96 86.0929 13.87 86.0929 13.57C86.0929 13.48 86.1079 13.36 86.1379 13.21L86.4679 11.68ZM87.2029 8.215C87.3079 7.69 87.4879 7.54 88.0129 7.54H90.5629C91.1629 7.54 91.4329 7.75 91.4329 8.215C91.4329 8.335 91.4179 8.47 91.3879 8.62C91.2079 9.445 90.8479 9.73 90.1129 9.73H86.8729L87.2029 8.215ZM92.1229 10.675L92.1379 10.615C93.4729 10.42 93.9529 9.64 94.1179 8.56C94.1629 8.26 94.1779 7.945 94.1779 7.765C94.1779 6.205 93.3379 5.5 91.8529 5.5H86.6629C85.5379 5.5 84.9679 5.995 84.7279 7.12L83.1829 14.395C83.1529 14.545 83.1379 14.695 83.1379 14.83C83.1379 15.55 83.6029 16 84.4279 16H90.0679C92.3479 16 92.9629 15.025 93.3529 13.24C93.4129 12.94 93.4429 12.655 93.4429 12.4C93.4429 11.485 93.0229 10.825 92.1229 10.675Z" fill="white"/>
<path d="M105.172 5.5H97.9568C96.8318 5.5 96.2618 5.995 96.0218 7.12L94.4768 14.395C94.4468 14.545 94.4318 14.695 94.4318 14.83C94.4318 15.55 94.8968 16 95.7218 16H102.997L103.432 13.96H97.9718C97.5518 13.96 97.3868 13.855 97.3868 13.54C97.3868 13.465 97.4018 13.36 97.4168 13.255L97.7618 11.65H103.732L104.152 9.7H98.1818L98.4818 8.245C98.6018 7.72 98.8118 7.54 99.3368 7.54H104.737L105.172 5.5Z" fill="white"/>
<path d="M107.042 16L107.762 12.64H112.232C114.707 12.64 115.457 11.47 115.817 9.355C115.892 8.92 115.922 8.47 115.922 8.185C115.922 6.61 115.217 5.5 113.297 5.5H108.167C107.042 5.5 106.472 5.995 106.232 7.12L104.342 16H107.042ZM108.212 10.54L108.677 8.30501C108.797 7.78 109.007 7.6 109.532 7.6H111.902C112.787 7.6 113.147 7.855 113.147 8.47C113.147 8.635 113.117 8.92 113.057 9.205C112.832 10.24 112.412 10.54 111.287 10.54H108.212Z" fill="white"/>
<path d="M126.661 5.5H119.446C118.321 5.5 117.751 5.995 117.511 7.12L115.966 14.395C115.936 14.545 115.921 14.695 115.921 14.83C115.921 15.55 116.386 16 117.211 16H124.486L124.921 13.96H119.461C119.041 13.96 118.876 13.855 118.876 13.54C118.876 13.465 118.891 13.36 118.906 13.255L119.251 11.65H125.221L125.641 9.7H119.671L119.971 8.245C120.091 7.72 120.301 7.54 120.826 7.54H126.226L126.661 5.5Z" fill="white"/>
<path d="M138.071 5.5H135.371L134.516 9.52H129.911L130.766 5.5H128.066L125.831 16H128.531L129.461 11.62H134.066L133.136 16H135.836L138.071 5.5Z" fill="white"/>
<path d="M144.886 5.38C140.761 5.38 139.261 6.085 138.331 10.45C138.151 11.305 138.121 11.905 138.121 12.535C138.121 15.13 139.591 16.12 142.906 16.12C147.031 16.12 148.531 15.43 149.461 11.05C149.641 10.195 149.671 9.59501 149.671 8.965C149.671 6.37 148.201 5.38 144.886 5.38ZM141.076 10.75C141.601 8.275 142.396 7.48 144.586 7.48C146.236 7.48 146.911 7.945 146.911 9.235C146.911 9.655 146.851 10.15 146.716 10.75C146.191 13.225 145.381 14.02 143.191 14.02C141.541 14.02 140.881 13.57 140.881 12.28C140.881 11.86 140.941 11.365 141.076 10.75Z" fill="white"/>
<path d="M48.4247 32C52.0997 32 53.3747 30.65 54.0797 27.35C54.2147 26.675 54.2597 26.03 54.2597 25.43C54.2597 23.105 53.3147 21.5 50.5097 21.5H46.3247L45.8747 23.6H48.8747C50.6597 23.6 51.4997 23.96 51.4997 25.205C51.4997 25.34 51.4847 25.505 51.4697 25.67H45.6197L45.1997 27.65H51.0797C50.5997 29.435 49.7747 29.9 47.5397 29.9H44.4047L43.9697 32H48.4247Z" fill="white"/>
<path d="M65.1039 32L61.5489 27.635C61.3389 27.365 61.2039 27.155 61.2039 26.9C61.2039 26.48 61.4589 26.255 61.7889 25.97L66.7989 21.5H63.5589L59.3139 25.295C58.7739 25.79 58.5939 26.495 58.5939 27.095C58.5939 27.41 58.6989 27.695 58.9239 27.995L61.9389 32H65.1039ZM54.2889 32H56.9889L59.2239 21.5H56.5239L54.2889 32Z" fill="white"/>
<path d="M73.5797 32L74.0297 29.9H70.8797C69.0347 29.9 68.2697 29.54 68.2697 28.205C68.2697 27.815 68.3447 27.335 68.4647 26.75C69.0047 24.2 69.8147 23.6 72.2147 23.6H75.2147L75.6647 21.5H71.3297C67.6547 21.5 66.4097 23.15 65.7197 26.45C65.5697 27.14 65.5097 27.785 65.5097 28.37C65.5097 30.59 66.6047 32 69.3947 32H73.5797Z" fill="white"/>
<path d="M77.4528 32L79.0878 24.305C79.2078 23.78 79.4178 23.6 79.9428 23.6H83.0628C83.4828 23.6 83.6628 23.72 83.6628 24.02C83.6628 24.095 83.6478 24.2 83.6178 24.305L81.9828 32H84.6828L86.5728 23.12C86.6028 22.97 86.6178 22.82 86.6178 22.685C86.6178 21.95 86.1528 21.5 85.3278 21.5H78.5778C77.4528 21.5 76.8828 21.995 76.6428 23.12L74.7528 32H77.4528Z" fill="white"/>
<path d="M97.3797 21.5H90.1647C89.0397 21.5 88.4697 21.995 88.2297 23.12L86.6847 30.395C86.6547 30.545 86.6397 30.695 86.6397 30.83C86.6397 31.55 87.1047 32 87.9297 32H95.2047L95.6397 29.96H90.1797C89.7597 29.96 89.5947 29.855 89.5947 29.54C89.5947 29.465 89.6097 29.36 89.6247 29.255L89.9697 27.65H95.9397L96.3597 25.7H90.3897L90.6897 24.245C90.8097 23.72 91.0197 23.54 91.5447 23.54H96.9447L97.3797 21.5Z" fill="white"/>
<path d="M99.2496 32L99.9696 28.64H104.44C106.915 28.64 107.665 27.47 108.025 25.355C108.1 24.92 108.13 24.47 108.13 24.185C108.13 22.61 107.425 21.5 105.505 21.5H100.375C99.2496 21.5 98.6796 21.995 98.4396 23.12L96.5496 32H99.2496ZM100.42 26.54L100.885 24.305C101.005 23.78 101.215 23.6 101.74 23.6H104.11C104.995 23.6 105.355 23.855 105.355 24.47C105.355 24.635 105.325 24.92 105.265 25.205C105.04 26.24 104.62 26.54 103.495 26.54H100.42Z" fill="white"/>
<path d="M113.604 32L115.389 23.6H119.289L119.739 21.5H109.239L108.789 23.6H112.689L110.904 32H113.604Z" fill="white"/>
<path d="M125.727 21.38C121.602 21.38 120.102 22.085 119.172 26.45C118.992 27.305 118.962 27.905 118.962 28.535C118.962 31.13 120.432 32.12 123.747 32.12C127.872 32.12 129.372 31.43 130.302 27.05C130.482 26.195 130.512 25.595 130.512 24.965C130.512 22.37 129.042 21.38 125.727 21.38ZM121.917 26.75C122.442 24.275 123.237 23.48 125.427 23.48C127.077 23.48 127.752 23.945 127.752 25.235C127.752 25.655 127.692 26.15 127.557 26.75C127.032 29.225 126.222 30.02 124.032 30.02C122.382 30.02 121.722 29.57 121.722 28.28C121.722 27.86 121.782 27.365 121.917 26.75Z" fill="white"/>
<path d="M142.924 24.755C143.044 24.545 143.149 24.395 143.224 24.395C143.284 24.395 143.329 24.455 143.329 24.575C143.329 24.62 143.329 24.665 143.314 24.725L141.679 32H144.379L146.299 23C146.329 22.865 146.344 22.73 146.344 22.595C146.344 21.935 145.819 21.38 144.379 21.38C143.344 21.38 142.399 21.74 141.724 22.925L138.289 28.985C138.184 29.18 138.049 29.42 137.929 29.42C137.809 29.42 137.749 29.18 137.719 28.985L136.819 22.925C136.639 21.725 135.874 21.38 134.824 21.38C134.029 21.38 132.769 21.59 132.469 23L130.549 32H133.249L134.719 24.725C134.734 24.65 134.794 24.395 134.944 24.395C135.034 24.395 135.064 24.575 135.094 24.755L135.964 30.785C136.084 31.595 136.249 32.12 137.449 32.12C138.634 32.12 139.024 31.595 139.489 30.785L142.924 24.755Z" fill="white"/>
</svg>
