<svg width="180" height="38" viewBox="0 0 180 38" fill="none" xmlns="http://www.w3.org/2000/svg">
<path fill-rule="evenodd" clip-rule="evenodd" d="M33.7551 34L40.0709 4H11.2463L4.93048 34H33.7551ZM35.3779 38C35.3925 38 35.407 37.9998 35.4216 37.9995C35.4362 37.9998 35.4509 38 35.4657 38H173.799C174.745 38 175.561 37.3375 175.756 36.412L179.546 18.412C179.807 17.1689 178.859 16 177.589 16H128.685L131.546 2.41202C131.807 1.16892 130.859 0 129.589 0H43.2552C43.1332 0 43.0133 0.01102 42.8967 0.0322043C42.78 0.0110711 42.6594 0 42.5358 0H9.62348C8.67771 0 7.86122 0.662491 7.66638 1.58798L0.508485 35.588C0.246782 36.8311 1.19524 38 2.46559 38H35.3779Z" fill="#FF6F00"/>
<path d="M17.3505 19.572H24.8545C26.1705 19.572 26.8145 20.104 26.8145 21.28C26.8145 21.588 26.7585 21.952 26.6745 22.372C26.2545 24.332 25.3865 25.06 23.4545 25.06H17.6025C16.7345 25.06 16.3985 24.892 16.3985 24.304C16.3985 24.136 16.4265 23.912 16.4825 23.66L17.3505 19.572ZM18.8065 12.74C19.0305 11.62 19.3945 11.34 20.5145 11.34H26.5345C27.8225 11.34 28.3545 11.872 28.3545 12.852C28.3545 13.16 28.2705 13.664 28.1865 14.056C27.7665 16.016 27.0945 16.632 25.4425 16.632H17.9945L18.8065 12.74ZM28.3265 18.088V17.976C30.8185 17.668 31.6305 16.184 31.9945 14.056C32.1065 13.384 32.1065 12.768 32.1065 12.208C32.1065 9.80002 30.9305 8.40002 28.6345 8.40002H18.8905C16.9305 8.40002 15.8945 9.10003 15.4185 11.34L12.5065 25.06C12.4505 25.368 12.3945 25.676 12.3945 25.928C12.3945 27.328 13.3185 28 14.7185 28H24.7425C28.7745 28 29.8105 25.9 30.4545 22.904C30.5665 22.344 30.6225 21.812 30.6225 21.308C30.6225 19.544 29.8665 18.228 28.3265 18.088Z" fill="#FF6F00"/>
<path d="M51.9257 16C55.6007 16 56.8757 14.65 57.5807 11.35C57.7157 10.675 57.7607 10.03 57.7607 9.43C57.7607 7.105 56.8157 5.5 54.0107 5.5H49.8257L49.3757 7.6H52.3757C54.1607 7.6 55.0007 7.96 55.0007 9.205C55.0007 9.34 54.9857 9.505 54.9707 9.67H49.1207L48.7007 11.65H54.5807C54.1007 13.435 53.2757 13.9 51.0407 13.9H47.9057L47.4707 16H51.9257Z" fill="white"/>
<path d="M68.6049 16L65.0499 11.635C64.8399 11.365 64.7049 11.155 64.7049 10.9C64.7049 10.48 64.9599 10.255 65.2899 9.97L70.2999 5.5H67.0599L62.8149 9.295C62.2749 9.79 62.0949 10.495 62.0949 11.095C62.0949 11.41 62.1999 11.695 62.4249 11.995L65.4399 16H68.6049ZM57.7899 16H60.4899L62.7249 5.5H60.0249L57.7899 16Z" fill="white"/>
<path d="M77.0807 16L77.5307 13.9H74.3807C72.5357 13.9 71.7707 13.54 71.7707 12.205C71.7707 11.815 71.8457 11.335 71.9657 10.75C72.5057 8.2 73.3157 7.6 75.7157 7.6H78.7157L79.1657 5.5H74.8307C71.1557 5.5 69.9107 7.15 69.2207 10.45C69.0707 11.14 69.0107 11.785 69.0107 12.37C69.0107 14.59 70.1057 16 72.8957 16H77.0807Z" fill="white"/>
<path d="M80.9538 16L82.5887 8.305C82.7087 7.78 82.9187 7.6 83.4437 7.6H86.5638C86.9837 7.6 87.1637 7.72 87.1637 8.02C87.1637 8.095 87.1487 8.2 87.1187 8.305L85.4837 16H88.1838L90.0737 7.12C90.1037 6.97 90.1187 6.82 90.1187 6.685C90.1187 5.95 89.6538 5.5 88.8288 5.5H82.0788C80.9538 5.5 80.3838 5.995 80.1437 7.12L78.2537 16H80.9538Z" fill="white"/>
<path d="M100.881 5.5H93.6657C92.5407 5.5 91.9707 5.995 91.7307 7.12L90.1857 14.395C90.1557 14.545 90.1407 14.695 90.1407 14.83C90.1407 15.55 90.6057 16 91.4307 16H98.7057L99.1407 13.96H93.6807C93.2607 13.96 93.0957 13.855 93.0957 13.54C93.0957 13.465 93.1107 13.36 93.1257 13.255L93.4707 11.65H99.4407L99.8607 9.7H93.8907L94.1907 8.245C94.3107 7.72 94.5207 7.54 95.0457 7.54H100.446L100.881 5.5Z" fill="white"/>
<path d="M102.751 16L103.471 12.64H107.941C110.416 12.64 111.166 11.47 111.526 9.355C111.601 8.92 111.631 8.47 111.631 8.185C111.631 6.61 110.926 5.5 109.006 5.5H103.876C102.751 5.5 102.181 5.995 101.941 7.12L100.051 16H102.751ZM103.921 10.54L104.386 8.305C104.506 7.78 104.716 7.6 105.241 7.6H107.611C108.496 7.6 108.856 7.855 108.856 8.47C108.856 8.635 108.826 8.92 108.766 9.205C108.541 10.24 108.121 10.54 106.996 10.54H103.921Z" fill="white"/>
<path d="M117.105 16L118.89 7.6H122.79L123.24 5.5H112.74L112.29 7.6H116.19L114.405 16H117.105Z" fill="white"/>
<path d="M46.9559 32L47.6759 28.64H52.1459C54.6209 28.64 55.3709 27.47 55.7309 25.355C55.8059 24.92 55.8359 24.47 55.8359 24.185C55.8359 22.61 55.1309 21.5 53.2109 21.5H48.0809C46.9559 21.5 46.3859 21.995 46.1459 23.12L44.2559 32H46.9559ZM48.1259 26.54L48.5909 24.305C48.7109 23.78 48.9209 23.6 49.4459 23.6H51.8159C52.7009 23.6 53.0609 23.855 53.0609 24.47C53.0609 24.635 53.0309 24.92 52.9709 25.205C52.7459 26.24 52.3259 26.54 51.2009 26.54H48.1259Z" fill="white"/>
<path d="M66.5752 21.5H59.3602C58.2352 21.5 57.6652 21.995 57.4252 23.12L55.8802 30.395C55.8502 30.545 55.8352 30.695 55.8352 30.83C55.8352 31.55 56.3002 32 57.1252 32H64.4002L64.8352 29.96H59.3752C58.9552 29.96 58.7902 29.855 58.7902 29.54C58.7902 29.465 58.8052 29.36 58.8202 29.255L59.1652 27.65H65.1352L65.5552 25.7H59.5852L59.8852 24.245C60.0052 23.72 60.2152 23.54 60.7402 23.54H66.1402L66.5752 21.5Z" fill="white"/>
<path d="M76.5601 32L73.0051 27.635C72.7951 27.365 72.6601 27.155 72.6601 26.9C72.6601 26.48 72.9151 26.255 73.2451 25.97L78.2551 21.5H75.0151L70.7701 25.295C70.2301 25.79 70.0501 26.495 70.0501 27.095C70.0501 27.41 70.1551 27.695 70.3801 27.995L73.3951 32H76.5601ZM65.7451 32H68.4451L70.6801 21.5H67.9801L65.7451 32Z" fill="white"/>
<path d="M83.7309 21.38C79.6059 21.38 78.1059 22.085 77.1759 26.45C76.9959 27.305 76.9659 27.905 76.9659 28.535C76.9659 31.13 78.4359 32.12 81.7509 32.12C85.8759 32.12 87.3759 31.43 88.3059 27.05C88.4859 26.195 88.5159 25.595 88.5159 24.965C88.5159 22.37 87.0459 21.38 83.7309 21.38ZM79.9209 26.75C80.4459 24.275 81.2409 23.48 83.4309 23.48C85.0809 23.48 85.7559 23.945 85.7559 25.235C85.7559 25.655 85.6959 26.15 85.5609 26.75C85.0359 29.225 84.2259 30.02 82.0359 30.02C80.3859 30.02 79.7259 29.57 79.7259 28.28C79.7259 27.86 79.7859 27.365 79.9209 26.75Z" fill="white"/>
<path d="M100.928 24.755C101.048 24.545 101.153 24.395 101.228 24.395C101.288 24.395 101.333 24.455 101.333 24.575C101.333 24.62 101.333 24.665 101.318 24.725L99.6827 32H102.383L104.303 23C104.333 22.865 104.348 22.73 104.348 22.595C104.348 21.935 103.823 21.38 102.383 21.38C101.348 21.38 100.403 21.74 99.7277 22.925L96.2927 28.985C96.1877 29.18 96.0527 29.42 95.9327 29.42C95.8127 29.42 95.7527 29.18 95.7227 28.985L94.8227 22.925C94.6427 21.725 93.8777 21.38 92.8277 21.38C92.0327 21.38 90.7727 21.59 90.4727 23L88.5527 32H91.2527L92.7227 24.725C92.7377 24.65 92.7977 24.395 92.9477 24.395C93.0377 24.395 93.0677 24.575 93.0977 24.755L93.9677 30.785C94.0877 31.595 94.2527 32.12 95.4527 32.12C96.6377 32.12 97.0277 31.595 97.4927 30.785L100.928 24.755Z" fill="white"/>
<path d="M115.076 21.5H107.861C106.736 21.5 106.166 21.995 105.926 23.12L104.381 30.395C104.351 30.545 104.336 30.695 104.336 30.83C104.336 31.55 104.801 32 105.626 32H112.901L113.336 29.96H107.876C107.456 29.96 107.291 29.855 107.291 29.54C107.291 29.465 107.306 29.36 107.321 29.255L107.666 27.65H113.636L114.056 25.7H108.086L108.386 24.245C108.506 23.72 108.716 23.54 109.241 23.54H114.641L115.076 21.5Z" fill="white"/>
<path d="M126.486 21.5H123.786L122.931 25.52H118.326L119.181 21.5H116.481L114.246 32H116.946L117.876 27.62H122.481L121.551 32H124.251L126.486 21.5Z" fill="white"/>
<path d="M127.061 34.025L127.346 32.705C127.451 32.21 127.646 32 128.081 32H136.046C136.391 32 136.526 32.12 136.526 32.405C136.526 32.495 136.526 32.585 136.496 32.705L136.211 34.025H138.821L139.361 31.52C139.391 31.37 139.406 31.22 139.406 31.085C139.406 30.365 138.941 29.9 138.116 29.9H137.831L136.136 22.535C135.986 21.86 135.686 21.38 134.351 21.38C133.016 21.38 132.491 21.845 132.041 22.535L127.211 29.9H126.926C125.801 29.9 125.246 30.395 125.006 31.52L124.466 34.025H127.061ZM133.706 24.155C133.796 24.02 133.886 23.855 134.006 23.855C134.111 23.855 134.111 24.02 134.141 24.155L135.371 29.9H130.031L133.706 24.155Z" fill="white"/>
<path d="M142.861 32L150.676 21.5H147.586L143.761 27.065L142.156 21.5H139.306L141.976 29.345L139.936 32H142.861Z" fill="white"/>
<path d="M160.003 21.5H152.788C151.663 21.5 151.093 21.995 150.853 23.12L149.308 30.395C149.278 30.545 149.263 30.695 149.263 30.83C149.263 31.55 149.728 32 150.553 32H157.828L158.263 29.96H152.803C152.383 29.96 152.218 29.855 152.218 29.54C152.218 29.465 152.233 29.36 152.248 29.255L152.593 27.65H158.563L158.983 25.7H153.013L153.313 24.245C153.433 23.72 153.643 23.54 154.168 23.54H159.568L160.003 21.5Z" fill="white"/>
<path d="M165.094 32L166.879 23.6H170.779L171.229 21.5H160.729L160.279 23.6H164.179L162.394 32H165.094Z" fill="white"/>
</svg>
