<svg width="88" height="26" viewBox="0 0 88 26" fill="none" xmlns="http://www.w3.org/2000/svg">
<path d="M0.00446478 19.5527C0.0194827 19.5543 0.0340947 19.556 0.0491126 19.558C0.110402 19.6237 0.113243 19.7074 0.106749 19.7869C0.0864544 20.0455 0.16885 20.3114 0.0491126 20.5622C0.0340947 20.5638 0.0194827 20.5655 0.00446478 20.5675C0.00446478 20.229 0.00446478 19.8908 0.00446478 19.5527ZM15.5667 24.185C15.5646 24.6087 15.5671 25.0325 15.5654 25.4563C15.5642 25.7258 15.5525 25.7298 15.2777 25.74C15.0995 25.7465 14.914 25.6953 14.7439 25.7915C14.7415 25.8086 14.7391 25.8252 14.7366 25.8423C15.0479 25.8423 15.3589 25.8423 15.6702 25.8423C15.6722 25.2399 15.6746 24.6371 15.675 24.0348C15.675 23.9852 15.6953 23.9244 15.6276 23.8959C15.5545 23.9812 15.5671 24.0851 15.5667 24.185ZM87.5 19.556C87.5 19.8921 87.5 20.2277 87.5 20.5638C87.4257 20.565 87.3514 20.5671 87.2768 20.5671C65.0251 20.5671 42.7738 20.5671 20.5222 20.5671C20.2559 20.5671 20.2559 20.5671 20.2559 20.3032C20.2559 20.0938 20.2608 19.8839 20.2539 19.6745C20.2506 19.575 20.2843 19.5401 20.3801 19.5519C20.4268 19.5576 20.4747 19.5527 20.5222 19.5527C42.7738 19.5527 65.0251 19.5527 87.2768 19.5527C87.3514 19.5527 87.4257 19.5547 87.5 19.556ZM0.0491126 20.5622C0.0491126 20.2273 0.0491126 19.8929 0.0491126 19.558C0.907569 19.5564 1.76602 19.5531 2.62448 19.5527C5.09188 19.5519 7.55928 19.5543 10.0267 19.5482C10.1935 19.5478 10.2483 19.584 10.2357 19.7557C10.2191 19.9842 10.2268 20.2152 10.2337 20.4449C10.2365 20.5439 10.2037 20.5813 10.1075 20.5671C10.0876 20.5642 10.0669 20.5667 10.0466 20.5667C6.7544 20.5667 3.46224 20.5667 0.170068 20.5663C0.129885 20.5667 0.0897015 20.5638 0.0491126 20.5622ZM17.256 23.43C17.3063 23.4377 17.3169 23.4791 17.3359 23.5124C17.6168 24.0035 17.8961 24.4951 18.1798 24.9842C18.2224 25.0577 18.22 25.0966 18.1404 25.1392C17.9208 25.2574 17.6939 25.4964 17.4922 25.4753C17.2787 25.453 17.2227 25.1003 17.0961 24.8941C16.913 24.5961 16.7498 24.2856 16.5704 23.9848C16.5128 23.8882 16.5181 23.8363 16.6224 23.7827C16.8079 23.6873 16.9873 23.5797 17.1691 23.4775C17.1983 23.4612 17.228 23.4454 17.256 23.43ZM12.9389 25.5086C12.8038 25.4315 12.6694 25.3548 12.5347 25.2781C12.1905 25.0824 12.1905 25.0824 12.3894 24.7346C12.6167 24.3376 12.8488 23.9434 13.0676 23.542C13.1301 23.4275 13.178 23.4206 13.2807 23.486C13.4512 23.5944 13.629 23.691 13.8071 23.7864C13.8903 23.831 13.9248 23.8655 13.8656 23.9662C13.5823 24.448 13.3091 24.9355 13.0307 25.4201C13.01 25.4571 13.0039 25.5159 12.9389 25.5086ZM15.6276 23.8959C15.6316 24.4898 15.6332 25.0832 15.6405 25.6771C15.6418 25.7741 15.6093 25.8066 15.5127 25.8037C15.2566 25.7956 15.0005 25.7948 14.7439 25.7915C14.7439 25.2111 14.7468 24.6306 14.7399 24.0502C14.7382 23.9248 14.7723 23.887 14.8978 23.8923C15.1409 23.9016 15.3844 23.8955 15.6276 23.8959ZM18.9388 4.97121C18.9392 4.89733 18.9185 4.86161 18.8381 4.85633C18.5934 4.84132 18.3734 4.87541 18.1883 5.06497C18.0142 5.24317 17.8125 5.39457 17.6318 5.56668C17.5478 5.64664 17.4821 5.63974 17.3826 5.59509C15.8881 4.92331 14.3904 4.92209 12.8955 5.59428C12.7969 5.63852 12.7295 5.64867 12.6455 5.56911C12.4738 5.40675 12.2802 5.2663 12.1182 5.09542C11.9331 4.90058 11.7176 4.83685 11.4607 4.85471C11.369 4.86121 11.332 4.88637 11.3328 4.98541C11.3373 5.4993 11.3381 6.01318 11.3324 6.52706C11.3312 6.64396 11.3828 6.65857 11.4785 6.65655C11.7018 6.65208 11.925 6.65492 12.1479 6.65492C12.4308 6.65492 12.4308 6.65492 12.4308 6.92769C12.4287 9.28035 12.4263 11.6334 12.4243 13.9861C12.4239 14.3173 12.4856 14.4046 12.8001 14.5267C13.2588 14.7049 13.7158 14.8884 14.1777 15.0585C14.3149 15.1088 14.3583 15.1802 14.3547 15.3243C14.3445 15.7432 14.3449 16.163 14.3543 16.5819C14.3575 16.7341 14.321 16.8023 14.1586 16.8404C13.4759 16.9999 12.7924 17.1599 12.132 17.401C11.6685 17.5698 11.5816 17.6863 11.5792 18.1726C11.5743 19.2272 11.5747 20.2821 11.5715 21.3367C11.5711 21.5226 11.6381 21.6643 11.8146 21.7434C11.9068 21.7848 11.9973 21.8303 12.0894 21.8721C13.1675 22.36 14.3088 22.4688 15.4741 22.4404C16.5059 22.4156 17.4967 22.2203 18.429 21.7613C18.6165 21.6691 18.707 21.5352 18.7066 21.333C18.7034 20.2919 18.6997 19.2511 18.6949 18.21C18.6924 17.6746 18.621 17.578 18.1213 17.3949C17.4614 17.153 16.777 16.9983 16.0955 16.8347C15.9608 16.8023 15.9133 16.7499 15.9169 16.6058C15.9283 16.1735 15.9299 15.74 15.9161 15.3081C15.9113 15.1612 15.9705 15.1096 16.0907 15.0646C16.5574 14.8884 17.0214 14.7049 17.4865 14.5239C17.7909 14.405 17.8555 14.3096 17.8555 13.9763C17.8559 12.8 17.8555 11.6241 17.8555 10.4477C17.8514 10.4477 17.847 10.4477 17.8429 10.4477C17.8429 9.24422 17.8449 8.0407 17.8401 6.83717C17.8396 6.70119 17.8693 6.64559 18.0174 6.65208C18.2804 6.66385 18.5447 6.65249 18.8085 6.65695C18.901 6.65857 18.9408 6.63422 18.9404 6.53315C18.9356 6.01237 18.9368 5.49199 18.9388 4.97121ZM16.9329 18.473C17.09 18.5201 17.1707 18.6183 17.1651 18.7839C17.1452 19.3648 17.1468 19.946 17.1642 20.5269C17.1691 20.6897 17.0932 20.7802 16.9276 20.8281C15.7343 21.1747 14.5438 21.1747 13.3505 20.8293C13.1882 20.7822 13.1102 20.6982 13.1123 20.5297C13.1155 20.2322 13.1131 19.9347 13.1131 19.6375C13.1131 19.3534 13.1175 19.0697 13.1114 18.7855C13.1078 18.6167 13.1849 18.5197 13.3404 18.473C14.5381 18.1142 15.7351 18.1134 16.9329 18.473ZM16.3054 13.199C16.3058 13.3845 16.2469 13.5022 16.0566 13.559C15.4433 13.7425 14.8344 13.7429 14.2207 13.5599C14.0312 13.5034 13.9658 13.3882 13.9667 13.2018C13.9695 12.1603 13.9679 11.1191 13.9679 10.0776H13.9658C13.9658 9.04289 13.9662 8.00822 13.9654 6.97356C13.965 6.71581 14.0219 6.63787 14.267 6.56643C14.8535 6.39555 15.4396 6.39839 16.0253 6.57049C16.2478 6.63584 16.3163 6.73489 16.3131 6.97113C16.2835 9.04735 16.2997 11.1232 16.3054 13.199ZM38.6411 0.845944C38.154 0.845944 37.6669 0.845944 37.1799 0.845944C37.1823 0.92672 37.1864 1.0079 37.1864 1.08868C37.1868 6.55831 37.1868 12.0275 37.1868 17.4972C37.1868 17.5512 37.1892 17.6056 37.1864 17.6595C37.1799 17.7805 37.231 17.8203 37.3548 17.8174C37.7128 17.8093 38.072 17.802 38.4296 17.8195C38.6147 17.8284 38.6451 17.77 38.6451 17.5983C38.6403 12.1424 38.6411 6.68618 38.6411 1.23034C38.6411 1.10207 38.6411 0.973806 38.6411 0.845944ZM77.673 6.53802C78.0339 6.61149 78.0895 6.68618 78.0891 7.06124C78.0874 8.19738 78.0834 9.33311 78.083 10.4693C78.0821 12.8564 78.0842 15.2436 78.0789 17.6307C78.0785 17.7825 78.1146 17.8235 78.2668 17.8183C78.6317 17.8061 78.9974 17.8053 79.3623 17.8187C79.5227 17.8248 79.547 17.7687 79.547 17.6242C79.5429 13.79 79.5425 9.95578 79.547 6.12115C79.5474 5.8776 79.4496 5.72823 79.2345 5.63284C77.5951 4.90667 75.9533 4.91235 74.3062 5.60564C74.0508 5.71321 73.9449 5.88653 73.9461 6.17026C73.9547 8.07033 73.9506 9.9704 73.9506 11.8709C73.953 11.8709 73.9551 11.8709 73.9575 11.8709C73.9575 13.7912 73.9595 15.712 73.9534 17.6324C73.953 17.7955 73.9989 17.8369 74.156 17.8312C74.4937 17.8195 74.833 17.8142 75.1699 17.8329C75.372 17.8442 75.4094 17.7781 75.409 17.5873C75.4029 14.0234 75.4061 10.4595 75.4 6.89603C75.3996 6.71337 75.4577 6.64721 75.6294 6.59566C76.3076 6.39352 76.9879 6.39879 77.673 6.53802ZM71.4142 17.5698C71.6902 17.455 71.7986 17.2695 71.7953 16.9752C71.7827 15.8804 71.7803 14.7853 71.7795 13.6902C71.7775 10.9791 71.7783 8.2676 71.7807 5.55653C71.7807 5.42055 71.7803 5.3349 71.5952 5.34464C71.2445 5.36332 70.8914 5.36332 70.5407 5.34464C70.3516 5.3345 70.3272 5.40066 70.3276 5.56789C70.3325 9.14437 70.3301 12.7212 70.3349 16.2977C70.3349 16.4512 70.2935 16.5153 70.1425 16.5616C69.4598 16.7698 68.7743 16.7734 68.0814 16.631C67.6922 16.551 67.6528 16.508 67.6528 16.1106C67.6528 12.5881 67.652 9.06562 67.6561 5.54273C67.6561 5.39132 67.6297 5.33125 67.4613 5.33855C67.1171 5.35317 66.7712 5.35236 66.427 5.33896C66.2513 5.33206 66.1928 5.36981 66.1941 5.56262C66.2026 7.47608 66.1993 9.38954 66.1993 11.303C66.1993 13.1962 66.2046 15.0893 66.1941 16.9825C66.1924 17.2849 66.3049 17.4574 66.5772 17.5715C68.1902 18.2477 69.8 18.242 71.4142 17.5698ZM28.0616 16.7304C27.363 16.7564 26.6746 16.6342 25.9814 16.5831C25.7155 16.5632 25.6542 16.4921 25.6542 16.2263C25.6538 13.0951 25.6546 9.9643 25.651 6.83312C25.651 6.70241 25.6822 6.66466 25.8162 6.66588C26.4924 6.67319 27.169 6.6606 27.8452 6.6744C28.0405 6.67846 28.0802 6.61474 28.0725 6.43695C28.0587 6.12643 28.0608 5.81469 28.0721 5.50417C28.0774 5.35439 28.038 5.31014 27.8826 5.31258C27.1995 5.32191 26.5163 5.31217 25.8332 5.32029C25.6867 5.32191 25.6396 5.29269 25.6425 5.1356C25.6534 4.54744 25.6421 3.95887 25.6502 3.3707C25.6522 3.22458 25.6238 3.16978 25.4643 3.17546C25.0994 3.18804 24.7337 3.18601 24.3688 3.17627C24.2292 3.17262 24.1869 3.20834 24.189 3.35284C24.1975 3.9613 24.1886 4.57017 24.1955 5.17863C24.1971 5.31014 24.1642 5.35317 24.0286 5.34708C23.7721 5.33612 23.5148 5.34708 23.2579 5.34221C23.1665 5.34058 23.1264 5.35845 23.128 5.46236C23.1341 5.82727 23.1333 6.19259 23.1284 6.55791C23.1272 6.65452 23.156 6.68739 23.2546 6.68496C23.5046 6.67887 23.7555 6.69348 24.0051 6.67928C24.1658 6.66994 24.2032 6.71987 24.2024 6.87777C24.1963 8.56838 24.1987 10.259 24.1987 11.9496C24.1987 12.6125 24.1995 13.2749 24.1987 13.9378C24.1971 14.9655 24.1963 15.9933 24.1906 17.021C24.1894 17.2423 24.2458 17.414 24.4629 17.5159C25.5471 18.0253 26.6966 18.1125 27.8684 18.0391C28.1204 18.0232 28.1971 17.9177 28.202 17.6539C28.2069 17.3973 28.1988 17.14 28.2057 16.8834C28.2093 16.7722 28.1817 16.726 28.0616 16.7304ZM54.3815 6.61717C54.6319 6.56156 54.8819 6.5092 55.138 6.4816C55.7651 6.41381 56.3939 6.45359 57.0218 6.44263C57.1825 6.43979 57.2511 6.40894 57.2401 6.23075C57.2239 5.96122 57.219 5.68886 57.2414 5.42014C57.2584 5.21759 57.161 5.17538 56.9994 5.16888C56.7295 5.15752 56.46 5.14697 56.1905 5.13195C55.1388 5.07228 54.1176 5.19933 53.1342 5.59874C52.8504 5.71402 52.738 5.89222 52.7396 6.1999C52.7494 8.09265 52.7445 9.98541 52.7445 11.8786C52.749 11.8786 52.7538 11.8786 52.7583 11.8786C52.7583 13.7985 52.7599 15.7189 52.7551 17.6388C52.7547 17.7781 52.7843 17.8231 52.93 17.8183C53.2677 17.8065 53.6066 17.8024 53.9439 17.8191C54.1473 17.8292 54.2122 17.7821 54.2114 17.5621C54.2029 14.6684 54.2057 11.7747 54.2057 8.88093C54.2057 8.20469 54.211 7.52844 54.2017 6.8526C54.1992 6.70728 54.2491 6.6468 54.3815 6.61717ZM21.409 5.34464C21.0786 5.36372 20.7462 5.36169 20.4158 5.34505C20.2397 5.33612 20.2117 5.39417 20.2121 5.55653C20.2182 7.56457 20.2161 9.5722 20.2161 11.5802C20.2161 13.6017 20.2182 15.6231 20.2121 17.6445C20.2117 17.8004 20.2527 17.8369 20.402 17.8321C20.7466 17.8207 21.092 17.8191 21.4362 17.8325C21.6026 17.839 21.6339 17.7813 21.6331 17.6279C21.627 16.3639 21.6298 15.0995 21.6298 13.8355C21.6298 11.0838 21.6282 8.33255 21.6335 5.58088C21.6331 5.40715 21.6063 5.33328 21.409 5.34464ZM10.0762 11.5786C10.0762 9.56327 10.0742 7.54792 10.0803 5.53258C10.0807 5.37955 10.0433 5.34058 9.89233 5.34586C9.54773 5.35804 9.20192 5.36047 8.85772 5.34505C8.68279 5.33734 8.65194 5.39417 8.65194 5.55815C8.65721 8.39871 8.656 11.2389 8.656 14.0794C8.656 15.2631 8.65924 16.4463 8.65194 17.6299C8.65113 17.7854 8.69293 17.8231 8.84311 17.8179C9.17391 17.8061 9.50633 17.8024 9.83713 17.8187C10.0255 17.828 10.0827 17.787 10.0819 17.5836C10.0725 15.5825 10.0762 13.5806 10.0762 11.5786ZM8.65397 2.87509C8.65316 2.97535 8.67386 3.02081 8.78588 3.01919C9.17107 3.0135 9.55666 3.0135 9.94226 3.01919C10.0502 3.02081 10.0811 2.9855 10.0782 2.88036C10.0717 2.62342 10.0762 2.36648 10.0762 2.10954C10.0762 1.8595 10.073 1.60905 10.0778 1.35901C10.0799 1.262 10.064 1.21289 9.94754 1.21492C9.56235 1.22182 9.17675 1.221 8.79116 1.21532C8.684 1.2137 8.65234 1.24739 8.65356 1.35374C8.65843 1.86072 8.65803 2.36811 8.65397 2.87509ZM20.3395 3.01878C20.7243 3.01391 21.1091 3.01391 21.4939 3.01878C21.5994 3.02 21.6343 2.98712 21.6311 2.88036C21.6242 2.63073 21.6286 2.38069 21.6286 2.13105C21.6286 1.87452 21.6229 1.61798 21.6311 1.36145C21.6347 1.24292 21.5929 1.2137 21.4805 1.21532C21.1026 1.22141 20.7243 1.22182 20.3464 1.21492C20.2356 1.21289 20.2121 1.25145 20.2129 1.35374C20.2173 1.86681 20.2173 2.37988 20.2129 2.89295C20.2129 2.99118 20.2425 3.02 20.3395 3.01878ZM6.50681 7.77726C6.72193 10.203 6.45973 12.5747 5.69138 14.8876C5.39102 15.7924 4.98635 16.65 4.51268 17.4773C4.36087 17.7424 4.16727 17.8499 3.85798 17.8471C2.57374 17.8357 1.2891 17.8459 0.00446478 17.8479C0.00446478 12.2402 0.00527656 6.63219 0 1.02414C0 0.862992 0.0466773 0.841885 0.191174 0.842291C1.56267 0.847974 2.93458 0.845944 4.30649 0.845944C4.61943 1.41056 4.94414 1.96828 5.20553 2.56051C5.93897 4.22555 6.34649 5.97056 6.50681 7.77726ZM4.62957 5.76638C4.39538 4.6274 4.06214 3.52048 3.55356 2.4704C3.47563 2.30925 3.38309 2.18261 3.17974 2.18382C2.72676 2.18707 2.27379 2.19275 1.82123 2.17895C1.64791 2.17368 1.61666 2.22807 1.61706 2.39165C1.62315 4.70412 1.62112 7.01618 1.62112 9.32865C1.62112 11.6545 1.62275 13.9804 1.61747 16.3062C1.61706 16.4641 1.65481 16.5116 1.81635 16.5068C2.20804 16.4942 2.60216 16.4804 2.99222 16.5096C3.31652 16.534 3.48334 16.4065 3.61079 16.1195C4.52201 14.0656 4.92912 11.905 4.98716 9.67164C5.02126 8.3569 4.89462 7.05434 4.62957 5.76638ZM51.3771 17.6457C51.401 17.7838 51.3767 17.8353 51.222 17.8317C50.8096 17.8211 50.3973 17.8252 49.9845 17.83C49.8655 17.8317 49.8136 17.811 49.7937 17.6709C49.6553 16.6813 49.501 15.6941 49.3574 14.7057C49.3419 14.599 49.3119 14.5584 49.1966 14.5588C48.1892 14.5633 47.1818 14.5625 46.1744 14.5604C46.01 14.56 45.9264 14.6331 45.9032 14.7946C45.7689 15.7303 45.6293 16.6647 45.4982 17.6007C45.4762 17.7566 45.4369 17.8288 45.253 17.8203C44.8414 17.8016 44.4282 17.8126 44.0159 17.8158C43.9184 17.8166 43.8766 17.8114 43.8986 17.6847C44.2298 15.7765 44.5533 13.8667 44.8796 11.9577C45.2498 9.78895 45.6183 7.62017 45.9921 5.45221C46.2568 3.91625 46.5291 2.3815 46.7982 0.845944C47.3665 0.845944 47.9347 0.845944 48.503 0.845944C48.6324 1.61108 48.7607 2.37622 48.891 3.14096C49.195 4.92372 49.499 6.70607 49.8042 8.48842C50.1229 10.3507 50.4431 12.2126 50.7626 14.075C50.9671 15.2651 51.1697 16.456 51.3771 17.6457ZM49.0562 13.0598C48.8325 11.4012 48.5415 9.75323 48.2797 8.10037C48.0666 6.75356 47.8714 5.40472 47.7614 4.04451C47.7537 3.95075 47.819 3.77946 47.649 3.77418C47.4513 3.76809 47.502 3.95278 47.4947 4.06603C47.4351 4.98947 47.3389 5.90845 47.1952 6.82256C46.8701 8.88864 46.5498 10.9555 46.2178 13.0208C46.1898 13.1958 46.243 13.2067 46.385 13.2039C46.7974 13.1962 47.2098 13.201 47.6222 13.201C48.0549 13.201 48.4875 13.1986 48.9202 13.2027C49.029 13.2047 49.0736 13.1905 49.0562 13.0598ZM82.1094 17.5849C81.8139 17.4546 81.6962 17.2699 81.697 16.948C81.7067 13.5745 81.7063 10.2014 81.708 6.82784C81.708 6.59119 81.7071 6.35455 81.7007 6.11831C81.6938 5.88045 81.7981 5.72904 82.0168 5.63081C83.1878 5.10637 84.3925 4.92696 85.6467 5.26955C85.8342 5.32069 85.8371 5.24926 85.8367 5.10435C85.833 3.75916 85.8342 2.41357 85.8346 1.06838C85.8346 0.994101 85.8387 0.91982 85.8411 0.845944C86.3148 0.845944 86.7881 0.845944 87.2617 0.845944C87.2918 1.00587 87.2962 1.16742 87.2962 1.33019C87.2954 6.34643 87.2954 11.3627 87.2958 16.3789C87.2958 16.5953 87.2975 16.8116 87.3031 17.0275C87.3092 17.2699 87.2061 17.4314 86.9829 17.5378C86.3217 17.8536 85.6248 18.0163 84.8954 18.0549C83.9314 18.106 83.0011 17.9778 82.1094 17.5849ZM85.5355 16.5944C85.7957 16.5246 85.8411 16.4735 85.8407 16.2015C85.8399 15.5663 85.8342 14.931 85.8346 14.2954C85.8359 11.8615 85.8391 9.4281 85.8407 6.99426C85.8411 6.69105 85.7969 6.63625 85.5018 6.56319C84.8479 6.40082 84.1936 6.38946 83.5385 6.55669C83.1684 6.65127 83.1558 6.66588 83.1558 7.04987C83.1558 8.56392 83.1558 10.0784 83.1558 11.5928C83.1558 13.1138 83.1558 14.6347 83.1558 16.1557C83.1558 16.497 83.1773 16.525 83.513 16.6082C84.188 16.7755 84.8621 16.7747 85.5355 16.5944ZM34.9929 17.0653C34.9942 17.2971 34.9081 17.4298 34.7056 17.5203C33.0816 18.2453 31.4568 18.2725 29.8268 17.541C29.5942 17.4367 29.4996 17.2703 29.5004 17.0158C29.5061 15.082 29.5061 13.1479 29.5033 11.2141C29.5029 10.9831 29.5966 10.839 29.8024 10.7363C30.6832 10.2972 31.6176 10.1425 32.5917 10.194C32.8275 10.2066 33.0642 10.2281 33.2975 10.2639C33.4631 10.289 33.5139 10.2521 33.5123 10.0743C33.5029 9.13463 33.5078 8.19454 33.5078 7.25445C33.5078 7.19356 33.5062 7.13268 33.511 7.0722C33.5403 6.7154 33.47 6.61433 33.1234 6.53477C32.5328 6.3992 31.9455 6.40894 31.3602 6.57415C31.1703 6.62773 31.0834 6.72677 31.0891 6.93541C31.1017 7.4018 31.0899 7.86859 31.0952 8.33498C31.0964 8.44377 31.0749 8.48679 30.9539 8.48436C30.5752 8.47624 30.1961 8.47299 29.8178 8.48558C29.6721 8.49045 29.6437 8.42509 29.6433 8.31022C29.6417 7.9721 29.6397 7.63398 29.6388 7.29626C29.638 6.89725 29.6466 6.49824 29.6356 6.09923C29.6299 5.88247 29.7127 5.74893 29.9055 5.65029C30.8431 5.17132 31.84 5.03575 32.8758 5.12505C33.5277 5.18147 34.1463 5.35804 34.7295 5.66004C34.9138 5.75542 34.9925 5.87963 34.9917 6.0903C34.986 7.92298 34.9885 9.75567 34.9885 11.5879C34.9885 13.4137 34.9848 15.2395 34.9929 17.0653ZM33.5208 12.0048C33.5228 11.8469 33.47 11.7324 33.3032 11.6858C32.6047 11.4913 31.907 11.4719 31.2072 11.6797C31.0384 11.7296 30.9706 11.8323 30.9714 12.0064C30.9754 12.7095 30.973 13.4125 30.973 14.1155H30.975C30.975 14.8186 30.9815 15.5216 30.971 16.2247C30.9677 16.4292 31.04 16.5352 31.2336 16.5908C31.8798 16.7755 32.5247 16.7808 33.1713 16.5997C33.4656 16.5173 33.5066 16.4654 33.5066 16.1617C33.507 15.1478 33.5054 14.1338 33.5074 13.1194C33.5082 12.7476 33.5155 12.3762 33.5208 12.0048ZM64.4504 16.9959C64.4508 17.2792 64.3436 17.4529 64.0895 17.5605C62.457 18.2522 60.8274 18.2489 59.1957 17.5564C58.9445 17.4497 58.8479 17.2764 58.8487 17.0044C58.8556 15.1924 58.8523 13.3804 58.8523 11.5685C58.8523 9.76987 58.8564 7.97169 58.8479 6.17311C58.8466 5.89059 58.9489 5.71565 59.2055 5.60686C60.8306 4.91844 62.4542 4.9156 64.081 5.6024C64.3448 5.71362 64.4504 5.89465 64.45 6.18407C64.4439 9.78773 64.4439 13.3918 64.4504 16.9959ZM62.9896 16.2855C62.9818 14.737 62.9851 13.188 62.9851 11.6395C62.9806 11.6395 62.9758 11.6395 62.9713 11.6395C62.9713 10.0776 62.9701 8.51561 62.9729 6.95367C62.9733 6.75031 62.8999 6.62975 62.6908 6.57617C61.9606 6.38864 61.2373 6.3854 60.5112 6.60134C60.3541 6.64802 60.3087 6.71297 60.3091 6.87736C60.3152 9.80559 60.3135 12.7338 60.3135 15.6621C60.3135 15.8581 60.3111 16.0538 60.3115 16.2498C60.3119 16.428 60.3955 16.5368 60.5725 16.5835C61.3071 16.7775 62.0373 16.786 62.7716 16.5705C62.9348 16.523 62.9908 16.4613 62.9896 16.2855Z" fill="white"/>
</svg>
