<svg width="101" height="40" viewBox="0 0 101 40" fill="none" xmlns="http://www.w3.org/2000/svg">
<path d="M0.825935 13.1182C0.7749 12.3752 1.25609 11.3127 1.62063 10.7852C13.0308 10.1833 14.8097 8.48185 24.0836 3.92724C28.9174 1.54964 35.2386 -0.330159 46.3279 0.0487719C57.7818 0.435133 61.5147 2.70129 66.1589 5.17549C70.3293 7.38963 70.6938 9.03167 78.7793 10.2948C85.4504 11.3424 96.3721 13.2594 100.178 17.8214C82.7674 9.64836 58.766 9.60378 39.9995 11.8328C38.9569 11.7288 39.1246 9.7821 39.6495 9.53691C48.2308 8.90536 59.7868 8.82363 67.3838 9.28429C68.9513 9.38088 68.7253 8.77905 68.0837 8.15493C66.9245 7.04042 64.6424 5.91849 63.2134 5.20521C56.8923 2.0846 51.4898 1.35646 43.5282 1.60908C34.6845 1.88399 32.818 2.35208 26.4386 5.77732C20.0591 9.20256 16.9241 13.7795 4.07764 14.3813C4.07035 14.3813 0.825935 14.7379 0.825935 13.1182ZM19.3956 17.0635C19.6435 17.0041 19.8914 16.9818 20.1393 16.9818H25.7386C26.4313 16.9818 27.2916 17.0561 27.7655 17.6431C28.2831 18.2746 28.0936 19.2554 27.8894 19.9687C27.5978 20.9717 27.0656 21.7444 26.1032 22.1382C26.2344 22.1902 26.3584 22.2645 26.4531 22.3388C26.8323 22.636 26.9854 23.0595 26.9489 23.5871C26.9271 23.9214 26.825 24.2558 26.7448 24.5456C26.475 25.4817 26.1834 26.1727 25.4033 26.7746C24.5794 27.4061 23.9232 27.4581 22.9536 27.4581C21.0725 27.4581 19.1915 27.4433 17.3178 27.4581C16.2314 27.4581 15.444 27.0495 15.8013 25.8161L17.9083 18.5718C18.1125 17.814 18.652 17.2493 19.3956 17.0635ZM20.2049 19.2777L19.6362 21.2466H23.6535C23.8649 21.2466 24.0763 21.2466 24.2805 21.202C24.594 21.1352 24.8638 20.9643 25.0387 20.6819C25.1262 20.5333 25.2283 20.3179 25.3231 19.9835C25.3595 19.8572 25.4106 19.6715 25.4179 19.4931C25.447 18.8393 24.8783 18.8393 24.4044 18.8393C23.1942 18.8393 21.9912 18.8393 20.7809 18.8393C20.533 18.8393 20.4018 18.869 20.2778 19.0919C20.2414 19.1588 20.2195 19.2257 20.2049 19.2777ZM13.5265 27.4656H8.66356C8.19695 27.4656 7.62826 27.4284 7.07416 27.2947C5.73265 26.9752 4.81401 26.1876 4.79943 24.6644C4.79214 23.9437 4.96712 23.0818 5.27333 22.0714C5.47748 21.3729 5.72536 20.6374 6.11178 19.9389C6.97209 18.3786 8.29173 17.487 9.97591 17.1378C10.6612 16.9967 11.2591 16.9744 11.6528 16.9744H16.4283C16.5814 16.9744 16.6762 17.1304 16.6251 17.279L16.1804 18.765C16.1512 18.8616 16.0637 18.921 15.969 18.921H11.8934C11.4049 18.921 10.9675 18.9805 10.581 19.0919C9.47284 19.3965 8.72189 20.0504 8.24798 21.1649H14.9555C15.0722 21.1649 15.167 21.2615 15.167 21.3878C15.167 21.4175 15.1597 21.4472 15.1524 21.4695L14.7076 22.9555C14.6785 23.0521 14.5983 23.1116 14.5035 23.1116H7.64285C7.5189 23.5722 7.46787 23.9512 7.50432 24.2632C7.59181 24.9245 8.19695 25.2588 8.75834 25.3926C9.08643 25.4743 9.49471 25.5115 10.0124 25.5115H14.0515C14.1973 25.5115 14.3067 25.6749 14.2483 25.8161L13.8036 27.3021C13.7598 27.4581 13.6432 27.4656 13.5265 27.4656ZM31.1557 23.9363L30.1715 27.2649C30.1496 27.3838 30.0475 27.473 29.9309 27.473H27.7582C27.5905 27.473 27.4739 27.3095 27.5249 27.1461L30.0256 18.661C30.2954 17.7545 30.7693 17.2641 31.6734 17.0561C31.9358 16.9967 32.191 16.9818 32.4025 16.9818H37.8924C38.2059 16.9818 38.6142 16.9818 39.0225 17.0635C40.087 17.2716 40.6629 17.9403 40.6192 19.0919C40.5973 19.5897 40.4661 20.1024 40.3421 20.5333C40.2182 20.9494 40.0286 21.4992 39.737 22.0193C39.1829 22.9852 38.483 23.5351 37.455 23.7951C37.1123 23.8843 36.7405 23.9289 36.3905 23.9289H31.1557V23.9363ZM31.7463 21.9302H35.5521C35.7854 21.9302 36.0333 21.9302 36.2666 21.8856C36.8061 21.789 37.1269 21.5215 37.3748 21.0237C37.4914 20.786 37.5716 20.5482 37.6227 20.3625C37.7831 19.8052 37.9581 19.1662 37.2144 19.025C37.003 18.9879 36.7769 18.9805 36.602 18.9805C35.4208 18.9805 34.2324 18.9805 33.0513 18.9805C32.942 18.9805 32.8034 18.9805 32.6795 19.0622C32.5701 19.1365 32.5264 19.2628 32.4899 19.3891L31.7463 21.9302ZM40.0214 27.473H37.7248C37.6737 27.473 37.6154 27.4507 37.5716 27.421C37.4623 27.3318 37.4477 27.1758 37.5352 27.0643L44.5344 18.1929C45.2343 17.3087 45.8321 16.9818 46.9549 16.9818C47.9756 16.9818 48.5224 17.2418 48.763 18.2969L50.4618 27.1535C50.4983 27.3095 50.3816 27.4656 50.2212 27.4656H47.9611C47.8298 27.4656 47.7132 27.4061 47.684 27.2575L47.283 24.9691H42.0555L40.2255 27.3541C40.1818 27.4284 40.1088 27.473 40.0214 27.473ZM43.397 23.1487H47.0278C46.8164 21.9005 46.5977 20.6448 46.3935 19.3965C46.3862 19.3594 46.3717 19.2851 46.3352 19.3297L43.397 23.1487ZM57.5558 27.473H51.5919C51.4242 27.473 51.3075 27.3095 51.3586 27.1461L51.796 25.6749C51.8179 25.556 51.92 25.4669 52.0366 25.4669H57.3443C57.4683 25.4669 57.8328 25.4594 58.1682 25.4149C58.9556 25.3108 59.2254 24.9914 59.4441 24.2484C59.4878 24.1072 59.5389 23.9214 59.5462 23.7431C59.568 23.1264 58.7879 23.1784 58.365 23.1784H53.1375C53.1011 23.1784 53.0573 23.1784 53.0209 23.1636C52.8896 23.1264 52.8167 22.9778 52.8532 22.8441L53.2906 21.3729C53.3125 21.2541 53.4146 21.1649 53.5312 21.1649H58.5254C59.4878 21.1649 60.144 21.1575 60.4721 20.0355C60.4794 20.0058 60.4867 19.9761 60.5013 19.9464C60.771 19.0548 60.5231 18.9805 59.7357 18.9805H54.253C54.202 18.9805 54.1437 18.9805 54.0926 18.9656C53.9614 18.921 53.8885 18.7799 53.9249 18.6461L54.3624 17.175C54.3843 17.0561 54.4863 16.9669 54.603 16.9669H60.6689C61.923 16.9669 63.4978 17.1453 63.4613 18.817C63.454 19.2034 63.352 19.6046 63.2353 19.991C63.1332 20.3327 63.0239 20.6597 62.8343 20.9791C62.5354 21.4844 62.0688 21.8707 61.5511 22.1085C61.5876 22.1234 61.6313 22.1457 61.6678 22.1679C61.9375 22.3165 62.1417 22.5394 62.2365 22.8218C62.3094 23.015 62.3385 23.2527 62.3094 23.5574C62.2875 23.8397 62.2146 24.1815 62.0906 24.6124C61.9813 24.9839 61.8282 25.4446 61.5511 25.883C60.9168 26.886 59.9982 27.2575 58.89 27.3913C58.4234 27.4581 57.9568 27.473 57.5558 27.473ZM76.7087 18.9953L74.2663 27.2649C74.2444 27.3838 74.1424 27.4656 74.0257 27.4656H71.8531C71.6854 27.4656 71.5687 27.3021 71.6197 27.1386L73.8507 19.7903L73.8143 19.8275C71.5468 22.0862 69.2721 24.3449 66.9828 26.5814C66.5089 27.0569 65.9767 27.5844 64.7153 27.5844C63.7457 27.5844 63.3374 27.2204 63.1989 26.7671C63.0676 26.3362 63.1989 25.8607 63.2863 25.5486L65.7506 17.1898C65.7725 17.071 65.8746 16.9818 65.9912 16.9818H68.1493C68.3243 16.9818 68.4628 17.123 68.4045 17.3087L66.1808 24.6719C68.266 22.4429 70.6355 20.2139 72.8081 18.0443C73.2748 17.5836 73.6612 17.2864 74.0403 17.1081C74.434 16.9224 74.8058 16.8629 75.236 16.8629C76.2421 16.8629 76.6577 17.2716 76.7962 17.7545C76.9275 18.2226 76.7889 18.7204 76.7087 18.9953ZM89.3802 18.8913L86.9086 27.2724C86.8867 27.3913 86.7846 27.473 86.668 27.473H84.4953C84.3349 27.473 84.211 27.3095 84.262 27.1461L86.5659 19.3445C86.6534 19.0176 86.4784 18.9953 86.1941 18.9953H82.5706C81.4551 18.9953 81.0978 19.4783 80.7843 20.5259C80.6822 20.8603 80.6239 21.1129 80.602 21.3061C80.5437 21.8113 80.8208 21.9896 81.3311 21.9896H83.6059C83.7298 21.9896 84.0068 21.9971 84.2474 22.0936C84.9255 22.3611 84.6849 23.171 84.3495 23.6094C84.2183 23.7728 84.0287 23.966 83.7371 24.1666L78.9324 27.4135C78.8887 27.4507 78.8376 27.473 78.7793 27.473H75.9797C75.7318 27.473 75.637 27.1386 75.8484 27.0049L80.5583 24.0032H79.8511C78.3856 24.0032 77.6128 23.0967 77.7878 21.6033C77.8388 21.2095 77.9409 20.8008 78.0575 20.3996C78.7137 18.1112 79.8365 16.9967 82.2279 16.9967H87.8783C89.0813 16.9967 89.7593 17.6356 89.3802 18.8913ZM5.19313 39.9926H0.249962C0.228089 39.9926 0.198926 39.9926 0.177053 39.9851C0.0458186 39.9406 -0.0270893 39.7994 0.00936478 39.6656L0.446813 38.1945C0.468685 38.0756 0.570756 37.9865 0.68741 37.9865H4.72652C5.25146 37.9865 5.68162 37.9419 6.05345 37.8676C6.41799 37.7933 6.73149 37.6818 7.02313 37.5332L7.03771 37.5258C7.51161 37.288 7.84699 37.0057 8.10217 36.6565C8.30631 36.3816 8.45942 36.0547 8.59794 35.6683H1.91956C1.89768 35.6683 1.86852 35.6609 1.84665 35.6609C1.71541 35.6163 1.64251 35.4751 1.67896 35.3414L2.11641 33.8702C2.13828 33.7514 2.24035 33.6622 2.35701 33.6622H9.18121C9.23225 33.4021 9.25412 33.1347 9.23954 32.8895C9.21766 32.5997 9.13017 32.3322 8.92603 32.1093C8.77292 31.9384 8.53233 31.7824 8.20424 31.6709H8.18966C7.87615 31.5669 7.48245 31.5075 7.00126 31.5075H2.91111C2.88924 31.5075 2.86007 31.5001 2.8382 31.4926C2.70697 31.4555 2.63406 31.3143 2.67051 31.1731L3.10796 29.702C3.12983 29.5831 3.2319 29.4939 3.34856 29.4939H8.12404C8.51045 29.4939 9.1083 29.5162 9.72073 29.6574C10.3477 29.806 10.9893 30.0809 11.4414 30.601L11.4487 30.6085C11.9298 31.1657 12.0757 31.8567 12.0465 32.5923C12.0173 33.2981 11.8278 34.0337 11.6236 34.7321C11.3247 35.7352 11.0039 36.5896 10.5738 37.3029C10.129 38.031 9.5822 38.618 8.83125 39.0712C8.19695 39.4576 7.51161 39.6879 6.87731 39.8217C6.24301 39.9554 5.65245 39.9926 5.19313 39.9926ZM14.0952 39.9926H11.9809C11.9371 39.9926 11.8861 39.9926 11.8496 39.9777C11.7184 39.9406 11.6455 39.792 11.682 39.6582L14.6202 29.702C14.642 29.5831 14.7441 29.4939 14.8608 29.4939H16.9824C17.1647 29.4939 17.3323 29.6054 17.2667 29.8209L14.3285 39.7771C14.3139 39.9034 14.2119 39.9926 14.0952 39.9926ZM19.104 35.386C18.8051 35.0813 18.4989 34.8436 18.8853 34.5018C19.0165 34.3829 19.1988 34.2492 19.4321 34.1006L25.4251 29.9695C25.5418 29.8952 25.571 29.7317 25.4981 29.6203C25.4397 29.5237 25.3522 29.5014 25.2502 29.5014H22.6036C22.5453 29.5014 22.4942 29.5237 22.4505 29.5534L17.1428 33.2758C16.7053 33.5879 16.246 33.9965 16.0856 34.5389C15.9179 35.111 16.1658 35.6609 16.5595 36.0695L20.0226 39.9034C20.1028 39.9926 20.1976 39.9777 20.307 39.9777H22.9536C23.1869 39.9777 23.2889 39.6731 23.114 39.5245L19.104 35.386ZM33.6346 38.3134L33.1826 39.7845C33.1607 39.9034 33.0586 39.9926 32.9347 39.9926H27.8894C27.3208 39.9926 26.6573 39.9554 26.0376 39.792C24.543 39.3833 23.7993 38.3357 23.9014 36.7308C23.9451 36.0547 24.1347 35.3785 24.3096 34.8138C24.5357 34.0857 24.7981 33.3427 25.1773 32.6591C26.0667 31.032 27.3937 30.0884 29.158 29.6946C29.9309 29.5237 30.6089 29.5014 31.0318 29.5014H35.8C35.975 29.5014 36.1353 29.6203 36.077 29.8283L35.625 31.2994C35.6031 31.4183 35.501 31.5075 35.3771 31.5075H31.5859C30.9589 31.5075 30.3756 31.5223 29.8434 31.6412C28.881 31.8567 28.2321 32.4065 27.7363 33.2535C27.4957 33.6696 27.2551 34.212 27.0364 34.9327C26.8104 35.6534 26.7302 36.1587 26.7229 36.5153C26.701 37.2212 26.9708 37.6075 27.6488 37.8081C28.0863 37.9419 28.655 37.979 29.3184 37.979H33.3794C33.4159 37.979 33.4377 37.979 33.4742 37.9939C33.6054 38.0385 33.6711 38.1796 33.6346 38.3134ZM45.5259 31.5075C43.7761 31.5075 42.194 31.5223 40.4442 31.5075C40.2401 31.5075 40.0797 31.5223 39.9703 31.7007C39.9266 31.7675 39.8974 31.8493 39.8755 31.931L37.5571 39.792C37.5352 39.9108 37.4331 40 37.3165 40H35.1438C35.1219 40 35.0928 40 35.0709 39.9926C34.9397 39.9554 34.8667 39.8068 34.9032 39.6731L37.4477 31.0468C37.506 30.8462 37.5789 30.653 37.7029 30.4599C37.9945 30.0215 38.5559 29.6648 39.059 29.5608C39.3069 29.5088 39.5402 29.5014 39.8172 29.5014H47.0934C47.5965 29.5014 48.1142 29.5237 48.4714 29.9472C48.6391 30.1478 48.712 30.3633 48.7266 30.5862C48.7412 30.7868 48.6974 30.9948 48.6391 31.188L46.1019 39.792C46.08 39.9108 45.9779 40 45.8613 40H43.6886C43.6668 40 43.6449 40 43.6157 39.9926C43.4845 39.9554 43.4116 39.8068 43.448 39.6731C44.2282 37.0354 45.0156 34.3978 45.7811 31.7601C45.854 31.4852 45.8467 31.5075 45.5259 31.5075ZM63.2863 36.4559L62.3021 39.792C62.2802 39.9108 62.1781 40 62.0615 40H59.8888C59.867 40 59.8378 40 59.8159 39.9926C59.6847 39.9554 59.6118 39.8068 59.6482 39.6731L62.149 31.188C62.2073 30.9874 62.2729 30.7793 62.3896 30.5713C62.5135 30.3484 62.6885 30.1404 62.9728 29.9397C63.2426 29.754 63.5269 29.65 63.7967 29.5831C64.0665 29.5237 64.3143 29.5088 64.5258 29.5088H70.0158C70.3293 29.5088 70.7376 29.5088 71.1458 29.5905C71.5687 29.6723 71.9916 29.8432 72.2978 30.1775L72.3051 30.1849C72.655 30.5713 72.7571 31.084 72.7352 31.6115C72.7134 32.1093 72.5894 32.622 72.4582 33.0604C72.3342 33.4764 72.1447 34.0263 71.8531 34.5464C71.5468 35.0813 71.1313 35.5866 70.548 35.9358L70.5334 35.9432C70.2564 36.1067 69.921 36.233 69.571 36.3221C69.2284 36.4113 68.8565 36.4559 68.5066 36.4559H63.2863ZM64.6206 31.9236L63.8769 34.4498H67.6827C67.916 34.4498 68.1639 34.4498 68.3972 34.4052C68.6232 34.368 68.8492 34.2863 69.0607 34.1229C69.2502 33.9817 69.396 33.7662 69.5054 33.5433C69.6221 33.3055 69.7023 33.0678 69.7533 32.882C69.8116 32.6814 69.8772 32.4362 69.8845 32.2208V32.2133C69.8991 32.0276 69.8772 31.8567 69.7897 31.7527C69.6877 31.6412 69.52 31.5818 69.3377 31.5446C69.1336 31.5075 68.9003 31.5001 68.7253 31.5001H65.2184H65.182C65.0726 31.5001 64.9341 31.5001 64.8101 31.5892C64.7008 31.6709 64.657 31.7973 64.6206 31.9236ZM81.1561 31.5075L78.7137 39.792C78.6918 39.9108 78.5898 40 78.4731 40H76.3004C76.2786 40 76.2494 40 76.2275 39.9926C76.0963 39.9554 76.0234 39.8068 76.0598 39.6731L78.4658 31.5149H74.2955C74.2736 31.5149 74.2444 31.5149 74.2226 31.5075C74.0913 31.4703 74.0184 31.3292 74.0622 31.188L74.4996 29.7168C74.5215 29.598 74.6236 29.5088 74.7402 29.5088H85.9316C85.9535 29.5088 85.9754 29.5088 86.0045 29.5237C86.1357 29.5608 86.2087 29.702 86.1649 29.8432L85.7275 31.3143C85.7056 31.4332 85.6035 31.5223 85.4869 31.5223H81.1561V31.5075ZM57.738 39.9926H52.7949C52.3282 39.9926 51.7596 39.9554 51.1909 39.8217C50.6149 39.6879 50.0535 39.4427 49.6234 39.0415H49.6161C49.1057 38.5586 48.887 37.9419 48.8797 37.1766C48.8724 36.4559 49.0547 35.594 49.3536 34.5909C49.5577 33.9 49.8129 33.157 50.192 32.466C50.5857 31.7601 51.1107 31.0988 51.8762 30.5787L51.8908 30.5713C52.6199 30.0735 53.3927 29.8134 54.0853 29.6723C54.7707 29.5311 55.3758 29.5088 55.7622 29.5088H60.5377C60.6762 29.5088 60.7856 29.6203 60.7856 29.7614C60.7856 29.7986 60.7783 29.8283 60.771 29.858L60.3336 31.3366C60.2971 31.448 60.2023 31.5149 60.1003 31.5149H56.0101C55.5216 31.5149 55.0842 31.5744 54.7051 31.6784C54.2749 31.7973 53.9176 31.9681 53.6333 32.1539C53.2615 32.4065 52.9844 32.7037 52.773 33.0158C52.6272 33.2238 52.5178 33.4467 52.423 33.6622H59.0723C59.2108 33.6622 59.3201 33.7736 59.3201 33.9148C59.3201 33.9445 59.3128 33.9817 59.3056 34.0114L58.8608 35.49C58.8317 35.6014 58.7296 35.6683 58.6275 35.6683H51.796C51.6794 36.1067 51.6283 36.4707 51.6721 36.7754C51.7158 37.0874 51.8616 37.3326 52.1606 37.5481C52.3501 37.6893 52.5907 37.7933 52.8969 37.8676C53.2177 37.9419 53.626 37.9865 54.1437 37.9865H58.1828C58.3213 37.9865 58.4307 38.0979 58.4307 38.2391C58.4307 38.2688 58.4234 38.306 58.4161 38.3357L57.9786 39.8143C57.9422 39.9257 57.8401 39.9926 57.738 39.9926ZM23.3181 23.1041H19.0894L18.5207 25.0582C18.477 25.2143 18.4551 25.3257 18.4478 25.4074C18.4333 25.6526 18.8051 25.608 18.9582 25.608C20.1101 25.608 21.2694 25.608 22.4213 25.608C22.589 25.608 22.815 25.608 23.0483 25.5635C23.6826 25.4446 23.967 25.1028 24.1784 24.4935C24.244 24.3004 24.3024 24.07 24.3242 23.8694C24.4044 23.171 23.843 23.1041 23.3181 23.1041Z" fill="white"/>
</svg>
