<svg width="98" height="41" viewBox="0 0 98 41" fill="none" xmlns="http://www.w3.org/2000/svg">
<path d="M16.5192 21.9058H22.2455C22.3456 21.9058 22.4277 21.99 22.4277 22.0961C22.4277 22.1217 22.4242 22.1437 22.4134 22.1656L22.0348 23.4427C22.0098 23.5232 21.9383 23.5744 21.8633 23.5744H16.0048C15.9012 23.9696 15.8548 24.2952 15.8905 24.566C15.9655 25.1332 16.4799 25.4186 16.9622 25.5357C17.2408 25.6052 17.5909 25.6381 18.0339 25.6381H21.4811C21.6097 25.6381 21.6954 25.7772 21.649 25.8979L21.2703 27.1749C21.2346 27.2994 21.1346 27.3103 21.0345 27.3103H16.8765C16.4799 27.3103 15.9941 27.2774 15.5154 27.164C14.3687 26.8895 13.5864 26.2163 13.5686 24.9063C13.5614 24.2843 13.715 23.5488 13.9722 22.6816C14.1473 22.0851 14.3616 21.4484 14.6867 20.852C15.4226 19.5128 16.5514 18.748 17.9874 18.448C18.5733 18.3272 19.0877 18.3089 19.4163 18.3089H23.4958C23.6244 18.3089 23.7102 18.4443 23.6637 18.5687L23.2851 19.8458C23.2601 19.9299 23.185 19.9775 23.1064 19.9775H19.6235C19.2056 19.9775 18.8305 20.0324 18.5018 20.1202C17.5623 20.3873 16.9265 20.9471 16.5192 21.9058ZM32.9837 27.0322L35.1235 19.7506C35.3521 18.9712 35.7558 18.5504 36.5274 18.3748C36.756 18.3236 36.9703 18.3089 37.1489 18.3089H41.8357C42.1036 18.3089 42.4502 18.3089 42.8038 18.3785C43.7147 18.5577 44.2041 19.1322 44.1648 20.1165C44.147 20.541 44.0362 20.9837 43.9291 21.357C43.8219 21.7156 43.6647 22.1839 43.4111 22.634C42.9396 23.4646 42.3394 23.9366 41.4642 24.1598C41.1677 24.2367 40.8569 24.2769 40.5533 24.2769H36.0916L35.2521 27.1347C35.2306 27.2335 35.1485 27.3103 35.0449 27.3103H33.1873C33.0444 27.314 32.9408 27.1713 32.9837 27.0322ZM36.5952 22.5572H39.8424C40.0389 22.5572 40.2532 22.5572 40.4568 22.5206C40.9177 22.4401 41.1927 22.2059 41.4035 21.7851C41.5035 21.5838 41.5714 21.3753 41.6178 21.2216C41.7571 20.7422 41.9036 20.1934 41.2677 20.0726C41.0891 20.0397 40.8927 20.036 40.7462 20.036C39.7352 20.036 38.7243 20.036 37.7169 20.036C37.6241 20.036 37.5062 20.0324 37.399 20.1092C37.3025 20.1751 37.2704 20.2812 37.2382 20.391L36.5952 22.5572ZM63.1442 21.7522C63.3049 21.4777 63.4014 21.1923 63.4871 20.9032C63.5871 20.5703 63.6693 20.2263 63.68 19.897C63.7122 18.459 62.3618 18.3089 61.2937 18.3089H56.114C56.014 18.3089 55.9282 18.3858 55.9068 18.4846L55.5353 19.7506C55.5031 19.864 55.5639 19.9885 55.6746 20.0214C55.721 20.036 55.7639 20.0324 55.8103 20.0324H60.49C61.1616 20.0324 61.3723 20.0946 61.1437 20.863C61.1366 20.8886 61.1294 20.9142 61.1223 20.9398C60.8436 21.8985 60.2828 21.9058 59.4612 21.9058H55.1959C55.0923 21.9058 55.0066 21.9827 54.9887 22.0815L54.6172 23.3475C54.5851 23.461 54.6458 23.5854 54.7565 23.6183C54.7887 23.6293 54.8244 23.6293 54.8566 23.6293H59.3183C59.6791 23.6293 60.3471 23.5817 60.3292 24.1159C60.3257 24.266 60.2792 24.427 60.2435 24.5477C60.0542 25.1844 59.822 25.4625 59.1504 25.5503C58.861 25.5869 58.5467 25.5942 58.4431 25.5942H53.9099C53.8063 25.5942 53.7206 25.6711 53.7027 25.7699L53.3312 27.0359C53.2883 27.175 53.3919 27.3177 53.5313 27.3177H58.6253C58.9682 27.3177 59.3647 27.3067 59.7648 27.2591C60.7115 27.1457 61.4974 26.82 62.0368 25.9601C62.2725 25.5832 62.4011 25.1917 62.4976 24.8734C62.6048 24.5075 62.6655 24.2111 62.6869 23.9696C62.7083 23.7098 62.6869 23.5049 62.6226 23.3402C62.5369 23.0987 62.3654 22.9084 62.1368 22.7767C62.1046 22.7584 62.0725 22.7401 62.0403 22.7255C62.494 22.5169 62.887 22.1876 63.1442 21.7522ZM12.3433 15.9708C23.3101 15.4548 25.9893 11.5249 31.4369 8.58668C36.8846 5.64841 38.485 5.24957 46.0331 5.01173C52.8347 4.79218 57.4464 5.42155 62.8441 8.10002C64.0694 8.70743 66.0163 9.67343 67.0058 10.6285C67.5559 11.1627 67.7488 11.675 66.4092 11.5945C59.9149 11.1956 50.0519 11.2725 42.7216 11.8104C42.2715 12.0262 42.1322 13.6948 43.0217 13.7826C59.0504 11.8726 79.5479 11.9055 94.4156 18.9237C91.1684 15.0121 81.8413 13.3618 76.1436 12.4653C69.242 11.3786 68.9276 9.96982 65.3661 8.06708C61.4009 5.9448 58.2109 4.00181 48.4301 3.66883C38.9601 3.34317 33.566 4.9605 29.4365 6.99862C21.5168 10.9102 19.995 12.3702 10.2499 12.8898C9.94273 13.3399 9.52477 14.251 9.57121 14.8913C9.57479 16.2781 12.3433 15.9708 12.3433 15.9708ZM41.5678 27.2664C41.4785 27.1932 41.4642 27.0542 41.5357 26.9627L47.5156 19.3481C48.1157 18.5907 48.623 18.3089 49.5804 18.3089C50.452 18.3089 50.9199 18.5321 51.1236 19.4396L52.5775 27.0432C52.6096 27.1786 52.506 27.3103 52.3738 27.3103H50.4448C50.3305 27.3103 50.2341 27.2591 50.2091 27.131L49.8626 25.1661H45.3973L43.8362 27.2115C43.8005 27.2701 43.7326 27.3103 43.6576 27.3103H41.7C41.6535 27.314 41.6071 27.2957 41.5678 27.2664ZM46.5404 23.6H49.6447C49.466 22.5279 49.2803 21.4521 49.1052 20.38C49.0981 20.3471 49.0838 20.2812 49.0552 20.3251L46.5404 23.6ZM31.7727 22.7401C31.887 22.7877 31.987 22.8462 32.0764 22.9121C32.4014 23.1682 32.5336 23.5305 32.4979 23.9842C32.4764 24.2733 32.3943 24.5587 32.3228 24.8075C32.0906 25.6125 31.8406 26.2053 31.1726 26.7212C30.4724 27.2628 29.908 27.3103 29.0792 27.3103C27.4753 27.3103 25.8678 27.2957 24.2639 27.3103C23.3351 27.3103 22.6599 26.9554 22.9671 25.9016L24.764 19.6811C24.9533 19.0261 25.407 18.5395 26.0464 18.3748C26.2572 18.3199 26.4679 18.3053 26.6823 18.3053H31.4619C32.0513 18.3053 32.7872 18.3675 33.1945 18.8724C33.6374 19.414 33.4767 20.2556 33.2981 20.8703C33.0551 21.7339 32.5979 22.3998 31.7727 22.7401ZM30.2581 24.2147C30.3188 23.6183 29.8437 23.5671 29.3936 23.5671H25.7821L25.2962 25.2429C25.2569 25.3747 25.2391 25.4735 25.2355 25.543C25.2248 25.7516 25.5427 25.715 25.6749 25.715C26.6608 25.715 27.6468 25.715 28.6327 25.715C28.7756 25.715 28.9721 25.7113 29.1685 25.6747C29.708 25.5723 29.9509 25.2795 30.1331 24.7563C30.1938 24.5843 30.2402 24.3867 30.2581 24.2147ZM31.1797 20.4678C31.2047 19.908 30.7189 19.908 30.3152 19.908C29.2829 19.908 28.2505 19.908 27.2217 19.908C27.0145 19.908 26.8966 19.9372 26.793 20.1238C26.7644 20.1787 26.743 20.2373 26.7323 20.2812L26.2465 21.968H29.6758C29.8544 21.968 30.0402 21.968 30.2081 21.9314C30.476 21.8766 30.7082 21.7265 30.8546 21.485C30.9332 21.3606 31.019 21.1704 31.1011 20.8886C31.1297 20.7788 31.1726 20.6215 31.1797 20.4678ZM82.9308 29.0667C82.9094 29.0594 82.888 29.0557 82.8701 29.0557H73.3108C73.2072 29.0557 73.1214 29.1326 73.1036 29.2314L72.7321 30.4974C72.6999 30.6145 72.7606 30.7353 72.8714 30.7682C72.8928 30.7755 72.9143 30.7792 72.9321 30.7792H76.4936L74.4396 37.779C74.4075 37.8925 74.4682 38.0169 74.5789 38.0498C74.6004 38.0571 74.6182 38.0571 74.6396 38.0571H76.4972C76.5972 38.0571 76.683 37.9803 76.7044 37.8815L78.7906 30.7719H82.4914C82.5915 30.7719 82.6772 30.695 82.6986 30.5962L83.0701 29.3302C83.1059 29.2204 83.0416 29.0996 82.9308 29.0667ZM71.2317 29.6375C71.5318 29.9669 71.6211 30.4059 71.6032 30.8633C71.5854 31.2878 71.4746 31.7305 71.3675 32.1038C71.2603 32.4624 71.1031 32.9307 70.8495 33.3808C70.5923 33.8382 70.2351 34.2773 69.735 34.5737L69.7207 34.581C69.4813 34.72 69.1991 34.8298 68.899 34.9066C68.6026 34.9835 68.2918 35.0237 67.9881 35.0237H63.5264L62.6869 37.8852C62.6655 37.984 62.5833 38.0608 62.4797 38.0608H60.6222C60.6007 38.0608 60.5793 38.0571 60.5614 38.0498C60.4507 38.0132 60.3864 37.8925 60.4221 37.779L62.5583 30.4938C62.6083 30.3218 62.6619 30.1425 62.7619 29.9632C62.8655 29.7729 63.0191 29.59 63.262 29.4216C63.4907 29.2643 63.7336 29.1728 63.9658 29.1179C64.1944 29.0667 64.4087 29.0521 64.5874 29.0521H69.2741C69.5421 29.0521 69.8886 29.0521 70.2422 29.1216C70.6066 29.1911 70.9638 29.3375 71.2246 29.6266L71.2317 29.6375ZM69.0848 30.9914C68.9991 30.8963 68.8562 30.845 68.699 30.8121C68.5204 30.7792 68.3239 30.7755 68.1775 30.7755H65.1803H65.1482C65.0553 30.7755 64.9374 30.7755 64.8303 30.8487C64.7338 30.9146 64.7017 31.0243 64.6695 31.1341L64.0337 33.3003H67.2808C67.4773 33.3003 67.6916 33.3003 67.8952 33.2637C68.0882 33.2308 68.2846 33.1613 68.4632 33.0259C68.624 32.9015 68.749 32.7185 68.8419 32.5282C68.9419 32.327 69.0098 32.1184 69.0562 31.9647C69.1062 31.7891 69.1598 31.5842 69.1705 31.3939V31.3902C69.1777 31.2292 69.1598 31.0829 69.0848 30.9914ZM72.9071 27.1384L74.9933 20.036C75.0612 19.7982 75.1791 19.3701 75.0683 18.9785C74.9504 18.5614 74.6003 18.2101 73.7394 18.2101C73.3715 18.2101 73.0536 18.265 72.7178 18.4224C72.3927 18.576 72.0605 18.8285 71.664 19.2274C69.81 21.0899 67.7809 22.9999 66.002 24.9136L67.8988 18.5907C67.9453 18.4333 67.8274 18.3089 67.6809 18.3089H65.8412C65.7376 18.3089 65.6554 18.3821 65.634 18.4846L63.5264 25.6564C63.4478 25.9272 63.3335 26.337 63.4478 26.7029C63.5693 27.0944 63.9158 27.4091 64.7445 27.4091C65.8198 27.4091 66.277 26.9517 66.6807 26.5456C68.6347 24.6282 70.578 22.6852 72.5142 20.7459L72.5463 20.713L70.6387 27.0213C70.5959 27.164 70.6995 27.303 70.8388 27.303H72.6963C72.8035 27.3103 72.8892 27.2372 72.9071 27.1384ZM19.2663 30.0108L19.2591 30.0034C18.8662 29.557 18.3196 29.3192 17.7874 29.1948C17.2658 29.0704 16.7586 29.0557 16.4264 29.0557H12.3468C12.2433 29.0557 12.1575 29.1326 12.1397 29.2314L11.7681 30.4974C11.736 30.6145 11.7967 30.7353 11.9075 30.7682C11.9289 30.7755 11.9503 30.7792 11.9682 30.7792H15.4583C15.8691 30.7792 16.2049 30.8304 16.4728 30.9182L16.4835 30.9219C16.7657 31.017 16.9693 31.1487 17.1015 31.2951C17.273 31.489 17.348 31.7196 17.3659 31.9647C17.3837 32.177 17.3587 32.4038 17.3158 32.6307H11.4931C11.3895 32.6307 11.3038 32.7075 11.2859 32.8063L10.9144 34.0724C10.8822 34.1858 10.943 34.3102 11.0537 34.3431C11.0751 34.3505 11.093 34.3541 11.1144 34.3541H16.8157C16.6978 34.6834 16.5657 34.9615 16.3942 35.1994C16.1763 35.4994 15.8905 35.7409 15.4869 35.9458L15.4761 35.9532C15.2296 36.0776 14.9617 36.1727 14.6509 36.2386C14.333 36.3044 13.9615 36.341 13.515 36.341H10.0678C9.96416 36.341 9.87843 36.4179 9.86057 36.5167L9.48905 37.7827C9.4569 37.8961 9.51763 38.0205 9.62837 38.0535C9.6498 38.0608 9.66766 38.0608 9.6891 38.0608H13.9115C14.308 38.0608 14.8117 38.0279 15.3547 37.9144C15.8977 37.801 16.4799 37.6034 17.0265 37.2704C17.6659 36.8789 18.1375 36.3776 18.5161 35.7519C18.8841 35.1408 19.1627 34.4127 19.4163 33.5455C19.5914 32.949 19.7521 32.316 19.7735 31.7122C19.8021 31.0792 19.6771 30.4864 19.2663 30.0108ZM84.5312 18.3199H79.7051C77.6653 18.3199 76.7044 19.2749 76.1436 21.2399C76.0435 21.5875 75.9542 21.9351 75.9114 22.2754C75.7613 23.5561 76.4186 24.3318 77.6725 24.3318H78.2762L74.2503 26.9115C74.0681 27.0249 74.1503 27.314 74.361 27.314H76.7544C76.8044 27.314 76.8509 27.2957 76.8866 27.2664L80.9875 24.4782C81.2376 24.3062 81.4019 24.1415 81.5126 23.9988C81.802 23.622 82.0056 22.9304 81.4269 22.6962C81.2233 22.6157 80.984 22.6084 80.8804 22.6084H78.9371C78.5012 22.6084 78.2619 22.451 78.3119 22.0193C78.3298 21.8509 78.3834 21.6351 78.4655 21.3496C78.7299 20.4495 79.0406 20.0397 79.9909 20.0397H83.088C83.3309 20.0397 83.4809 20.058 83.4059 20.3361L81.4376 27.0286C81.3948 27.1676 81.4984 27.3103 81.6377 27.3103H83.4952C83.5988 27.3103 83.681 27.2335 83.7024 27.1347L85.8172 19.9409C86.1351 18.8724 85.5564 18.3199 84.5312 18.3199ZM59.9363 32.6307H54.2564C54.3386 32.4441 54.435 32.2538 54.5565 32.0745C54.7387 31.8037 54.9744 31.5476 55.2924 31.3317C55.5353 31.167 55.8425 31.0207 56.2104 30.9219C56.5355 30.8341 56.907 30.7792 57.325 30.7792H60.8151C60.9044 30.7792 60.9865 30.7206 61.0151 30.6255L61.3902 29.3558C61.4009 29.3302 61.4045 29.3046 61.4045 29.2753C61.4045 29.1545 61.308 29.0557 61.1937 29.0557H57.1106C56.7784 29.0557 56.264 29.0704 55.6782 29.1948C55.0888 29.3155 54.4279 29.5461 53.8027 29.9705L53.792 29.9778C53.1419 30.4279 52.6882 30.9951 52.3524 31.6025C52.0238 32.1989 51.8094 32.8319 51.6344 33.4284C51.3772 34.2919 51.22 35.0274 51.2307 35.6494C51.2379 36.3044 51.4272 36.835 51.8594 37.2521L51.863 37.2558C52.2274 37.6034 52.7061 37.8083 53.199 37.9254C53.6777 38.0388 54.1671 38.0718 54.5672 38.0718H58.7896C58.8789 38.0718 58.9646 38.0096 58.9932 37.9181L59.3683 36.6484C59.379 36.6228 59.3826 36.5972 59.3826 36.5679C59.3826 36.4471 59.2861 36.3483 59.1718 36.3483H55.7246C55.2817 36.3483 54.9352 36.3154 54.6565 36.2459C54.3922 36.1837 54.1885 36.0885 54.0242 35.9715C53.7706 35.7885 53.642 35.5763 53.6098 35.3092C53.5741 35.053 53.6206 34.7383 53.717 34.3614H59.5541C59.6434 34.3614 59.7291 34.3029 59.7541 34.2078L60.1328 32.938C60.1435 32.9124 60.147 32.8868 60.147 32.8575C60.147 32.7295 60.0506 32.6307 59.9363 32.6307ZM49.6911 29.0521H43.479C43.2432 29.0521 43.0431 29.0557 42.8324 29.0996C42.4073 29.1875 41.9215 29.4912 41.675 29.8681C41.5678 30.0327 41.5071 30.1974 41.4571 30.3694L39.2851 37.779C39.253 37.8925 39.3137 38.0169 39.4245 38.0498C39.4459 38.0571 39.4638 38.0571 39.4852 38.0571H41.3428C41.4464 38.0571 41.5321 37.9803 41.5499 37.8815L43.5325 31.1304C43.5504 31.0646 43.579 30.9951 43.6147 30.9365C43.7076 30.7828 43.8433 30.7719 44.0184 30.7719C45.5116 30.7865 46.8619 30.7719 48.3551 30.7719C48.6301 30.7719 48.6337 30.7572 48.573 30.9804C47.9193 33.2491 47.2441 35.5104 46.5797 37.7754C46.5475 37.8888 46.6082 38.0132 46.719 38.0462C46.7404 38.0535 46.7619 38.0535 46.7797 38.0535H48.6373C48.7409 38.0535 48.8266 37.9766 48.8445 37.8778L51.0128 30.4901C51.0628 30.3218 51.095 30.1461 51.0843 29.9705C51.0736 29.7802 51.0128 29.5936 50.8664 29.4253C50.5627 29.074 50.1233 29.0521 49.6911 29.0521ZM25.7963 34.109L25.7928 34.1053C25.5391 33.8455 25.2784 33.6443 25.6106 33.3479C25.7213 33.2491 25.8821 33.132 26.075 33.0039L31.1976 29.4582C31.294 29.3924 31.3226 29.257 31.2619 29.1545C31.2083 29.0704 31.1369 29.0557 31.0511 29.0557H28.7899C28.7435 29.0557 28.697 29.074 28.6613 29.1033L24.1317 32.3014C23.7566 32.5721 23.3637 32.9198 23.2279 33.3881C23.0814 33.8821 23.2993 34.3541 23.628 34.7054L26.5858 37.9986C26.6573 38.0754 26.7394 38.0645 26.8287 38.0645H29.0864C29.2829 38.0645 29.3722 37.8047 29.2221 37.6766L25.7963 34.109ZM23.9888 29.0521H22.1741C22.0705 29.0521 21.9883 29.1289 21.9669 29.2277L19.4592 37.7754C19.427 37.8888 19.4878 38.0132 19.5985 38.0462C19.6342 38.0571 19.6771 38.0571 19.7128 38.0571H21.5168C21.6204 38.0571 21.7061 37.9803 21.724 37.8815L24.2317 29.3338C24.2889 29.1509 24.1424 29.0521 23.9888 29.0521ZM38.067 36.3483C38.0384 36.3374 38.0134 36.3374 37.9848 36.3374H34.5126C33.9446 36.3374 33.4552 36.3044 33.0837 36.191C32.5086 36.0154 32.2764 35.6897 32.2943 35.0786C32.3014 34.7713 32.3729 34.3395 32.5622 33.7174C32.7515 33.099 32.9551 32.6343 33.1623 32.2794C33.5838 31.5512 34.1375 31.0792 34.9627 30.8963C35.4164 30.7938 35.9129 30.7792 36.4524 30.7792H39.6888C39.7924 30.7792 39.8781 30.706 39.8996 30.6035L40.2889 29.3375C40.3425 29.1582 40.2068 29.0557 40.0532 29.0557H35.9808C35.62 29.0557 35.0377 29.074 34.3805 29.2241C32.8801 29.5607 31.7406 30.373 30.9832 31.7708C30.6653 32.3599 30.4367 32.9929 30.2438 33.6186C30.0938 34.1016 29.9366 34.6798 29.8973 35.2616C29.8044 36.6374 30.4438 37.5375 31.7191 37.8888C32.2514 38.0352 32.8158 38.0645 33.3016 38.0645H37.6098C37.7134 38.0645 37.7991 37.9876 37.8205 37.8888L38.2099 36.6228C38.2385 36.5057 38.1777 36.3813 38.067 36.3483Z" fill="white"/>
</svg>
