<svg width="147" height="38" viewBox="0 0 147 38" fill="none" xmlns="http://www.w3.org/2000/svg">
<path fill-rule="evenodd" clip-rule="evenodd" d="M33.7541 34L40.0699 4H11.2453L4.9295 34H33.7541ZM35.3769 38C35.3915 38 35.4061 37.9998 35.4206 37.9995C35.4281 37.9997 35.4355 37.9998 35.443 37.9999C35.4502 38 35.4575 38 35.4647 38H140.798C141.744 38 142.56 37.3375 142.755 36.412L146.545 18.412C146.806 17.1689 145.858 16 144.588 16H128.684L131.545 2.41202C131.806 1.16892 130.858 0 129.588 0H43.2542C43.1322 0 43.0124 0.01102 42.8957 0.0322043C42.779 0.0110711 42.6585 0 42.5348 0H9.6225C8.67673 0 7.86024 0.662491 7.6654 1.58798L0.507509 35.588C0.245805 36.8311 1.19426 38 2.46461 38H35.3769Z" fill="#FF6F00"/>
<path d="M28.8195 28L29.4635 25.06H23.0235C19.3555 25.06 17.7875 24.164 17.7875 21.336C17.7875 20.468 17.9275 19.432 18.2075 18.2C19.3275 12.88 21.1755 11.34 25.9355 11.34H32.0675L32.6835 8.40002H24.8155C17.8155 8.40002 15.5755 12.04 14.3995 17.92C14.1475 19.208 13.9795 20.44 13.9795 21.588C13.9795 25.34 15.7715 28 20.9235 28H28.8195Z" fill="#FF6F00"/>
<path d="M51.9247 16C55.5997 16 56.8747 14.65 57.5797 11.35C57.7147 10.675 57.7597 10.03 57.7597 9.43C57.7597 7.105 56.8147 5.5 54.0097 5.5H49.8247L49.3747 7.6H52.3747C54.1597 7.6 54.9997 7.96 54.9997 9.205C54.9997 9.34 54.9847 9.505 54.9697 9.67H49.1197L48.6997 11.65H54.5797C54.0997 13.435 53.2747 13.9 51.0397 13.9H47.9047L47.4697 16H51.9247Z" fill="white"/>
<path d="M68.6039 16L65.0489 11.635C64.8389 11.365 64.7039 11.155 64.7039 10.9C64.7039 10.48 64.9589 10.255 65.2889 9.97L70.2989 5.5H67.0589L62.8139 9.295C62.2739 9.79 62.0939 10.495 62.0939 11.095C62.0939 11.41 62.1989 11.695 62.4239 11.995L65.4389 16H68.6039ZM57.7889 16H60.4889L62.7239 5.5H60.0239L57.7889 16Z" fill="white"/>
<path d="M77.0797 16L77.5297 13.9H74.3797C72.5347 13.9 71.7697 13.54 71.7697 12.205C71.7697 11.815 71.8447 11.335 71.9647 10.75C72.5047 8.2 73.3147 7.6 75.7147 7.6H78.7147L79.1647 5.5H74.8297C71.1547 5.5 69.9097 7.15 69.2197 10.45C69.0697 11.14 69.0097 11.785 69.0097 12.37C69.0097 14.59 70.1047 16 72.8947 16H77.0797Z" fill="white"/>
<path d="M80.9528 16L82.5878 8.305C82.7078 7.78 82.9178 7.6 83.4428 7.6H86.5628C86.9828 7.6 87.1628 7.72 87.1628 8.02C87.1628 8.095 87.1478 8.2 87.1178 8.305L85.4828 16H88.1828L90.0728 7.12C90.1028 6.97 90.1178 6.82 90.1178 6.685C90.1178 5.95 89.6528 5.5 88.8278 5.5H82.0778C80.9528 5.5 80.3828 5.995 80.1428 7.12L78.2528 16H80.9528Z" fill="white"/>
<path d="M100.88 5.5H93.6647C92.5397 5.5 91.9697 5.995 91.7297 7.12L90.1847 14.395C90.1547 14.545 90.1397 14.695 90.1397 14.83C90.1397 15.55 90.6047 16 91.4297 16H98.7047L99.1397 13.96H93.6797C93.2597 13.96 93.0947 13.855 93.0947 13.54C93.0947 13.465 93.1097 13.36 93.1247 13.255L93.4697 11.65H99.4397L99.8597 9.7H93.8897L94.1897 8.245C94.3097 7.72 94.5197 7.54 95.0447 7.54H100.445L100.88 5.5Z" fill="white"/>
<path d="M102.75 16L103.47 12.64H107.94C110.415 12.64 111.165 11.47 111.525 9.355C111.6 8.92 111.63 8.47 111.63 8.185C111.63 6.61 110.925 5.5 109.005 5.5H103.875C102.75 5.5 102.18 5.995 101.94 7.12L100.05 16H102.75ZM103.92 10.54L104.385 8.305C104.505 7.78 104.715 7.6 105.24 7.6H107.61C108.495 7.6 108.855 7.855 108.855 8.47C108.855 8.635 108.825 8.92 108.765 9.205C108.54 10.24 108.12 10.54 106.995 10.54H103.92Z" fill="white"/>
<path d="M117.104 16L118.889 7.6H122.789L123.239 5.5H112.739L112.289 7.6H116.189L114.404 16H117.104Z" fill="white"/>
<path d="M51.6498 21.38C47.5248 21.38 46.0248 22.085 45.0948 26.45C44.9148 27.305 44.8848 27.905 44.8848 28.535C44.8848 31.13 46.3548 32.12 49.6698 32.12C53.7948 32.12 55.2948 31.43 56.2248 27.05C56.4048 26.195 56.4348 25.595 56.4348 24.965C56.4348 22.37 54.9648 21.38 51.6498 21.38ZM47.8398 26.75C48.3648 24.275 49.1598 23.48 51.3498 23.48C52.9998 23.48 53.6748 23.945 53.6748 25.235C53.6748 25.655 53.6148 26.15 53.4798 26.75C52.9548 29.225 52.1448 30.02 49.9548 30.02C48.3048 30.02 47.6448 29.57 47.6448 28.28C47.6448 27.86 47.7048 27.365 47.8398 26.75Z" fill="white"/>
<path d="M57.3336 34.025L57.6186 32.705C57.7236 32.21 57.9186 32 58.3536 32H66.3186C66.6636 32 66.7986 32.12 66.7986 32.405C66.7986 32.495 66.7986 32.585 66.7686 32.705L66.4836 34.025H69.0936L69.6336 31.52C69.6636 31.37 69.6786 31.22 69.6786 31.085C69.6786 30.365 69.2136 29.9 68.3886 29.9H68.1036L66.4086 22.535C66.2586 21.86 65.9586 21.38 64.6236 21.38C63.2886 21.38 62.7636 21.845 62.3136 22.535L57.4836 29.9H57.1986C56.0736 29.9 55.5186 30.395 55.2786 31.52L54.7386 34.025H57.3336ZM63.9786 24.155C64.0686 24.02 64.1586 23.855 64.2786 23.855C64.3836 23.855 64.3836 24.02 64.4136 24.155L65.6436 29.9H60.3036L63.9786 24.155Z" fill="white"/>
<path d="M77.0648 21.38C72.9398 21.38 71.4398 22.085 70.5098 26.45C70.3298 27.305 70.2998 27.905 70.2998 28.535C70.2998 31.13 71.7698 32.12 75.0848 32.12C79.2098 32.12 80.7098 31.43 81.6398 27.05C81.8198 26.195 81.8498 25.595 81.8498 24.965C81.8498 22.37 80.3798 21.38 77.0648 21.38ZM73.2548 26.75C73.7798 24.275 74.5748 23.48 76.7648 23.48C78.4148 23.48 79.0898 23.945 79.0898 25.235C79.0898 25.655 79.0298 26.15 78.8948 26.75C78.3698 29.225 77.5598 30.02 75.3698 30.02C73.7198 30.02 73.0598 29.57 73.0598 28.28C73.0598 27.86 73.1198 27.365 73.2548 26.75Z" fill="white"/>
<path d="M82.2316 30.395C82.2016 30.545 82.1866 30.695 82.1866 30.83C82.1866 31.55 82.6516 32 83.4766 32H89.1916C91.5016 32 92.2966 31.055 92.5666 28.985C92.6116 28.64 92.6266 28.43 92.6266 28.13C92.6266 26.57 91.9666 25.655 90.2266 25.655H85.9366L86.2366 24.29C86.3416 23.795 86.4466 23.6 87.0616 23.6H93.0616L93.5116 21.5H85.6966C84.9166 21.5 84.0766 21.725 83.7766 23.135L82.2316 30.395ZM88.7116 27.605C89.5066 27.605 89.8666 27.77 89.8666 28.325C89.8666 28.445 89.8366 28.625 89.8066 28.79C89.5816 29.885 89.0566 29.9 87.8116 29.9H85.7416C85.3216 29.9 85.1416 29.795 85.1416 29.495C85.1416 29.42 85.1566 29.315 85.1866 29.21L85.5316 27.605H88.7116Z" fill="white"/>
<path d="M95.9245 32L96.6445 28.64H101.114C103.589 28.64 104.339 27.47 104.699 25.355C104.774 24.92 104.804 24.47 104.804 24.185C104.804 22.61 104.099 21.5 102.179 21.5H97.0495C95.9245 21.5 95.3545 21.995 95.1145 23.12L93.2245 32H95.9245ZM97.0945 26.54L97.5595 24.305C97.6795 23.78 97.8895 23.6 98.4145 23.6H100.784C101.669 23.6 102.029 23.855 102.029 24.47C102.029 24.635 101.999 24.92 101.939 25.205C101.714 26.24 101.294 26.54 100.169 26.54H97.0945Z" fill="white"/>
<path d="M116.204 23.12C116.234 22.97 116.249 22.82 116.249 22.685C116.249 21.95 115.784 21.5 114.959 21.5H109.334C107.009 21.5 106.259 22.505 105.794 24.68C105.704 25.1 105.659 25.64 105.659 26.03C105.659 27.59 106.364 28.595 107.714 28.595H108.119L108.089 28.67L104.099 32H107.549L111.074 28.775C111.374 28.505 111.524 28.265 111.614 27.8L111.659 27.575C111.674 27.485 111.689 27.395 111.689 27.32C111.689 26.705 111.059 26.63 110.144 26.63H109.424C108.704 26.63 108.449 26.36 108.449 25.79C108.449 25.58 108.479 25.325 108.539 25.04C108.764 23.99 109.094 23.6 110.174 23.6H112.679C113.099 23.6 113.279 23.705 113.279 24.02C113.279 24.095 113.279 24.2 113.249 24.305L111.614 32H114.314L116.204 23.12Z" fill="white"/>
<path d="M126.999 21.5H119.784C118.659 21.5 118.089 21.995 117.849 23.12L116.304 30.395C116.274 30.545 116.259 30.695 116.259 30.83C116.259 31.55 116.724 32 117.549 32H124.824L125.259 29.96H119.799C119.379 29.96 119.214 29.855 119.214 29.54C119.214 29.465 119.229 29.36 119.244 29.255L119.589 27.65H125.559L125.979 25.7H120.009L120.309 24.245C120.429 23.72 120.639 23.54 121.164 23.54H126.564L126.999 21.5Z" fill="white"/>
<path d="M132.09 32L133.875 23.6H137.775L138.225 21.5H127.725L127.275 23.6H131.175L129.39 32H132.09Z" fill="white"/>
</svg>
