<svg width="50" height="50" viewBox="0 0 50 50" fill="none" xmlns="http://www.w3.org/2000/svg">
<path fill-rule="evenodd" clip-rule="evenodd" d="M25.5 7C15.299 7 7 15.2668 7 25.4277C7 30.6712 9.30008 35.7086 13.3105 39.2483L13.618 39.5195H37.382L37.6895 39.2483C41.6999 35.7086 44 30.6712 44 25.4277C44 15.2668 35.701 7 25.5 7ZM14.4451 37.3516C11.0864 34.2405 9.16797 29.9175 9.16797 25.4277C9.16797 16.462 16.4945 9.16797 25.5 9.16797C34.5055 9.16797 41.832 16.462 41.832 25.4277C41.832 29.9175 39.9136 34.2405 36.5549 37.3516H14.4451ZM25.5 11.3359C17.7298 11.3359 11.4082 17.6575 11.4082 25.4277V26.5117H17.9121V25.4277C17.9121 21.7495 20.5427 18.6749 24.0214 17.9849L21.7811 25.8263C20.735 26.8152 20.0801 28.2139 20.0801 29.7637C20.0801 32.7523 22.5114 35.1836 25.5 35.1836C28.4886 35.1836 30.9199 32.7523 30.9199 29.7637C30.9199 28.2139 30.265 26.8152 29.2189 25.8266L26.9786 17.9849C30.4573 18.6749 33.0879 21.7495 33.0879 25.4277V26.5117H39.5918V25.4277C39.5918 17.6575 33.2702 11.3359 25.5 11.3359ZM31.1836 14.9481L29.9751 16.7609C28.634 16.0654 27.1121 15.6719 25.5 15.6719C23.8879 15.6719 22.366 16.0654 21.0249 16.7609L19.8164 14.9481C21.507 14.0275 23.4433 13.5039 25.5 13.5039C27.5567 13.5039 29.493 14.0275 31.1836 14.9481ZM15.804 24.3438H13.625C13.9237 21.0435 15.5731 18.1275 18.0143 16.1532L19.2228 17.966C17.3574 19.5375 16.0871 21.7938 15.804 24.3438ZM25.5 33.0156C23.7069 33.0156 22.248 31.5568 22.248 29.7637C22.248 27.9706 23.7069 26.5117 25.5 26.5117C27.2931 26.5117 28.752 27.9706 28.752 29.7637C28.752 31.5568 27.2931 33.0156 25.5 33.0156ZM25.5 24.3438C25.1333 24.3438 24.7754 24.3807 24.429 24.4505L25.5 20.7017L26.571 24.4505C26.2246 24.3807 25.8667 24.3438 25.5 24.3438ZM35.196 24.3438C34.9129 21.7938 33.6423 19.5375 31.7772 17.966L32.9857 16.1532C35.4269 18.1275 37.0763 21.0435 37.375 24.3438H35.196ZM13.5762 30.8477H17.9121V33.0156H13.5762V30.8477ZM37.4238 30.8477H33.0879V33.0156H37.4238V30.8477ZM26.584 28.6797H24.416V30.8477H26.584V28.6797Z" fill="#FF6F00"/>
</svg>
