<svg width="50" height="50" viewBox="0 0 50 50" fill="none" xmlns="http://www.w3.org/2000/svg">
<path d="M31.5649 16.9219C31.9398 16.4223 32.2425 15.8601 32.4546 15.2484C32.7116 14.507 32.592 13.6807 32.1348 13.0383C31.672 12.3882 30.92 12 30.1231 12H22.7382C21.7521 12 20.8252 12.384 20.128 13.0812L16.6477 16.5615C16.4153 16.7939 16.1063 16.9219 15.7776 16.9219H4V34.1484H17.4182C17.7468 34.1484 18.0558 34.2764 18.2882 34.5089L20.3799 36.6006C21.5542 37.775 23.1179 38.4049 24.7225 38.4048C25.3334 38.4048 25.9504 38.3135 26.5539 38.1261L36.8595 35.256C37.5493 35.0639 38.1478 34.6724 38.5951 34.1486H46V16.9219H31.5649ZM10.5625 31.6875H6.46094V19.3828H10.5625V31.6875ZM36.9766 31.9379C36.9716 31.9986 36.9628 32.0508 36.9541 32.0899C36.9123 32.2775 36.755 32.7304 36.1993 32.8852L25.8752 35.7604L25.8366 35.7719C24.52 36.1855 23.0959 35.8362 22.12 34.8604L20.0283 32.7687C19.3311 32.0714 18.4041 31.6875 17.4181 31.6875H13.0234V19.3828H15.7776C16.7636 19.3828 17.6905 18.9988 18.3877 18.3016L21.868 14.8213C22.1004 14.5889 22.4095 14.4609 22.7381 14.4609L30.123 14.4605C29.6038 15.9336 28.2068 16.9219 26.6406 16.9219H25.5971C24.611 16.9219 23.6841 17.3059 22.9869 18.003L17.7649 23.225C17.2014 23.7885 16.9441 24.5947 17.0766 25.3817C17.2075 26.1592 17.7073 26.828 18.4131 27.1706C20.7678 28.3131 23.5948 27.8359 25.4432 25.9876L27.3925 24.0586H28.4811L36.6087 31.0494C36.8736 31.2773 36.9592 31.5419 36.9766 31.757V31.9379ZM36.9766 28.1198L29.3938 21.5977H26.3808L23.7078 24.2428C22.6003 25.3502 20.9144 25.639 19.5051 24.9651L24.7271 19.7432C24.9595 19.5108 25.2685 19.3828 25.5971 19.3828H26.6406H31.5384H36.9766V28.1198ZM43.5391 31.6875H39.4375V19.3828H43.5391V31.6875Z" fill="#FF6F00"/>
</svg>
