<svg width="50" height="50" viewBox="0 0 50 50" fill="none" xmlns="http://www.w3.org/2000/svg">
<path fill-rule="evenodd" clip-rule="evenodd" d="M34.0625 12.0391C34.0625 12.0605 34.0273 12.0781 33.9844 12.0781C33.9414 12.0781 33.9062 12.0957 33.9062 12.1172C33.9062 12.1387 33.8795 12.1562 33.8468 12.1562C33.7445 12.1562 33.3594 12.5723 33.3594 12.6827C33.3594 12.7369 33.3418 12.7812 33.3203 12.7812C33.2988 12.7812 33.2812 12.8691 33.2812 12.9766C33.2812 13.084 33.2637 13.1719 33.2422 13.1719C33.2207 13.1719 33.2031 13.2422 33.2031 13.3281C33.2031 13.4757 33.1966 13.4844 33.0859 13.4844C33.0215 13.4844 32.9688 13.502 32.9688 13.5234C32.9688 13.5452 32.8646 13.5625 32.7344 13.5625C32.6042 13.5625 32.5 13.5798 32.5 13.6016C32.5 13.6233 32.3958 13.6406 32.2656 13.6406C32.1354 13.6406 32.0312 13.658 32.0312 13.6797C32.0312 13.7014 31.9271 13.7188 31.7969 13.7188C31.6667 13.7188 31.5625 13.7361 31.5625 13.7578C31.5625 13.7795 31.4583 13.7969 31.3281 13.7969C31.1979 13.7969 31.0938 13.8142 31.0938 13.8359C31.0938 13.8577 30.9896 13.875 30.8594 13.875C30.7292 13.875 30.625 13.8923 30.625 13.9141C30.625 13.9358 30.5208 13.9531 30.3906 13.9531C30.2604 13.9531 30.1562 13.9705 30.1562 13.9922C30.1562 14.0139 30.0521 14.0312 29.9219 14.0312C29.7917 14.0312 29.6875 14.0486 29.6875 14.0703C29.6875 14.092 29.5833 14.1094 29.4531 14.1094C29.3229 14.1094 29.2188 14.1267 29.2188 14.1484C29.2188 14.1702 29.1146 14.1875 28.9844 14.1875C28.8542 14.1875 28.75 14.2048 28.75 14.2266C28.75 14.2483 28.6458 14.2656 28.5156 14.2656C28.3854 14.2656 28.2812 14.283 28.2812 14.3047C28.2812 14.3264 28.1771 14.3438 28.0469 14.3438C27.9167 14.3438 27.8125 14.3611 27.8125 14.3828C27.8125 14.4045 27.7083 14.4219 27.5781 14.4219C27.4479 14.4219 27.3438 14.4392 27.3438 14.4609C27.3438 14.4827 27.2396 14.5 27.1094 14.5C26.9792 14.5 26.875 14.5173 26.875 14.5391C26.875 14.5608 26.7708 14.5781 26.6406 14.5781C26.5104 14.5781 26.4062 14.5955 26.4062 14.6172C26.4062 14.6389 26.3021 14.6562 26.1719 14.6562C26.0417 14.6562 25.9375 14.6736 25.9375 14.6953C25.9375 14.717 25.8333 14.7344 25.7031 14.7344C25.5729 14.7344 25.4688 14.7517 25.4688 14.7734C25.4688 14.7952 25.3646 14.8125 25.2344 14.8125C25.1042 14.8125 25 14.8298 25 14.8516C25 14.8733 24.8958 14.8906 24.7656 14.8906C24.6354 14.8906 24.5312 14.908 24.5312 14.9297C24.5312 14.9514 24.4271 14.9688 24.2969 14.9688C24.1667 14.9688 24.0625 14.9861 24.0625 15.0078C24.0625 15.0295 23.9583 15.0469 23.8281 15.0469C23.6979 15.0469 23.5938 15.0642 23.5938 15.0859C23.5938 15.1077 23.4896 15.125 23.3594 15.125C23.2292 15.125 23.125 15.1423 23.125 15.1641C23.125 15.1858 23.0208 15.2031 22.8906 15.2031C22.7604 15.2031 22.6562 15.2205 22.6562 15.2422C22.6562 15.2639 22.5521 15.2812 22.4219 15.2812C22.2917 15.2812 22.1875 15.2986 22.1875 15.3203C22.1875 15.342 22.0833 15.3594 21.9531 15.3594C21.8229 15.3594 21.7188 15.3767 21.7188 15.3984C21.7188 15.4202 21.6146 15.4375 21.4844 15.4375C21.3542 15.4375 21.25 15.4548 21.25 15.4766C21.25 15.4983 21.1458 15.5156 21.0156 15.5156C20.8854 15.5156 20.7812 15.533 20.7812 15.5547C20.7812 15.5764 20.6771 15.5938 20.5469 15.5938C20.4167 15.5938 20.3125 15.6111 20.3125 15.6328C20.3125 15.6545 20.2083 15.6719 20.0781 15.6719C19.9479 15.6719 19.8438 15.6892 19.8438 15.7109C19.8438 15.7327 19.7396 15.75 19.6094 15.75C19.4792 15.75 19.375 15.7673 19.375 15.7891C19.375 15.8108 19.2708 15.8281 19.1406 15.8281C19.0104 15.8281 18.9062 15.8455 18.9062 15.8672C18.9062 15.8889 18.8021 15.9062 18.6719 15.9062C18.5417 15.9062 18.4375 15.9236 18.4375 15.9453C18.4375 15.967 18.3333 15.9844 18.2031 15.9844C18.0729 15.9844 17.9688 16.0017 17.9688 16.0234C17.9688 16.0452 17.8646 16.0625 17.7344 16.0625C17.6042 16.0625 17.5 16.0798 17.5 16.1016C17.5 16.1233 17.3958 16.1406 17.2656 16.1406C17.1354 16.1406 17.0312 16.158 17.0312 16.1797C17.0312 16.2014 16.9271 16.2188 16.7969 16.2188C16.6667 16.2188 16.5625 16.2361 16.5625 16.2578C16.5625 16.2795 16.4583 16.2969 16.3281 16.2969C16.1979 16.2969 16.0938 16.3142 16.0938 16.3359C16.0938 16.3577 15.9896 16.375 15.8594 16.375C15.7292 16.375 15.625 16.3923 15.625 16.4141C15.625 16.4358 15.5208 16.4531 15.3906 16.4531C15.2604 16.4531 15.1562 16.4705 15.1562 16.4922C15.1562 16.5139 15.0521 16.5312 14.9219 16.5312C14.7917 16.5312 14.6875 16.5486 14.6875 16.5703C14.6875 16.592 14.5833 16.6094 14.4531 16.6094C14.3229 16.6094 14.2188 16.6267 14.2188 16.6484C14.2188 16.6702 14.1146 16.6875 13.9844 16.6875C13.8542 16.6875 13.75 16.7048 13.75 16.7266C13.75 16.7483 13.6458 16.7656 13.5156 16.7656C13.3854 16.7656 13.2812 16.783 13.2812 16.8047C13.2812 16.8264 13.1771 16.8438 13.0469 16.8438C12.9167 16.8438 12.8125 16.8611 12.8125 16.8828C12.8125 16.9045 12.7083 16.9219 12.5781 16.9219C12.4479 16.9219 12.3438 16.9392 12.3438 16.9609C12.3438 16.9827 12.2396 17 12.1094 17C11.9792 17 11.875 17.0173 11.875 17.0391C11.875 17.0608 11.7708 17.0781 11.6406 17.0781C11.5104 17.0781 11.4062 17.0955 11.4062 17.1172C11.4062 17.1389 11.3021 17.1562 11.1719 17.1562C11.0417 17.1562 10.9375 17.1736 10.9375 17.1953C10.9375 17.217 10.8333 17.2344 10.7031 17.2344C10.5729 17.2344 10.4688 17.2517 10.4688 17.2734C10.4688 17.2952 10.3646 17.3125 10.2344 17.3125C10.1042 17.3125 10 17.3298 10 17.3516C10 17.3733 9.89582 17.3906 9.76562 17.3906C9.63543 17.3906 9.53125 17.408 9.53125 17.4297C9.53125 17.4514 9.42707 17.4688 9.29688 17.4688C9.16668 17.4688 9.0625 17.4861 9.0625 17.5078C9.0625 17.5295 8.95832 17.5469 8.82812 17.5469C8.69793 17.5469 8.59375 17.5642 8.59375 17.5859C8.59375 17.6077 8.48957 17.625 8.35938 17.625C8.22918 17.625 8.125 17.6423 8.125 17.6641C8.125 17.6858 8.02082 17.7031 7.89062 17.7031C7.76043 17.7031 7.65625 17.7205 7.65625 17.7422C7.65625 17.7637 7.58594 17.7812 7.5 17.7812H7.34375V17.4688C7.34375 17.2864 7.32746 17.1562 7.30469 17.1562C7.2832 17.1562 7.26562 17.1074 7.26562 17.0477C7.26562 16.9839 7.23336 16.9159 7.1875 16.8828C7.14453 16.8518 7.10938 16.8034 7.10938 16.7752C7.10938 16.704 6.85176 16.4531 6.77863 16.4531C6.7457 16.4531 6.71875 16.4355 6.71875 16.4141C6.71875 16.3926 6.66602 16.375 6.60156 16.375C6.53711 16.375 6.48438 16.3574 6.48438 16.3359C6.48438 16.3132 6.35418 16.2969 6.17188 16.2969C5.98957 16.2969 5.85938 16.3132 5.85938 16.3359C5.85938 16.3574 5.80664 16.375 5.74219 16.375C5.67773 16.375 5.625 16.3926 5.625 16.4141C5.625 16.4355 5.59805 16.4531 5.56512 16.4531C5.49199 16.4531 5.23438 16.704 5.23438 16.7752C5.23438 16.8034 5.19922 16.8518 5.15625 16.8828C5.11039 16.9159 5.07812 16.9839 5.07812 17.0477C5.07812 17.1074 5.06055 17.1562 5.03906 17.1562C5.01316 17.1562 5 19.4219 5 23.875C5 28.3281 5.01316 30.5938 5.03906 30.5938C5.06055 30.5938 5.07812 30.6465 5.07812 30.7109C5.07812 30.7754 5.0957 30.8281 5.11719 30.8281C5.13867 30.8281 5.15625 30.855 5.15625 30.8877C5.15625 30.9653 5.48785 31.2969 5.56539 31.2969C5.59816 31.2969 5.625 31.3145 5.625 31.3359C5.625 31.3574 5.66016 31.375 5.70312 31.375C5.74609 31.375 5.78125 31.3926 5.78125 31.4141C5.78125 31.4375 5.9375 31.4531 6.17188 31.4531C6.40625 31.4531 6.5625 31.4375 6.5625 31.4141C6.5625 31.3926 6.59766 31.375 6.64062 31.375C6.68359 31.375 6.71875 31.3574 6.71875 31.3359C6.71875 31.3145 6.74559 31.2969 6.77836 31.2969C6.8559 31.2969 7.1875 30.9653 7.1875 30.8877C7.1875 30.855 7.20508 30.8281 7.22656 30.8281C7.24805 30.8281 7.26562 30.7754 7.26562 30.7109C7.26562 30.6465 7.2832 30.5938 7.30469 30.5938C7.32746 30.5938 7.34375 30.4636 7.34375 30.2812V29.9688H7.46094C7.52539 29.9688 7.57812 29.9863 7.57812 30.0078C7.57812 30.0295 7.6823 30.0469 7.8125 30.0469C7.9427 30.0469 8.04688 30.0642 8.04688 30.0859C8.04688 30.1077 8.15105 30.125 8.28125 30.125C8.41145 30.125 8.51562 30.1423 8.51562 30.1641C8.51562 30.1858 8.6198 30.2031 8.75 30.2031C8.8802 30.2031 8.98438 30.2205 8.98438 30.2422C8.98438 30.2639 9.08855 30.2812 9.21875 30.2812C9.34895 30.2812 9.45312 30.2986 9.45312 30.3203C9.45312 30.342 9.5573 30.3594 9.6875 30.3594C9.8177 30.3594 9.92188 30.3767 9.92188 30.3984C9.92188 30.4202 10.0261 30.4375 10.1562 30.4375C10.2864 30.4375 10.3906 30.4548 10.3906 30.4766C10.3906 30.4983 10.4948 30.5156 10.625 30.5156C10.7552 30.5156 10.8594 30.533 10.8594 30.5547C10.8594 30.5764 10.9636 30.5938 11.0938 30.5938C11.2239 30.5938 11.3281 30.6111 11.3281 30.6328C11.3281 30.6545 11.4323 30.6719 11.5625 30.6719C11.6927 30.6719 11.7969 30.6892 11.7969 30.7109C11.7969 30.7324 11.8496 30.75 11.9141 30.75H12.0312V32.8984C12.0312 34.3047 12.0447 35.0469 12.0703 35.0469C12.0926 35.0469 12.1094 35.1641 12.1094 35.3203C12.1094 35.4766 12.1261 35.5938 12.1484 35.5938C12.1699 35.5938 12.1875 35.6641 12.1875 35.75C12.1875 35.8359 12.2051 35.9062 12.2266 35.9062C12.248 35.9062 12.2656 35.959 12.2656 36.0234C12.2656 36.0879 12.2832 36.1406 12.3047 36.1406C12.3262 36.1406 12.3438 36.1758 12.3438 36.2188C12.3438 36.2617 12.3613 36.2969 12.3828 36.2969C12.4043 36.2969 12.4219 36.332 12.4219 36.375C12.4219 36.418 12.4395 36.4531 12.4609 36.4531C12.4824 36.4531 12.5 36.4883 12.5 36.5312C12.5 36.5742 12.5176 36.6094 12.5391 36.6094C12.5605 36.6094 12.5781 36.6407 12.5781 36.6789C12.5781 36.7171 12.6133 36.7737 12.6562 36.8047C12.6992 36.8357 12.7344 36.8837 12.7344 36.9114C12.7344 36.9772 13.5384 37.7812 13.6042 37.7812C13.632 37.7812 13.68 37.8164 13.7109 37.8594C13.7419 37.9023 13.7985 37.9375 13.8368 37.9375C13.875 37.9375 13.9062 37.9551 13.9062 37.9766C13.9062 37.998 13.9414 38.0156 13.9844 38.0156C14.0273 38.0156 14.0625 38.0332 14.0625 38.0547C14.0625 38.0762 14.0977 38.0938 14.1406 38.0938C14.1836 38.0938 14.2188 38.1113 14.2188 38.1328C14.2188 38.1543 14.2715 38.1719 14.3359 38.1719C14.4004 38.1719 14.4531 38.1895 14.4531 38.2109C14.4531 38.2324 14.5059 38.25 14.5703 38.25C14.6348 38.25 14.6875 38.2676 14.6875 38.2891C14.6875 38.3105 14.7754 38.3281 14.8828 38.3281C14.9902 38.3281 15.0781 38.3457 15.0781 38.3672C15.0781 38.393 16.4583 38.4062 19.1406 38.4062C21.8229 38.4062 23.2031 38.393 23.2031 38.3672C23.2031 38.3457 23.2734 38.3281 23.3594 38.3281C23.4453 38.3281 23.5156 38.3105 23.5156 38.2891C23.5156 38.2676 23.5859 38.25 23.6719 38.25C23.7578 38.25 23.8281 38.2324 23.8281 38.2109C23.8281 38.1895 23.8633 38.1719 23.9062 38.1719C23.9492 38.1719 23.9844 38.1543 23.9844 38.1328C23.9844 38.1113 24.0195 38.0938 24.0625 38.0938C24.1055 38.0938 24.1406 38.0762 24.1406 38.0547C24.1406 38.0332 24.1758 38.0156 24.2188 38.0156C24.2617 38.0156 24.2969 37.998 24.2969 37.9766C24.2969 37.9551 24.332 37.9375 24.375 37.9375C24.418 37.9375 24.4531 37.9199 24.4531 37.8984C24.4531 37.877 24.4812 37.8594 24.5156 37.8594C24.5499 37.8594 24.6273 37.8066 24.6875 37.7422C24.7477 37.6777 24.8166 37.625 24.8406 37.625C24.9017 37.625 25.3906 37.1298 25.3906 37.0679C25.3906 37.0401 25.4258 36.9919 25.4688 36.9609C25.5117 36.93 25.5469 36.8772 25.5469 36.8438C25.5469 36.8103 25.582 36.7575 25.625 36.7266C25.668 36.6956 25.7031 36.639 25.7031 36.6007C25.7031 36.5625 25.7207 36.5312 25.7422 36.5312C25.7637 36.5312 25.7812 36.4961 25.7812 36.4531C25.7812 36.4102 25.7988 36.375 25.8203 36.375C25.8418 36.375 25.8594 36.3398 25.8594 36.2969C25.8594 36.2539 25.877 36.2188 25.8984 36.2188C25.9199 36.2188 25.9375 36.166 25.9375 36.1016C25.9375 36.0371 25.9551 35.9844 25.9766 35.9844C25.998 35.9844 26.0156 35.9316 26.0156 35.8672C26.0156 35.8027 26.0332 35.75 26.0547 35.75C26.0762 35.75 26.0938 35.6621 26.0938 35.5547C26.0938 35.4473 26.1113 35.3594 26.1328 35.3594C26.158 35.3594 26.1719 34.9557 26.1719 34.2266C26.1719 33.4974 26.1858 33.0938 26.2109 33.0938C26.2324 33.0938 26.25 33.1113 26.25 33.1328C26.25 33.1551 26.3672 33.1719 26.5234 33.1719C26.6797 33.1719 26.7969 33.1886 26.7969 33.2109C26.7969 33.2327 26.9011 33.25 27.0312 33.25C27.1614 33.25 27.2656 33.2673 27.2656 33.2891C27.2656 33.3108 27.3698 33.3281 27.5 33.3281C27.6302 33.3281 27.7344 33.3455 27.7344 33.3672C27.7344 33.3889 27.8386 33.4062 27.9688 33.4062C28.0989 33.4062 28.2031 33.4236 28.2031 33.4453C28.2031 33.467 28.3073 33.4844 28.4375 33.4844C28.5677 33.4844 28.6719 33.5017 28.6719 33.5234C28.6719 33.5452 28.7761 33.5625 28.9062 33.5625C29.0364 33.5625 29.1406 33.5798 29.1406 33.6016C29.1406 33.6233 29.2448 33.6406 29.375 33.6406C29.5052 33.6406 29.6094 33.658 29.6094 33.6797C29.6094 33.7014 29.7136 33.7188 29.8438 33.7188C29.9739 33.7188 30.0781 33.7361 30.0781 33.7578C30.0781 33.7795 30.1823 33.7969 30.3125 33.7969C30.4427 33.7969 30.5469 33.8142 30.5469 33.8359C30.5469 33.8577 30.6511 33.875 30.7812 33.875C30.9114 33.875 31.0156 33.8923 31.0156 33.9141C31.0156 33.9358 31.1198 33.9531 31.25 33.9531C31.3802 33.9531 31.4844 33.9705 31.4844 33.9922C31.4844 34.0139 31.5886 34.0312 31.7188 34.0312C31.8489 34.0312 31.9531 34.0486 31.9531 34.0703C31.9531 34.092 32.0573 34.1094 32.1875 34.1094C32.3177 34.1094 32.4219 34.1267 32.4219 34.1484C32.4219 34.1702 32.5261 34.1875 32.6562 34.1875C32.7864 34.1875 32.8906 34.2048 32.8906 34.2266C32.8906 34.248 32.9609 34.2656 33.0469 34.2656H33.2031V34.4219C33.2031 34.5078 33.2207 34.5781 33.2422 34.5781C33.2639 34.5781 33.2812 34.6823 33.2812 34.8125C33.2812 34.9427 33.2986 35.0469 33.3203 35.0469C33.3418 35.0469 33.3594 35.0782 33.3594 35.1164C33.3594 35.1546 33.3945 35.2112 33.4375 35.2422C33.4805 35.2732 33.5156 35.3298 33.5156 35.368C33.5156 35.4062 33.5437 35.4375 33.5781 35.4375C33.6124 35.4375 33.6898 35.4902 33.75 35.5547C33.8173 35.6268 33.8986 35.6719 33.961 35.6719C34.0168 35.6719 34.0625 35.6895 34.0625 35.7109C34.0625 35.7341 34.2057 35.75 34.4141 35.75C34.6224 35.75 34.7656 35.7341 34.7656 35.7109C34.7656 35.6895 34.8145 35.6719 34.8742 35.6719C34.9379 35.6719 35.006 35.6396 35.0391 35.5938C35.07 35.5508 35.1191 35.5156 35.1481 35.5156C35.2161 35.5156 35.3125 35.4193 35.3125 35.3512C35.3125 35.3222 35.3477 35.2732 35.3906 35.2422C35.4336 35.2112 35.4688 35.1546 35.4688 35.1164C35.4688 35.0782 35.4863 35.0469 35.5078 35.0469C35.5295 35.0469 35.5469 34.9427 35.5469 34.8125C35.5469 34.6823 35.5642 34.5781 35.5859 34.5781C35.6119 34.5781 35.625 30.9844 35.625 23.875C35.625 16.7656 35.6119 13.1719 35.5859 13.1719C35.5645 13.1719 35.5469 13.084 35.5469 12.9766C35.5469 12.8691 35.5293 12.7812 35.5078 12.7812C35.4863 12.7812 35.4688 12.7461 35.4688 12.7031C35.4688 12.6602 35.4512 12.625 35.4297 12.625C35.4082 12.625 35.3906 12.5982 35.3906 12.5654C35.3906 12.4879 35.059 12.1562 34.9815 12.1562C34.9487 12.1562 34.9219 12.1387 34.9219 12.1172C34.9219 12.0957 34.8867 12.0781 34.8438 12.0781C34.8008 12.0781 34.7656 12.0605 34.7656 12.0391C34.7656 12.0159 34.6224 12 34.4141 12C34.2057 12 34.0625 12.0159 34.0625 12.0391ZM33.2031 23.875C33.2031 31.8958 33.2029 31.9219 33.125 31.9219C33.082 31.9219 33.0469 31.9043 33.0469 31.8828C33.0469 31.8611 32.9427 31.8438 32.8125 31.8438C32.6823 31.8438 32.5781 31.8264 32.5781 31.8047C32.5781 31.783 32.4739 31.7656 32.3438 31.7656C32.2136 31.7656 32.1094 31.7483 32.1094 31.7266C32.1094 31.7048 32.0052 31.6875 31.875 31.6875C31.7448 31.6875 31.6406 31.6702 31.6406 31.6484C31.6406 31.6267 31.5364 31.6094 31.4062 31.6094C31.2761 31.6094 31.1719 31.592 31.1719 31.5703C31.1719 31.5488 31.1016 31.5312 31.0156 31.5312H30.8594V23.875V16.2188H31.0938C31.2239 16.2188 31.3281 16.2014 31.3281 16.1797C31.3281 16.158 31.4323 16.1406 31.5625 16.1406C31.6927 16.1406 31.7969 16.1233 31.7969 16.1016C31.7969 16.0798 31.9011 16.0625 32.0312 16.0625C32.1614 16.0625 32.2656 16.0452 32.2656 16.0234C32.2656 16.0017 32.3698 15.9844 32.5 15.9844C32.6302 15.9844 32.7344 15.967 32.7344 15.9453C32.7344 15.9238 32.8223 15.9062 32.9297 15.9062C33.0371 15.9062 33.125 15.8887 33.125 15.8672C33.125 15.8457 33.1426 15.8281 33.1641 15.8281C33.19 15.8281 33.2031 18.5364 33.2031 23.875ZM28.5156 23.9141C28.5156 31.1146 28.5154 31.1406 28.4375 31.1406C28.3945 31.1406 28.3594 31.123 28.3594 31.1016C28.3594 31.0798 28.2552 31.0625 28.125 31.0625C27.9948 31.0625 27.8906 31.0452 27.8906 31.0234C27.8906 31.0017 27.7864 30.9844 27.6562 30.9844C27.5261 30.9844 27.4219 30.967 27.4219 30.9453C27.4219 30.9236 27.3177 30.9062 27.1875 30.9062C27.0573 30.9062 26.9531 30.8889 26.9531 30.8672C26.9531 30.8455 26.8489 30.8281 26.7188 30.8281C26.5886 30.8281 26.4844 30.8108 26.4844 30.7891C26.4844 30.7673 26.3802 30.75 26.25 30.75C26.1198 30.75 26.0156 30.7327 26.0156 30.7109C26.0156 30.6892 25.9114 30.6719 25.7812 30.6719C25.6511 30.6719 25.5469 30.6545 25.5469 30.6328C25.5469 30.6111 25.4427 30.5938 25.3125 30.5938C25.1823 30.5938 25.0781 30.5764 25.0781 30.5547C25.0781 30.533 24.9739 30.5156 24.8438 30.5156C24.7136 30.5156 24.6094 30.4983 24.6094 30.4766C24.6094 30.4548 24.5052 30.4375 24.375 30.4375C24.2448 30.4375 24.1406 30.4202 24.1406 30.3984C24.1406 30.3767 24.0364 30.3594 23.9062 30.3594C23.7761 30.3594 23.6719 30.342 23.6719 30.3203C23.6719 30.2986 23.5677 30.2812 23.4375 30.2812C23.3073 30.2812 23.2031 30.2639 23.2031 30.2422C23.2031 30.2205 23.0989 30.2031 22.9688 30.2031C22.8386 30.2031 22.7344 30.1858 22.7344 30.1641C22.7344 30.1423 22.6302 30.125 22.5 30.125C22.3698 30.125 22.2656 30.1077 22.2656 30.0859C22.2656 30.0642 22.1614 30.0469 22.0312 30.0469C21.9011 30.0469 21.7969 30.0295 21.7969 30.0078C21.7969 29.9861 21.6927 29.9688 21.5625 29.9688C21.4323 29.9688 21.3281 29.9514 21.3281 29.9297C21.3281 29.908 21.2239 29.8906 21.0938 29.8906C20.9636 29.8906 20.8594 29.8733 20.8594 29.8516C20.8594 29.8298 20.7552 29.8125 20.625 29.8125C20.4948 29.8125 20.3906 29.7952 20.3906 29.7734C20.3906 29.7517 20.2864 29.7344 20.1562 29.7344C20.0261 29.7344 19.9219 29.717 19.9219 29.6953C19.9219 29.6736 19.8177 29.6562 19.6875 29.6562C19.5573 29.6562 19.4531 29.6389 19.4531 29.6172C19.4531 29.5955 19.3489 29.5781 19.2188 29.5781C19.0886 29.5781 18.9844 29.5608 18.9844 29.5391C18.9844 29.5173 18.8802 29.5 18.75 29.5C18.6198 29.5 18.5156 29.4827 18.5156 29.4609C18.5156 29.4392 18.4114 29.4219 18.2812 29.4219C18.1511 29.4219 18.0469 29.4045 18.0469 29.3828C18.0469 29.3611 17.9427 29.3438 17.8125 29.3438C17.6823 29.3438 17.5781 29.3264 17.5781 29.3047C17.5781 29.283 17.4739 29.2656 17.3438 29.2656C17.2136 29.2656 17.1094 29.2483 17.1094 29.2266C17.1094 29.2048 17.0052 29.1875 16.875 29.1875C16.7448 29.1875 16.6406 29.1702 16.6406 29.1484C16.6406 29.1267 16.5364 29.1094 16.4062 29.1094C16.2761 29.1094 16.1719 29.092 16.1719 29.0703C16.1719 29.0486 16.0677 29.0312 15.9375 29.0312C15.8073 29.0312 15.7031 29.0139 15.7031 28.9922C15.7031 28.9705 15.5989 28.9531 15.4688 28.9531C15.3386 28.9531 15.2344 28.9358 15.2344 28.9141C15.2344 28.8923 15.1302 28.875 15 28.875C14.8698 28.875 14.7656 28.8577 14.7656 28.8359C14.7656 28.8142 14.6614 28.7969 14.5312 28.7969C14.4011 28.7969 14.2969 28.7795 14.2969 28.7578C14.2969 28.7361 14.1927 28.7188 14.0625 28.7188C13.9323 28.7188 13.8281 28.7014 13.8281 28.6797C13.8281 28.658 13.7239 28.6406 13.5938 28.6406C13.4636 28.6406 13.3594 28.6233 13.3594 28.6016C13.3594 28.5798 13.2552 28.5625 13.125 28.5625C12.9948 28.5625 12.8906 28.5452 12.8906 28.5234C12.8906 28.5017 12.7864 28.4844 12.6562 28.4844C12.5261 28.4844 12.4219 28.467 12.4219 28.4453C12.4219 28.4236 12.3177 28.4062 12.1875 28.4062C12.0573 28.4062 11.9531 28.3889 11.9531 28.3672C11.9531 28.3455 11.8489 28.3281 11.7188 28.3281C11.5886 28.3281 11.4844 28.3108 11.4844 28.2891C11.4844 28.2673 11.3802 28.25 11.25 28.25C11.1198 28.25 11.0156 28.2327 11.0156 28.2109C11.0156 28.1892 10.9114 28.1719 10.7812 28.1719C10.6511 28.1719 10.5469 28.1545 10.5469 28.1328C10.5469 28.1111 10.4427 28.0938 10.3125 28.0938C10.1823 28.0938 10.0781 28.0764 10.0781 28.0547C10.0781 28.033 9.97395 28.0156 9.84375 28.0156C9.71355 28.0156 9.60938 27.9983 9.60938 27.9766C9.60938 27.9548 9.5052 27.9375 9.375 27.9375C9.2448 27.9375 9.14062 27.9202 9.14062 27.8984C9.14062 27.8767 9.03645 27.8594 8.90625 27.8594C8.77605 27.8594 8.67188 27.842 8.67188 27.8203C8.67188 27.7986 8.5677 27.7812 8.4375 27.7812C8.3073 27.7812 8.20312 27.7639 8.20312 27.7422C8.20312 27.7205 8.09895 27.7031 7.96875 27.7031C7.83855 27.7031 7.73438 27.6858 7.73438 27.6641C7.73438 27.6426 7.64648 27.625 7.53906 27.625H7.34375V23.875V20.125H7.61719C7.77344 20.125 7.89062 20.1082 7.89062 20.0859C7.89062 20.0642 7.9948 20.0469 8.125 20.0469C8.2552 20.0469 8.35938 20.0295 8.35938 20.0078C8.35938 19.9861 8.46355 19.9688 8.59375 19.9688C8.72395 19.9688 8.82812 19.9514 8.82812 19.9297C8.82812 19.908 8.9323 19.8906 9.0625 19.8906C9.1927 19.8906 9.29688 19.8733 9.29688 19.8516C9.29688 19.8298 9.40105 19.8125 9.53125 19.8125C9.66145 19.8125 9.76562 19.7952 9.76562 19.7734C9.76562 19.7517 9.8698 19.7344 10 19.7344C10.1302 19.7344 10.2344 19.717 10.2344 19.6953C10.2344 19.6736 10.3386 19.6562 10.4688 19.6562C10.5989 19.6562 10.7031 19.6389 10.7031 19.6172C10.7031 19.5955 10.8073 19.5781 10.9375 19.5781C11.0677 19.5781 11.1719 19.5608 11.1719 19.5391C11.1719 19.5173 11.2761 19.5 11.4062 19.5C11.5364 19.5 11.6406 19.4827 11.6406 19.4609C11.6406 19.4392 11.7448 19.4219 11.875 19.4219C12.0052 19.4219 12.1094 19.4045 12.1094 19.3828C12.1094 19.3611 12.2136 19.3438 12.3438 19.3438C12.4739 19.3438 12.5781 19.3264 12.5781 19.3047C12.5781 19.283 12.6823 19.2656 12.8125 19.2656C12.9427 19.2656 13.0469 19.2483 13.0469 19.2266C13.0469 19.2048 13.1511 19.1875 13.2812 19.1875C13.4114 19.1875 13.5156 19.1702 13.5156 19.1484C13.5156 19.1267 13.6198 19.1094 13.75 19.1094C13.8802 19.1094 13.9844 19.092 13.9844 19.0703C13.9844 19.0486 14.0886 19.0312 14.2188 19.0312C14.3489 19.0312 14.4531 19.0139 14.4531 18.9922C14.4531 18.9705 14.5573 18.9531 14.6875 18.9531C14.8177 18.9531 14.9219 18.9358 14.9219 18.9141C14.9219 18.8923 15.0261 18.875 15.1562 18.875C15.2864 18.875 15.3906 18.8577 15.3906 18.8359C15.3906 18.8142 15.4948 18.7969 15.625 18.7969C15.7552 18.7969 15.8594 18.7795 15.8594 18.7578C15.8594 18.7361 15.9636 18.7188 16.0938 18.7188C16.2239 18.7188 16.3281 18.7014 16.3281 18.6797C16.3281 18.658 16.4323 18.6406 16.5625 18.6406C16.6927 18.6406 16.7969 18.6233 16.7969 18.6016C16.7969 18.5798 16.9011 18.5625 17.0312 18.5625C17.1614 18.5625 17.2656 18.5452 17.2656 18.5234C17.2656 18.5017 17.3698 18.4844 17.5 18.4844C17.6302 18.4844 17.7344 18.467 17.7344 18.4453C17.7344 18.4236 17.8386 18.4062 17.9688 18.4062C18.0989 18.4062 18.2031 18.3889 18.2031 18.3672C18.2031 18.3455 18.3073 18.3281 18.4375 18.3281C18.5677 18.3281 18.6719 18.3108 18.6719 18.2891C18.6719 18.2673 18.7761 18.25 18.9062 18.25C19.0364 18.25 19.1406 18.2327 19.1406 18.2109C19.1406 18.1892 19.2448 18.1719 19.375 18.1719C19.5052 18.1719 19.6094 18.1545 19.6094 18.1328C19.6094 18.1111 19.7136 18.0938 19.8438 18.0938C19.9739 18.0938 20.0781 18.0764 20.0781 18.0547C20.0781 18.033 20.1823 18.0156 20.3125 18.0156C20.4427 18.0156 20.5469 17.9983 20.5469 17.9766C20.5469 17.9548 20.6511 17.9375 20.7812 17.9375C20.9114 17.9375 21.0156 17.9202 21.0156 17.8984C21.0156 17.877 21.1035 17.8594 21.2109 17.8594C21.3184 17.8594 21.4062 17.8418 21.4062 17.8203C21.4062 17.798 21.5234 17.7812 21.6797 17.7812C21.8359 17.7812 21.9531 17.7645 21.9531 17.7422C21.9531 17.7205 22.0573 17.7031 22.1875 17.7031C22.3177 17.7031 22.4219 17.6858 22.4219 17.6641C22.4219 17.6423 22.5261 17.625 22.6562 17.625C22.7864 17.625 22.8906 17.6077 22.8906 17.5859C22.8906 17.5642 22.9948 17.5469 23.125 17.5469C23.2552 17.5469 23.3594 17.5295 23.3594 17.5078C23.3594 17.4863 23.4473 17.4688 23.5547 17.4688C23.6621 17.4688 23.75 17.4512 23.75 17.4297C23.75 17.408 23.8542 17.3906 23.9844 17.3906C24.1146 17.3906 24.2188 17.3733 24.2188 17.3516C24.2188 17.3293 24.3359 17.3125 24.4922 17.3125C24.6484 17.3125 24.7656 17.2957 24.7656 17.2734C24.7656 17.252 24.8535 17.2344 24.9609 17.2344C25.0684 17.2344 25.1562 17.2168 25.1562 17.1953C25.1562 17.173 25.2734 17.1562 25.4297 17.1562C25.5859 17.1562 25.7031 17.1395 25.7031 17.1172C25.7031 17.0955 25.8073 17.0781 25.9375 17.0781C26.0677 17.0781 26.1719 17.0608 26.1719 17.0391C26.1719 17.0173 26.2761 17 26.4062 17C26.5364 17 26.6406 16.9827 26.6406 16.9609C26.6406 16.9392 26.7448 16.9219 26.875 16.9219C27.0052 16.9219 27.1094 16.9045 27.1094 16.8828C27.1094 16.8611 27.2136 16.8438 27.3438 16.8438C27.4739 16.8438 27.5781 16.8264 27.5781 16.8047C27.5781 16.783 27.6823 16.7656 27.8125 16.7656C27.9427 16.7656 28.0469 16.7483 28.0469 16.7266C28.0469 16.7048 28.1511 16.6875 28.2812 16.6875H28.5156V23.9141ZM40.5469 17.1953C40.5469 17.2168 40.4941 17.2344 40.4297 17.2344C40.3652 17.2344 40.3125 17.252 40.3125 17.2734C40.3125 17.2949 40.2861 17.3125 40.2537 17.3125C40.177 17.3125 38.125 19.3645 38.125 19.4412C38.125 19.4736 38.1074 19.5 38.0859 19.5C38.0645 19.5 38.0469 19.5352 38.0469 19.5781C38.0469 19.6211 38.0293 19.6562 38.0078 19.6562C37.9846 19.6562 37.9688 19.7995 37.9688 20.0078C37.9688 20.2161 37.9846 20.3594 38.0078 20.3594C38.0293 20.3594 38.0469 20.3945 38.0469 20.4375C38.0469 20.4805 38.0645 20.5156 38.0859 20.5156C38.1074 20.5156 38.125 20.5424 38.125 20.5751C38.125 20.6524 38.5351 21.0625 38.6124 21.0625C38.6451 21.0625 38.6719 21.0801 38.6719 21.1016C38.6719 21.123 38.7583 21.1406 38.8639 21.1406C38.9794 21.1406 39.0651 21.1601 39.0788 21.1895C39.097 21.2285 39.1061 21.2285 39.1243 21.1895C39.138 21.1601 39.2238 21.1406 39.3392 21.1406C39.4448 21.1406 39.5312 21.123 39.5312 21.1016C39.5312 21.0801 39.5664 21.0625 39.6094 21.0625C39.6523 21.0625 39.6875 21.0449 39.6875 21.0234C39.6875 21.002 39.7139 20.9844 39.7463 20.9844C39.8231 20.9844 41.7969 19.0106 41.7969 18.9338C41.7969 18.9014 41.8145 18.875 41.8359 18.875C41.8574 18.875 41.875 18.8223 41.875 18.7578C41.875 18.6934 41.8926 18.6406 41.9141 18.6406C41.9368 18.6406 41.9531 18.5104 41.9531 18.3281C41.9531 18.1458 41.9368 18.0156 41.9141 18.0156C41.8926 18.0156 41.875 17.9805 41.875 17.9375C41.875 17.8945 41.8574 17.8594 41.8359 17.8594C41.8145 17.8594 41.7969 17.8281 41.7969 17.7899C41.7969 17.7516 41.7617 17.695 41.7188 17.6641C41.6758 17.6331 41.6406 17.5765 41.6406 17.5382C41.6406 17.4977 41.6117 17.4688 41.5711 17.4688C41.5329 17.4688 41.4763 17.4336 41.4453 17.3906C41.4143 17.3477 41.3577 17.3125 41.3195 17.3125C41.2813 17.3125 41.25 17.2949 41.25 17.2734C41.25 17.252 41.1973 17.2344 41.1328 17.2344C41.0684 17.2344 41.0156 17.2168 41.0156 17.1953C41.0156 17.1736 40.9114 17.1562 40.7812 17.1562C40.6511 17.1562 40.5469 17.1736 40.5469 17.1953ZM41.25 22.7422C41.25 22.7637 41.1973 22.7812 41.1328 22.7812C41.0684 22.7812 41.0156 22.7988 41.0156 22.8203C41.0156 22.8418 40.9843 22.8594 40.9461 22.8594C40.9079 22.8594 40.8513 22.8945 40.8203 22.9375C40.7893 22.9805 40.7403 23.0156 40.7113 23.0156C40.6432 23.0156 40.5469 23.112 40.5469 23.18C40.5469 23.209 40.5117 23.2581 40.4688 23.2891C40.4229 23.3221 40.3906 23.3902 40.3906 23.4539C40.3906 23.5136 40.373 23.5625 40.3516 23.5625C40.3288 23.5625 40.3125 23.6927 40.3125 23.875C40.3125 24.0573 40.3288 24.1875 40.3516 24.1875C40.373 24.1875 40.3906 24.2402 40.3906 24.3047C40.3906 24.3691 40.4082 24.4219 40.4297 24.4219C40.4512 24.4219 40.4688 24.4487 40.4688 24.4815C40.4688 24.559 40.8004 24.8906 40.8779 24.8906C40.9107 24.8906 40.9375 24.9082 40.9375 24.9297C40.9375 24.9512 40.9902 24.9688 41.0547 24.9688C41.1191 24.9688 41.1719 24.9863 41.1719 25.0078C41.1719 25.0332 41.6927 25.0469 42.6562 25.0469C43.6198 25.0469 44.1406 25.0332 44.1406 25.0078C44.1406 24.9863 44.1895 24.9688 44.2492 24.9688C44.3129 24.9688 44.381 24.9365 44.4141 24.8906C44.445 24.8477 44.4937 24.8125 44.5221 24.8125C44.5892 24.8125 44.7656 24.6361 44.7656 24.569C44.7656 24.5405 44.8008 24.4919 44.8438 24.4609C44.8896 24.4279 44.9219 24.3598 44.9219 24.2961C44.9219 24.2364 44.9395 24.1875 44.9609 24.1875C44.9837 24.1875 45 24.0573 45 23.875C45 23.6927 44.9837 23.5625 44.9609 23.5625C44.9395 23.5625 44.9219 23.5273 44.9219 23.4844C44.9219 23.4414 44.9043 23.4062 44.8828 23.4062C44.8613 23.4062 44.8438 23.375 44.8438 23.3368C44.8438 23.2985 44.8086 23.2419 44.7656 23.2109C44.7227 23.18 44.6875 23.1234 44.6875 23.0851C44.6875 23.0445 44.6586 23.0156 44.618 23.0156C44.5798 23.0156 44.5232 22.9805 44.4922 22.9375C44.4612 22.8945 44.4046 22.8594 44.3664 22.8594C44.3282 22.8594 44.2969 22.8418 44.2969 22.8203C44.2969 22.7988 44.2441 22.7812 44.1797 22.7812C44.1152 22.7812 44.0625 22.7637 44.0625 22.7422C44.0625 22.7169 43.5677 22.7031 42.6562 22.7031C41.7448 22.7031 41.25 22.7169 41.25 22.7422ZM38.75 26.6484C38.75 26.6699 38.7148 26.6875 38.6719 26.6875C38.6289 26.6875 38.5938 26.7051 38.5938 26.7266C38.5938 26.748 38.5669 26.7656 38.5341 26.7656C38.5013 26.7656 38.3959 26.8443 38.2998 26.9404C38.2036 27.0365 38.125 27.142 38.125 27.1748C38.125 27.2075 38.1074 27.2344 38.0859 27.2344C38.0645 27.2344 38.0469 27.2695 38.0469 27.3125C38.0469 27.3555 38.0293 27.3906 38.0078 27.3906C37.9846 27.3906 37.9688 27.5339 37.9688 27.7422C37.9688 27.9505 37.9846 28.0938 38.0078 28.0938C38.0293 28.0938 38.0469 28.1426 38.0469 28.2023C38.0469 28.2661 38.0791 28.3341 38.125 28.3672C38.168 28.3982 38.2031 28.4461 38.2031 28.4737C38.2031 28.5447 40.0261 30.3594 40.0975 30.3594C40.1298 30.3594 40.1562 30.377 40.1562 30.3984C40.1562 30.4199 40.1914 30.4375 40.2344 30.4375C40.2773 30.4375 40.3125 30.4551 40.3125 30.4766C40.3125 30.498 40.3477 30.5156 40.3906 30.5156C40.4336 30.5156 40.4688 30.5332 40.4688 30.5547C40.4688 30.5775 40.5989 30.5938 40.7812 30.5938C40.9636 30.5938 41.0938 30.5775 41.0938 30.5547C41.0938 30.5332 41.1426 30.5156 41.2023 30.5156C41.2661 30.5156 41.3341 30.4834 41.3672 30.4375C41.3982 30.3945 41.4468 30.3594 41.4752 30.3594C41.5423 30.3594 41.7188 30.1829 41.7188 30.1159C41.7188 30.0874 41.7539 30.0388 41.7969 30.0078C41.8427 29.9747 41.875 29.9067 41.875 29.8429C41.875 29.7832 41.8926 29.7344 41.9141 29.7344C41.9368 29.7344 41.9531 29.6042 41.9531 29.4219C41.9531 29.2396 41.9368 29.1094 41.9141 29.1094C41.8926 29.1094 41.875 29.0605 41.875 29.0008C41.875 28.9371 41.8427 28.869 41.7969 28.8359C41.7539 28.805 41.7188 28.757 41.7188 28.7295C41.7188 28.7019 41.3057 28.2663 40.801 27.7615C40.2962 27.2568 39.8606 26.8438 39.833 26.8438C39.8055 26.8438 39.7575 26.8086 39.7266 26.7656C39.6935 26.7198 39.6254 26.6875 39.5617 26.6875C39.502 26.6875 39.4531 26.6699 39.4531 26.6484C39.4531 26.6253 39.3099 26.6094 39.1016 26.6094C38.8932 26.6094 38.75 26.6253 38.75 26.6484ZM14.6094 31.1797C14.6094 31.2014 14.7136 31.2188 14.8438 31.2188C14.9739 31.2188 15.0781 31.2361 15.0781 31.2578C15.0781 31.2795 15.1823 31.2969 15.3125 31.2969C15.4427 31.2969 15.5469 31.3142 15.5469 31.3359C15.5469 31.3577 15.6511 31.375 15.7812 31.375C15.9114 31.375 16.0156 31.3923 16.0156 31.4141C16.0156 31.4358 16.1198 31.4531 16.25 31.4531C16.3802 31.4531 16.4844 31.4705 16.4844 31.4922C16.4844 31.5139 16.5886 31.5312 16.7188 31.5312C16.8489 31.5312 16.9531 31.5486 16.9531 31.5703C16.9531 31.592 17.0573 31.6094 17.1875 31.6094C17.3177 31.6094 17.4219 31.6267 17.4219 31.6484C17.4219 31.6702 17.5261 31.6875 17.6562 31.6875C17.7864 31.6875 17.8906 31.7048 17.8906 31.7266C17.8906 31.7483 17.9948 31.7656 18.125 31.7656C18.2552 31.7656 18.3594 31.783 18.3594 31.8047C18.3594 31.8262 18.4473 31.8438 18.5547 31.8438C18.6621 31.8438 18.75 31.8613 18.75 31.8828C18.75 31.9051 18.8672 31.9219 19.0234 31.9219C19.1797 31.9219 19.2969 31.9386 19.2969 31.9609C19.2969 31.9827 19.4011 32 19.5312 32C19.6614 32 19.7656 32.0173 19.7656 32.0391C19.7656 32.0608 19.8698 32.0781 20 32.0781C20.1302 32.0781 20.2344 32.0955 20.2344 32.1172C20.2344 32.1389 20.3386 32.1562 20.4688 32.1562C20.5989 32.1562 20.7031 32.1736 20.7031 32.1953C20.7031 32.217 20.8073 32.2344 20.9375 32.2344C21.0677 32.2344 21.1719 32.2517 21.1719 32.2734C21.1719 32.2952 21.2761 32.3125 21.4062 32.3125C21.5364 32.3125 21.6406 32.3298 21.6406 32.3516C21.6406 32.3733 21.7448 32.3906 21.875 32.3906C22.0052 32.3906 22.1094 32.408 22.1094 32.4297C22.1094 32.4514 22.2136 32.4688 22.3438 32.4688C22.4739 32.4688 22.5781 32.4861 22.5781 32.5078C22.5781 32.5295 22.6823 32.5469 22.8125 32.5469C22.9427 32.5469 23.0469 32.5642 23.0469 32.5859C23.0469 32.6077 23.1511 32.625 23.2812 32.625C23.4114 32.625 23.5156 32.6423 23.5156 32.6641C23.5156 32.6855 23.5859 32.7031 23.6719 32.7031H23.8281V33.9141C23.8281 34.6953 23.8143 35.125 23.7891 35.125C23.7676 35.125 23.75 35.1777 23.75 35.2422C23.75 35.3066 23.7324 35.3594 23.7109 35.3594C23.6895 35.3594 23.6719 35.3861 23.6719 35.4188C23.6719 35.4962 23.2618 35.9062 23.1845 35.9062C23.1518 35.9062 23.125 35.9238 23.125 35.9453C23.125 35.9668 23.0898 35.9844 23.0469 35.9844C23.0039 35.9844 22.9688 36.002 22.9688 36.0234C22.9688 36.0492 21.6667 36.0625 19.1406 36.0625C16.6146 36.0625 15.3125 36.0492 15.3125 36.0234C15.3125 36.002 15.2598 35.9844 15.1953 35.9844C15.1309 35.9844 15.0781 35.9668 15.0781 35.9453C15.0781 35.9238 15.0513 35.9062 15.0185 35.9062C14.941 35.9062 14.6094 35.5746 14.6094 35.4971C14.6094 35.4643 14.5918 35.4375 14.5703 35.4375C14.5488 35.4375 14.5312 35.4023 14.5312 35.3594C14.5312 35.3164 14.5137 35.2812 14.4922 35.2812C14.4707 35.2812 14.4531 35.2109 14.4531 35.125C14.4531 35.0391 14.4355 34.9688 14.4141 34.9688C14.3886 34.9688 14.375 34.3047 14.375 33.0547V31.1406H14.4922C14.5566 31.1406 14.6094 31.1582 14.6094 31.1797Z" fill="#FF6F00"/>
</svg>
